<svg xmlns="http://www.w3.org/2000/svg" id="Laag_1" data-name="Laag 1" viewBox="0 0 383.57 85.81"><g><path d="m210.98,73.95v7.57c0,1.33-.4,2.38-1.21,3.15-.81.76-1.91,1.14-3.32,1.14s-2.5-.38-3.27-1.15c-.77-.77-1.16-1.82-1.16-3.17v-7.54h1.36v7.64c0,.98.27,1.73.8,2.25.53.52,1.32.78,2.35.78s1.75-.26,2.28-.79c.53-.53.8-1.28.8-2.26v-7.62h1.36Z" style="fill: #25303b;"></path><polygon points="215.3 73.95 215.3 85.65 221.82 85.65 221.82 84.42 216.66 84.42 216.66 73.95 215.3 73.95" style="fill: #25303b;"></polygon><polygon points="223.57 73.95 223.57 75.16 227.28 75.16 227.28 85.65 228.64 85.65 228.64 75.16 232.35 75.16 232.35 73.95 223.57 73.95" style="fill: #25303b;"></polygon><g><path d="m236.7,80.78v4.87h-1.36v-11.7h3.21c1.44,0,2.5.28,3.18.82.68.55,1.03,1.38,1.03,2.48,0,1.55-.78,2.59-2.35,3.14l3.18,5.26h-1.61l-2.83-4.87h-2.44Zm0-1.17h1.87c.96,0,1.66-.19,2.11-.57.45-.38.67-.95.67-1.72s-.23-1.33-.68-1.67c-.46-.34-1.19-.51-2.2-.51h-1.77v4.47Z" style="fill: #25303b;"></path><path d="m254.05,85.65l-1.46-3.72h-4.69l-1.44,3.72h-1.38l4.63-11.75h1.15l4.6,11.75h-1.41Zm-1.88-4.95l-1.36-3.63c-.18-.46-.36-1.02-.54-1.69-.12.51-.29,1.07-.5,1.69l-1.38,3.63h3.79Z" style="fill: #25303b;"></path></g><polygon points="258.3 73.95 258.3 85.65 259.66 85.65 259.66 80.65 264.51 80.65 264.51 79.44 259.66 79.44 259.66 75.16 264.82 75.16 264.82 73.95 258.3 73.95" style="fill: #25303b;"></polygon><polygon points="267.99 73.95 267.99 85.65 274.51 85.65 274.51 84.42 269.35 84.42 269.35 73.95 267.99 73.95" style="fill: #25303b;"></polygon><path d="m285.08,85.65l-1.46-3.72h-4.69l-1.44,3.72h-1.38l4.63-11.75h1.15l4.6,11.75h-1.41Zm-1.88-4.95l-1.36-3.63c-.18-.46-.36-1.02-.54-1.69-.12.51-.29,1.07-.5,1.69l-1.38,3.63h3.79Z" style="fill: #25303b;"></path><polygon points="287.86 73.95 287.86 75.16 291.57 75.16 291.57 85.65 292.93 85.65 292.93 75.16 296.63 75.16 296.63 73.95 287.86 73.95" style="fill: #25303b;"></polygon><path d="m312.94,82.54c0,1.03-.37,1.83-1.12,2.41-.75.58-1.76.86-3.04.86-1.39,0-2.45-.18-3.2-.54v-1.31c.48.2,1,.36,1.57.48.57.12,1.13.18,1.68.18.91,0,1.59-.17,2.05-.52.46-.34.69-.82.69-1.44,0-.41-.08-.74-.24-1-.16-.26-.43-.5-.82-.72-.38-.22-.96-.47-1.74-.74-1.09-.39-1.87-.85-2.33-1.39-.47-.53-.7-1.23-.7-2.09,0-.9.34-1.62,1.02-2.15.68-.53,1.57-.8,2.69-.8s2.23.21,3.21.64l-.42,1.19c-.97-.41-1.91-.61-2.82-.61-.72,0-1.28.15-1.69.46s-.61.74-.61,1.29c0,.41.07.74.22,1,.15.26.4.5.76.71.36.22.9.45,1.63.72,1.23.44,2.07.91,2.53,1.41.46.5.69,1.15.69,1.95" style="fill: #25303b;"></path><polygon points="316.56 73.95 316.56 85.65 323.09 85.65 323.09 84.43 317.92 84.43 317.92 80.13 322.77 80.13 322.77 78.93 317.92 78.93 317.92 75.16 323.09 75.16 323.09 73.95 316.56 73.95" style="fill: #25303b;"></polygon><g><path d="m328.27,80.78v4.87h-1.36v-11.7h3.21c1.43,0,2.5.28,3.18.82.69.55,1.03,1.38,1.03,2.48,0,1.55-.78,2.59-2.35,3.14l3.18,5.26h-1.61l-2.83-4.87h-2.44Zm0-1.17h1.87c.96,0,1.66-.19,2.11-.57.45-.38.67-.95.67-1.72s-.23-1.33-.68-1.67c-.46-.34-1.19-.51-2.2-.51h-1.77v4.47Z" style="fill: #25303b;"></path><path d="m344.95,73.95h1.46l-4.22,11.7h-1.34l-4.19-11.7h1.44l2.69,7.57c.31.87.55,1.72.74,2.54.19-.86.44-1.73.75-2.58l2.67-7.52Z" style="fill: #25303b;"></path></g><rect x="349.26" y="73.95" width="1.36" height="11.7" style="fill: #25303b;"></rect><path d="m360.06,75c-1.29,0-2.3.43-3.05,1.28-.74.86-1.12,2.03-1.12,3.52s.36,2.71,1.08,3.55c.72.84,1.74,1.25,3.07,1.25.82,0,1.75-.15,2.79-.44v1.19c-.81.3-1.81.46-3,.46-1.72,0-3.05-.52-3.99-1.57-.94-1.05-1.41-2.53-1.41-4.46,0-1.2.23-2.26.68-3.17.45-.91,1.1-1.61,1.95-2.1.85-.49,1.85-.74,3.01-.74,1.23,0,2.3.22,3.22.67l-.58,1.17c-.89-.42-1.77-.62-2.66-.62" style="fill: #25303b;"></path><path d="m383.57,82.54c0,1.03-.37,1.83-1.12,2.41-.75.58-1.76.86-3.04.86-1.39,0-2.45-.18-3.2-.54v-1.31c.48.2,1,.36,1.57.48.57.12,1.13.18,1.68.18.91,0,1.59-.17,2.05-.52.46-.34.69-.82.69-1.44,0-.41-.08-.74-.24-1-.16-.26-.43-.5-.82-.72-.38-.22-.96-.47-1.74-.74-1.09-.39-1.87-.85-2.33-1.39-.47-.53-.7-1.23-.7-2.09,0-.9.34-1.62,1.02-2.15.68-.53,1.57-.8,2.69-.8s2.23.21,3.21.64l-.42,1.19c-.97-.41-1.9-.61-2.82-.61-.72,0-1.28.15-1.69.46s-.61.74-.61,1.29c0,.41.07.74.22,1,.15.26.4.5.76.71.36.22.9.45,1.63.72,1.23.44,2.07.91,2.53,1.41.46.5.69,1.15.69,1.95" style="fill: #25303b;"></path><polygon points="366.62 73.95 366.62 85.65 373.15 85.65 373.15 84.43 367.98 84.43 367.98 80.13 372.84 80.13 372.84 78.93 367.98 78.93 367.98 75.16 373.15 75.16 373.15 73.95 366.62 73.95" style="fill: #25303b;"></polygon><g><g><polygon points="50.21 5.66 46.58 5.66 46.58 42.42 66.41 42.42 66.41 39.16 50.21 39.16 50.21 5.66" style="fill: #25303b;"></polygon><path d="m97.7,8.84c-2.49-2.12-6.01-3.18-10.57-3.18h-13.57v36.76h3.63v-11.89h9.94c4.56,0,8.08-1.11,10.57-3.31,2.49-2.21,3.73-5.33,3.73-9.36s-1.24-6.9-3.73-9.02Zm-2.6,16.04c-1.91,1.6-4.62,2.39-8.12,2.39h-9.78V8.92h9.78c3.54,0,6.26.77,8.15,2.31,1.89,1.54,2.84,3.79,2.84,6.73s-.96,5.32-2.87,6.92Z" style="fill: #25303b;"></path><polygon points="135.3 21.43 135.3 26.02 135.3 27.33 112.25 27.33 112.25 26.02 112.25 21.43 112.25 5.52 108.64 5.52 108.64 42.51 112.25 42.51 112.25 30.57 135.3 30.57 135.3 42.51 138.94 42.51 138.94 5.52 135.3 5.52 135.3 21.43" style="fill: #25303b;"></polygon><path d="m165.33,5.66h-3.79l-16.57,36.76h3.89l4.31-9.78.9-2.07h18.6l.9,2.07,4.36,9.78h3.94l-16.57-36.76Zm-2,3.84l7.92,17.83h-15.75l7.83-17.83Z" style="fill: #25303b;"></path></g><g><polygon points="230.62 5.66 227 5.66 227 42.42 246.82 42.42 246.82 39.16 230.62 39.16 230.62 5.66" style="fill: #25303b;"></polygon><polygon points="324.76 5.66 324.76 36.79 301.93 5.66 298.1 5.66 298.1 42.42 301.72 42.42 301.72 11.29 324.49 42.42 328.33 42.42 328.33 5.66 324.76 5.66" style="fill: #25303b;"></polygon><path d="m270.1,5.66l-16.56,36.76h3.89l4.31-9.78.9-2.07h18.61l.9,2.07,4.36,9.78h3.94l-16.56-36.76h-3.79Zm-6.04,21.67l7.83-17.83,7.92,17.83h-15.75Z" style="fill: #25303b;"></path></g></g></g><g><g><path d="m215.08,9.09c-2.77-2.31-6.61-3.48-11.41-3.48h-14.62v36.84h5.98v-10.62h8.64c4.8,0,8.64-1.17,11.41-3.48,2.79-2.33,4.21-5.57,4.21-9.63s-1.42-7.3-4.21-9.63Zm-1.78,9.63c0,2.51-.83,4.45-2.47,5.78-1.66,1.35-4.12,2.03-7.32,2.03h-8.48v-15.61h8.48c3.2,0,5.66.68,7.32,2.03,1.64,1.33,2.47,3.27,2.47,5.78Z" style="fill: #cc0935;"></path><path d="m18.58,5.55L1.88,42.42h6.16l4.8-10.91h17.04l4.8,10.91h6.26L24.18,5.55h-5.6Zm8.99,20.71h-12.43l6.21-14.12,6.22,14.12Z" style="fill: #cc0935;"></path></g><polygon points="202.16 55.88 192.69 54.43 176.78 54.42 157.56 57.8 138.66 52.75 122.82 58.08 111.67 55.86 96.98 57.31 82.51 53.13 70.41 54.6 57.38 51.09 45.8 58.98 29.35 55.8 23.62 57.89 14.74 51.62 8.81 55.71 1.05 53.8 0 58.06 9.67 60.44 14.7 56.97 22.97 62.8 29.71 60.34 46.77 63.64 58.19 55.85 70.09 59.06 82.15 57.6 96.57 61.76 111.45 60.29 123.11 62.62 138.8 57.33 157.37 62.29 177.01 58.8 192.22 58.8 201.83 60.27 383.49 60.27 383.49 55.88 202.16 55.88" style="fill: #cc0935;"></polygon><g><polygon points="361.27 0 361.27 22.08 383.35 22.08 361.27 0" style="fill: #cc0935;"></polygon><polygon points="357.95 22.08 357.95 .05 335.92 22.08 357.95 22.08" style="fill: #cc0935;"></polygon><polygon points="357.95 47.46 357.95 25.4 335.89 25.4 357.95 47.46" style="fill: #cc0935;"></polygon><polygon points="361.27 25.4 361.27 47.51 383.38 25.4 361.27 25.4" style="fill: #cc0935;"></polygon></g></g></svg>