<?xml version="1.0" encoding="UTF-8"?>
<svg id="uuid-5c59bdfe-70ee-4249-b9f2-b45f8381e587" data-name="Laag_2" xmlns="http://www.w3.org/2000/svg" viewBox="0 0 1882.71 624.49">
  <defs>
    <style>
      .uuid-f7707a2e-17a2-4e1e-b2a2-2057e9ae0597 {
        fill: #42ac49;
      }

      .uuid-8615e810-ff3a-4ea9-8620-b2347d4e0112 {
        fill: #ececec;
      }
    </style>
  </defs>
  <g id="uuid-077ca405-c837-413d-acf6-a1a11ef5e224" data-name="Laag_1">
    <g id="uuid-02fed37d-1917-4e75-84c7-a5bba6082ed6" data-name="logo">
      <path class="uuid-8615e810-ff3a-4ea9-8620-b2347d4e0112" d="M207.5,553.45s-51.67,9.17-120.83,9.17C28.75,562.63,0,546.37,0,484.71v-92.92C0,330.54,28.75,314.3,86.66,314.3c69.59,0,120.83,5.41,120.83,5.41v60.41h-107.09c-10.83,0-16.66,5-16.66,15.83v85c0,10.41,5.84,15.83,16.66,15.83h106.67l.42,56.67Z"/>
      <path class="uuid-8615e810-ff3a-4ea9-8620-b2347d4e0112" d="M867.88,376.79h-112.5c-6.25,0-8.75,0-8.75,4.59v5c0,5.82,4.17,6.24,6.25,6.66l46.25,8.34c54.58,9.17,82.5,11.67,82.5,69.16v11.67c0,60-29.16,80.83-87.5,80.83-69.17,0-134.99-9.17-134.99-9.17l.41-56.67h115c18.33,0,24.59-1.25,24.59-10.83v-5.42c0-5-5.84-6.25-34.59-11.67-16.66-2.92-38.74-6.24-53.33-9.17-30.82-6.67-48.33-16.67-48.33-57.5v-19.58c0-60,28.75-68.76,86.67-68.76,69.17,0,118.34,5.42,118.34,5.42v57.08Z"/>
      <path class="uuid-8615e810-ff3a-4ea9-8620-b2347d4e0112" d="M1614.8,557.82h-83.75v-15.42c-18.33,9.58-40.41,17.92-57.5,17.92h-8.75c-55.83-.42-84.16-15.42-84.16-76.25v-170h84.16v163.33c0,10.84,5.42,15.42,16.66,15.42h5.84c11.67,0,25-3.33,43.75-6.67v-172.08h83.75v243.75Z"/>
      <path class="uuid-8615e810-ff3a-4ea9-8620-b2347d4e0112" d="M1732.71,486.16c18.75,3.33,31.67,6.66,43.33,6.66h5.84c11.24,0,17.08-4.58,17.08-15.42v-82.92c0-10.83-5.84-15.42-17.08-15.42h-5.84c-11.66,0-24.58,3.33-43.33,6.67v100.42ZM1732.71,624.49h-83.75v-310.41h83.75v15.42c18.34-9.58,40-17.91,57.09-17.91h9.17c55.83.42,83.75,15.42,83.75,76.25v96.25c0,60.41-27.92,75.84-83.75,76.25h-9.17c-17.09,0-38.75-8.34-57.09-17.93v82.09Z"/>
      <path class="uuid-8615e810-ff3a-4ea9-8620-b2347d4e0112" d="M311.09,316.52l1.01,39.29c2.01-5.03,4.03-11.08,6.04-15.11,8.06-18.14,23.17-23.17,38.29-23.17h27.2v68.51h-31.23c-12.09,1.01-25.19,2.01-31.24,18.14-2.01,9.07-2.01,19.14-2.01,29.22v126.94h-83.47v-242.81l75.41-1.01Z"/>
      <path class="uuid-8615e810-ff3a-4ea9-8620-b2347d4e0112" d="M1119.46,484.2c0-.68.07-1.3.07-1.99v-11.67c0-57.49-27.92-60-82.5-69.16l-46.25-8.34c-2.09-.42-6.26-.84-6.26-6.67v-4.99c0-4.59,2.5-4.59,8.75-4.59h112.49v-57.08s-49.16-5.41-118.32-5.41c-57.92,0-86.67,8.75-86.67,68.75v19.58c0,40.83,17.5,50.83,48.33,57.5,14.59,2.92,36.67,6.25,53.33,9.17,28.75,5.42,34.59,6.67,34.59,11.67v5.42c0,9.58-6.25,10.83-24.59,10.83h-114.99l-.42,56.67s28.01,3.89,66.62,6.6c39.14-27.22,96.58-51.93,155.8-76.27"/>
      <path class="uuid-8615e810-ff3a-4ea9-8620-b2347d4e0112" d="M1247.32,496.79c-10.83,0-16.66-5.41-16.66-15.83v-85c0-.98.29-1.65.38-2.53-28.41,11.76-57.74,23.37-84.13,35.29v55.99c0,61.67,28.75,77.91,86.66,77.91,69.17,0,120.83-9.17,120.83-9.17l-.42-56.67h-106.67Z"/>
      <path class="uuid-8615e810-ff3a-4ea9-8620-b2347d4e0112" d="M1345.96,331.41c-3.41,2.99-6.8,6-10.31,8.8-18.52,14.12-44.6,27.22-73.38,39.91h92.13v-58.01c-2.43,3.15-5.25,6.25-8.44,9.3"/>
      <path class="uuid-8615e810-ff3a-4ea9-8620-b2347d4e0112" d="M1074.59,471.19c51.87-47.55,198.81-83.49,261.06-130.98,3.51-2.79,6.91-5.81,10.31-8.8,6.68-6.38,11.84-12.96,14.88-19.82,0-.13-28.34.46-77.82,20.2-77.92,31.09-113.02,59.05-136.02,74.94-48.15,33.28-72.22,64.25-72.42,64.45"/>
      <path class="uuid-8615e810-ff3a-4ea9-8620-b2347d4e0112" d="M1200.53,420.33c-51.87,47.55-198.81,83.49-261.06,130.98-3.51,2.79-6.91,5.81-10.32,8.8-6.67,6.38-11.84,12.96-14.88,19.82,0,.13,28.34-.47,77.82-20.2,77.92-31.09,113.02-59.05,136.02-74.94,48.15-33.28,72.22-64.25,72.42-64.45"/>
      <path class="uuid-8615e810-ff3a-4ea9-8620-b2347d4e0112" d="M488.57,391.82l38.43,38.43.05-.04.64.64c.58.67,1.9,1.99,5.41,5.5l33.51,33.51c8.75,8.74,20.37,13.56,32.73,13.56s23.99-4.82,32.73-13.56l.4-.4.22-.25c8.37-8.63,12.97-20.04,12.97-32.12s-4.7-23.71-13.25-32.41l-.33-.35c-8.74-8.75-20.37-13.56-32.74-13.56s-23.98,4.82-32.73,13.56l-17.14,17.16c-1.67,1.67-3.9,2.6-6.26,2.6s-4.59-.92-6.26-2.59c-1.67-1.67-2.6-3.9-2.6-6.26s.92-4.58,2.59-6.26l17.15-17.17c12.08-12.09,28.15-18.74,45.24-18.74,13.01,0,25.41,3.87,35.93,11.04-19.99-42.83-63.41-72.53-113.79-72.53s-93.6,29.56-113.65,72.23c10.44-6.98,22.69-10.73,35.5-10.73,17.1,0,33.17,6.66,45.25,18.75"/>
      <path class="uuid-8615e810-ff3a-4ea9-8620-b2347d4e0112" d="M554.1,482.38s-62.98-62.98-78.04-78.05c-8.74-8.75-20.36-13.56-32.73-13.56s-23.99,4.82-32.73,13.56l-.35.36c-17.53,17.87-17.53,46.95,0,64.82l.34.35c8.73,8.74,20.36,13.56,32.73,13.56s23.99-4.82,32.73-13.56l17.49-17.99c1.67-1.67,3.89-2.6,6.26-2.6s4.59.92,6.26,2.59c1.67,1.67,2.6,3.89,2.6,6.26s-.92,4.58-2.6,6.26l-17.49,18c-12.09,12.09-28.15,18.74-45.24,18.74-12.83,0-25.08-3.75-35.5-10.73,20.05,42.67,63.39,72.22,113.65,72.22s93.81-29.7,113.79-72.54c-10.52,7.17-22.92,11.05-35.92,11.05-17.1,0-33.16-6.66-45.25-18.74"/>
      <polygon class="uuid-f7707a2e-17a2-4e1e-b2a2-2057e9ae0597" points="82.47 56.14 82.47 77.05 25.17 77.05 25.17 110.15 79.18 110.15 79.18 130.86 25.17 130.86 25.17 168.8 84.02 168.8 84.02 189.71 0 189.71 0 56.14 82.47 56.14"/>
      <path class="uuid-f7707a2e-17a2-4e1e-b2a2-2057e9ae0597" d="M148.48,114.6c-15.29,0-20.52,12.78-20.52,28.46v46.65h-24.78v-93.7h24.78l-.19,14.13h.58c5.03-9.88,14.52-15.87,28.07-15.87,26.91,0,33.69,17.42,33.69,39.88v55.56h-24.78v-50.14c0-13.93-2.52-24.97-16.84-24.97"/>
      <path class="uuid-f7707a2e-17a2-4e1e-b2a2-2057e9ae0597" d="M259.6,172.87c12.58,0,23.81-5.62,28.26-9.49l9.68,13.36c-5.23,5.43-19.35,15.1-42.2,15.1-28.26,0-49.17-17.23-49.17-47.43s21.88-50.14,48.59-50.14c28.85,0,46.27,18.97,46.27,43.94,0,4.84-.39,12.59-.39,12.59h-68.91c2.32,14.9,13.74,22.07,27.88,22.07M231.33,134.73h44.91c-.39-10.26-4.26-22.07-21.68-22.07-14.71,0-22.46,10.26-23.23,22.07"/>
      <path class="uuid-f7707a2e-17a2-4e1e-b2a2-2057e9ae0597" d="M342.06,96.01l-.39,15.1h.58c3.68-10.07,12.97-16.84,23.04-16.84,6.38,0,9.87,1.74,9.87,1.74l-1.74,21.49h-1.16c-2.72-.78-6.97-1.16-10.26-1.16-7.36,0-12.97,3.09-16.45,9.1-2.33,4.64-3.49,11.03-3.49,18.19v46.07h-24.59v-93.7h24.59Z"/>
      <path class="uuid-f7707a2e-17a2-4e1e-b2a2-2057e9ae0597" d="M424.33,186.61c-23.61,0-43.75-15.1-43.75-44.91,0-25.94,18.2-47.43,46.07-47.43,12.59,0,23.23,4.65,29.81,14.71h.39l-.19-12.97h24.58v74.33c0,20.52-4.26,32.14-12.19,40.46-8.13,8.52-20.13,16.46-42.59,16.46s-38.91-10.65-43.56-13.94l10.26-17.23c6,4.26,21.29,11.03,33.3,11.03,13.36,0,20.33-4.25,23.81-8.32,3.49-4.07,6.39-11.81,6.39-22.26v-4.64h-.39c-6.38,9.68-17.61,14.71-31.94,14.71M431.69,113.82c-16.27,0-25.94,12-25.94,27.3,0,14.32,9.29,26.13,25.56,26.13,17.81,0,26.71-11.81,26.71-26.13,0-13.56-10.07-27.3-26.33-27.3"/>
      <path class="uuid-f7707a2e-17a2-4e1e-b2a2-2057e9ae0597" d="M518.21,96.01l24.78,66.4,24.39-66.4h25.75l-43.56,106.28c-6.78,16.45-14.52,24.39-27.68,24.39s-22.07-3.87-22.07-3.87l5.03-18.97s6.58,2.32,11.22,2.32,8.91-1.35,10.85-6.19l4.06-9.68-38.72-94.28h25.94Z"/>
      <polygon class="uuid-f7707a2e-17a2-4e1e-b2a2-2057e9ae0597" points="618.68 56.14 653.14 155.44 687.59 56.14 713.14 56.14 663.78 189.9 641.33 189.9 591.97 56.14 618.68 56.14"/>
      <path class="uuid-f7707a2e-17a2-4e1e-b2a2-2057e9ae0597" d="M723.02,67.36c0-7.94,6.2-13.74,14.9-13.74s14.9,5.81,14.9,13.74-6.19,13.75-14.9,13.75-14.9-5.62-14.9-13.75M750.31,189.71h-24.78v-93.7h24.78v93.7Z"/>
      <path class="uuid-f7707a2e-17a2-4e1e-b2a2-2057e9ae0597" d="M806.06,112.86c-8.13,0-12.19,3.09-12.19,7.55,0,4.06,3.09,7.35,13.55,10.65l6.58,2.12c20.72,6.77,28.07,14.13,28.07,27.68,0,17.81-14.13,30.98-37.17,30.98-14.33,0-30.39-5.81-37.94-14.52l10.06-16.84c11.03,8.52,20.52,12.78,28.46,12.78,9.29,0,13.55-3.49,13.55-8.91,0-4.84-3.68-7.55-15.68-11.62l-10.84-3.68c-13.93-4.64-21.1-12.96-21.1-26.71,0-17.04,15.49-28.07,33.49-28.07,16.64,0,25.94,4.45,33.68,10.06l-10.65,16.46c-5.42-4.06-13.36-7.94-21.88-7.94"/>
      <path class="uuid-f7707a2e-17a2-4e1e-b2a2-2057e9ae0597" d="M855.81,67.36c0-7.94,6.2-13.74,14.9-13.74s14.91,5.81,14.91,13.74-6.2,13.75-14.91,13.75-14.9-5.62-14.9-13.75M883.11,189.71h-24.78v-93.7h24.78v93.7Z"/>
      <path class="uuid-f7707a2e-17a2-4e1e-b2a2-2057e9ae0597" d="M900.91,143.25c0-29.62,22.07-48.98,50.92-48.98s50.72,19.36,50.72,48.98-22.07,48.59-50.72,48.59-50.92-18.97-50.92-48.59M951.83,114.21c-16.27,0-25.17,12.39-25.17,28.46s8.9,28.65,25.17,28.65,25.17-12.58,25.17-28.65-9.29-28.46-25.17-28.46"/>
      <path class="uuid-f7707a2e-17a2-4e1e-b2a2-2057e9ae0597" d="M1064.88,114.6c-15.29,0-20.52,12.78-20.52,28.46v46.65h-24.78v-93.7h24.78l-.2,14.13h.58c5.03-9.88,14.52-15.87,28.07-15.87,26.91,0,33.68,17.42,33.68,39.88v55.56h-24.77v-50.14c0-13.93-2.52-24.97-16.84-24.97"/>
      <path class="uuid-f7707a2e-17a2-4e1e-b2a2-2057e9ae0597" d="M1262.81,78.64l37.66,37.66.05-.03.64.63c.56.66,1.86,1.95,5.3,5.39l32.84,32.84c8.57,8.57,19.96,13.29,32.07,13.29s23.51-4.72,32.08-13.29l.39-.39.22-.25c8.2-8.47,12.71-19.65,12.71-31.48s-4.61-23.24-12.98-31.77l-.33-.33c-8.56-8.57-19.97-13.3-32.09-13.3s-23.51,4.72-32.07,13.29l-16.8,16.82c-1.64,1.64-3.82,2.54-6.14,2.54s-4.49-.9-6.12-2.54c-1.65-1.64-2.55-3.82-2.55-6.14s.9-4.5,2.54-6.13l16.8-16.83c11.84-11.84,27.6-18.37,44.34-18.37,12.75,0,24.91,3.8,35.21,10.82-19.58-41.98-62.14-71.09-111.52-71.09s-91.74,28.97-111.38,70.79c10.23-6.84,22.23-10.52,34.79-10.52,16.75,0,32.5,6.53,44.35,18.38"/>
      <path class="uuid-f7707a2e-17a2-4e1e-b2a2-2057e9ae0597" d="M1327.03,167.4s-61.73-61.72-76.48-76.49c-8.57-8.57-19.96-13.3-32.08-13.3s-23.51,4.72-32.08,13.3l-.34.35c-17.19,17.52-17.18,46.01,0,63.53l.33.35c8.56,8.56,19.96,13.29,32.08,13.29s23.51-4.72,32.08-13.29l17.14-17.63c1.63-1.65,3.81-2.55,6.13-2.55s4.5.9,6.13,2.54c1.64,1.64,2.54,3.81,2.54,6.13s-.9,4.49-2.54,6.13l-17.14,17.64c-11.85,11.85-27.6,18.37-44.34,18.37-12.57,0-24.58-3.68-34.8-10.51,19.65,41.82,62.13,70.78,111.38,70.78s91.94-29.11,111.53-71.09c-10.31,7.03-22.47,10.82-35.21,10.82-16.75,0-32.5-6.52-44.35-18.36"/>
    </g>
  </g>
</svg>