<?xml version="1.0" encoding="UTF-8"?>
<svg id="uuid-f0594d6b-317e-4880-be5d-6e5fac5cb1ad" data-name="Laag 2" xmlns="http://www.w3.org/2000/svg" viewBox="0 0 2837.11 566.93">
  <defs>
    <style>
      .uuid-2c748cd0-c3bf-486e-84e4-ea58bb6b0db9 {
        fill: #4e0c69;
      }

      .uuid-754d7a41-77ce-4057-abe9-1722e4a0de39 {
        fill: #060606;
      }
    </style>
  </defs>
  <g id="uuid-c80945fc-2ff7-4aed-952e-d5a0bdd8b16a" data-name="Laag 1">
    <g>
      <g>
        <path class="uuid-2c748cd0-c3bf-486e-84e4-ea58bb6b0db9" d="M0,215.51l3.58-8.95,6.57-3.98,40.4.8,9.35,3.18,10.15,14.72,12.34,8.56,25.27-.8,6.96-4.18,6.37-7.76,3.78-7.76,1.19-12.14-1.19-11.74-2.19-8.16-4.78-6.56-12.73-7.77-7.16-2.39-31.44-2.19-7.76-2.39-2.79-8.56,4.78-8.96,15.92-36.61,8.55-13.53,2.39-7.37-1.19-8.16-5.57-2.78H22.49l-8.16-3.97-3.78-8.16-1.19-15.93,1.19-24.87,3.38-8.16,12.93-4.19,8.56-.79,12.73,1.19h80.6l8.56-.8,8.95.8,11.94-.8,19.9.8,9.75,2.99,1.99,8.96-3.58,10.15-13.53,21.29-3.98,8.56-8.16,13.73-6.96,15.12-4.38,6.97-4.18,8.16.4,8.56,4.18,5.57,8.16,3.78,12.54,8.56,12.34,11.34,10.54,22.49,3.58,23.28v24.68l-1.19,8.16-1.99,8.16-3.38,7.76-3.58,6.96-3.18,7.76-20.89,25.67-19.9,13.13-24.88,7.76-20.89,1.2-11.34-.4-8.16-.4-7.36-2.59-5.57-.79-19.3-7.77-10.15-6.37-5.77-5.37-4.78-6.16-6.17-5.18-9.75-14.32-5.37-15.13-1.2-8.55-1.99-7.37Z"/>
        <path class="uuid-2c748cd0-c3bf-486e-84e4-ea58bb6b0db9" d="M240.78,143.87l1.99-24.08-1.59-8.96.4-24.08,9.8-31.44,3.2-7.36,3.8-6.37,6.18-5.77,5.19-6.17,12.36-10.54,7.58-3.98,6.58-4.58,7.38-2.78,32.71-6.96,32.3,1.19,15.55,3.18,8.57,2.99,6.78,3.18,21.74,12.34,6.58,5.57,3.6,6.17,6.2,6.56,7.41,12.54,2.8,8.16,3.8,7.76,3.2,16.72-1.2,129.95-3.8,15.12-8.61,15.13-13.81,18.7-5.81,6.16-22.52,12.14-14.95,5.77-19.34,3.98-15.35,1.39-13.56-.8-16.75-2.98-22.15-6.97-8.18-4.38-5.59-4.58-7.38-3.97-6.58-5.77-5.39-6.17-10.18-12.53-2.8-6.97-4.2-7.36-4-15.52-.4-49.16-1.19-8.16,1.19-8.16-1.59-8.16ZM310.83,194.82l3.18,12.53,2.98,8.16,4.77,6.57,5.75,3.58,8.53,2.98,12.11,1.2,13.1-1.6,7.34-2.98,5.96-3.98,6.15-6.56,2.38-7.37,2.18-12.53.4-12.34-1.2-6.77.4-8.16,1.2-8.16-1.6-7.36,1.59-32.24-1.59-19.5-2.18-11.94-2.78-7.37-4.37-6.37-6.94-4.98-7.74-2.78-24.81.4-13.49,7.36-5.16,5.58-4.17,7.76-1.98,11.94v94.93Z"/>
        <path class="uuid-2c748cd0-c3bf-486e-84e4-ea58bb6b0db9" d="M618.68,212.72v-7.76l.99-8.96v-7.76l.8-7.36-1.79-58.31,1.39-8.56-.4-8.56.8-7.36-1.19-16.72.79-8.16-.79-56.91,5.17-7.76,9.75-4.98,11.14,3.38,16.12,10.94,22.09,22.49,5.37,6.77,6.97,4.98,3.98,6.16,7.76,5.18,4.38,6.16,12.73,10.55,8.56,8.95,4.38,5.77,6.57,4.98,14.33,14.53,6.17,4.98,17.91,18.31,5.57,1.59,2.19-6.56-.4-16.12,1.59-8.56v-7.76l-1.59-8.56.4-74.23,3.96-8.55,9.7-4.19,8.11.4,7.32-.8,8.52,1.2,8.91-.8h7.72l8.11.8,8.91,4.18,4.95,7.37-.79,21.09.79,12.34-1.79,8.16v16.32l.99,7.76-1.39,16.12,1.79,48.95-.8,8.96,1.59,11.54-2.19,110.85-3.57,8.56-9.3,4.37-10.49-3.18-11.87-5.37-5.17-5.18-4.97-6.17-6.55-5.37-5.17-6.57-39.53-39.4-6.55-5.37-58.22-57.11-5.17-1.19-4.18,4.98,1.79,8.56-1.39,99.89,1.39,8.16-3.78,8.16-8.16,3.98-9.35-.8-8.56,1.2-20.3-1.2-13.93.8-7.76-4.38-3.58-8.96v-7.76l-1.19-8.16,1.19-15.52-.8-8.16.4-16.72-1.39-8.56Z"/>
        <path class="uuid-2c748cd0-c3bf-486e-84e4-ea58bb6b0db9" d="M912.6,160.59l1.2-33.03,7-31.44,6.2-15.52,12.6-21.5,19.9-23.28,13.93-10.15,7.37-3.78,6.17-4.38,30.45-11.34,43.18-6.16,11.14.4,23.48,3.97,31.44,9.95,6.17,4.38,12.14,5.37,9.35,6.37,11.94,10.35,11.34,12.53,8.96,12.34,7.76,14.93,10.15,30.64,2.98,16.72,1.19,20.3-1.59,11.94-.59,8.56-1.99,8.16-.4,7.36-3.18,15.32-6.17,15.52-17.91,27.27-5.77,5.76-5.17,7.37-11.54,9.75-7.76,3.78-5.97,4.78-13.53,7.36-30.45,10.15-24.48,3.38-22.88.4-8.56-.99-14.73-3.18-8.96-.8-11.74-3.98-31.84-16.32-13.53-10.75-4.38-5.17-6.17-5.77-5.17-6.56-4.98-4.78-18.81-37.21-3.8-15.32-.8-7.76-2-7.36-1.2-8.56ZM988.82,160.59l3.18,15.12,3.78,7.17,1.99,6.57,5.77,7.76,5.17,5.77,10.95,8.95,6.57,3.58,14.73,6.17,8.95,1.2h22.49l8.16-1.6,5.97-2.78,7.36-2.19,19.5-13.33,5.77-6.57,2.39-6.16,4.58-7.37,2.78-7.17,3.38-15.12.79-24.88-1.19-7.36-3.78-7.76-4.78-15.52-15.92-16.72-12.73-8.96-7.37-3.18-7.16-1.6-19.7-2.58-11.34.79-15.92,4.19-5.37,1.99-20.3,13.93-9.75,12.93-2.39,7.37-3.38,7.36-1.2,7.76-1.99,7.36v24.88Z"/>
        <path class="uuid-2c748cd0-c3bf-486e-84e4-ea58bb6b0db9" d="M1215.68,17.51l.8-8.95,8.55-3.79,8.56-.4,7.37.8,6.96-.8,22.69,1.2,9.56,3.39,6.76,8.16,3.78,6.56,2.78,7.17,4.18,7.76,1.19,7.76,14.13,29.45,1.79,8.16,2.79,7.36,3.58,6.37,4.98,16.32,4.58,7.37,2.78,6.56,2.39,8.16,3.38,7.36,5.17,15.53,3.38,7.16,4.78-.79,4.98-7.37,1.99-7.16,3.98-7.77,48.55-119.39,2-7.36,7.36-7.76,9.35-3.39h48.16l6.96,2.59,2.39,10.15-3.97,9.75-1.79,6.96-3.98,7.76-2.78,8.16-4.58,6.97-2,7.16-6.16,15.93-5.18,6.16-2.19,7.76-5.57,7.37-2.19,7.76-1.99,6.96-4.38,8.16-4.58,15.32-8.56,14.72-4.98,15.93-24.27,52.14-2.59,7.36-6.37,14.72-4.18,6.77-3.58,7.76-6.97,15.93-2.39,7.76-6.97,6.56-11.14,4.98-8.16-.99-9.75-3.58-6.37-7.36-11.15-22.49-1.99-8.56-3.98-5.97-10.74-23.68-2.39-7.76-6.97-14.73-1.99-6.77-26.87-60.89-4.18-6.37-12.14-29.85-4.18-7.36-6.37-15.92-4.58-7.77-2.39-7.16-3.78-7.37-5.97-15.52-3.78-7.36-1.59-9.75Z"/>
        <path class="uuid-2c748cd0-c3bf-486e-84e4-ea58bb6b0db9" d="M1519.54,278.39l1.79-8.15.4-8.14-.8-15.9v-8.15l-.79-9.34,1.19-7.36-.4-7.75.8-8.94-1.2-8.55.8-16.29-1.19-15.9,1.19-8.54v-72.75l-.8-7.35.8-8.54-1.79-20.87,1.79-11.73-.8-16.29,3.98-8.91,11.74-2.96,53.53-1.2,7.37.8,15.71-.4,8.16.8,18.11-.8,7.96,1.39,7.36-.99,32.64.4,8.56,3.75,4.18,8.11-1.19,7.72-.6,8.9,1.39,7.72.8,16.61-4.58,7.32-8.56,4.36-78.21.39-12.73,3.78-3.97,11.74.79,12.54,4.98,7.36,6.77,4.58,32.24-.4,9.36.8h8.56l8.16-.8,16.32.4,6.96,4.38,3.79,7.76.79,8.16-.79,32.24-4.19,7.76-8.16,4.58-7.36.4-8.56-.99-10.94.99-21.69-1.39-8.16.99h-15.71l-7.37,4.38-3.78,8.56-.4,19.9,3.78,12.73,8.56,4.78,8.96-.8,8.96.8,7.76-1.2,53.73.8,12.13,4.18,5.37,8.16-.8,7.76.4,25.27-.79,7.76-3.79,7.76-8.56,3.98-7.56.8-24.88-1.6-24.88,1.2-7.36-1.2-92.14.8-7.76-4.38-5.37-7.76Z"/>
        <path class="uuid-2c748cd0-c3bf-486e-84e4-ea58bb6b0db9" d="M1752.96,212.72l1.79-7.76-1.19-179.69.79-8.56,4.38-8.16,8.16-4.58,11.74,3.38,11.94,8.56,8.96,9.36,4.38,5.57,5.76,5.37,4.58,6.16,5.17,5.58,6.96,6.16,9.75,12.34,28.25,28.86,4.78,6.57,6.56,5.17,4.78,6.96,5.37,5.37,7.36,2.39,8.96-2.78,60.3-64.07,3.78-5.97,23.08-24.08,9.36-11.55,10.34-5.57,12.14-3.78,8.16,4.98,4.58,7.76-.59,8.56.99,6.96-.99,8.56,1.39,115.22-1.39,7.36.99,8.16-.99,8.56.59,8.16-1.39,8.16.8,15.92-.8,7.76,1.79,48.95-1.39,7.96-4.37,8.56-7.77,4.98-48.95-.4-8.95-3.18-3.98-8.56,1.19-56.31-1.19-15.13.4-8.16-.4-7.36,1.19-7.76-1.19-7.96-3.39-4.97-4.77.79-5.77,5.77-5.37,6.96-34.22,34.63-6.77,4.77h-9.55l-13.34-10.94-5.37-6.96-22.69-21.5-10.35-12.73-5.97-1.59-3.78,5.76,1.59,23.48-1.19,55.13,1.19,8.56.4,8.56-.79,7.76-4.38,6.37-12.34,3.78-44.78.8-9.75-4.58-3.58-7.17.8-7.76-1.79-57.91Z"/>
        <path class="uuid-2c748cd0-c3bf-486e-84e4-ea58bb6b0db9" d="M2093.65,262.48l1.8-24.48-1.2-16.72.8-33.43-.8-7.76v-16.32l.8-7.76-1.4-8.57v-32.71l1-7.79-.4-8.57.79-7.58-.79-8.57,1.2-8.57-1.79-27.52.99-11.78-1-17.55,3.8-8.61,8.2-3.8,122.54.8,22.87,5.41,15.12,8.21,12.14,8.61,5.76,5.81,9.75,13.02,2.39,7.78,4.18,7.78,4.37,15.15.4,11.77-5.57,29.51-4.98,6.96-4.38,8.16-1.79,7.96,3.79,9.15,6.16,5.97,5.57,6.96,7.37,14.33,2.78,8.56,1.79,7.76-.4,32.64-3.39,7.96-1.59,6.97-3.58,7.76-9.54,13.53-6.37,6.16-5.37,3.98-15.51,8.96-13.33,5.37-15.52,1.99-134.88,1.6-7.8-3.58-4.4-9.36-.6-15.52ZM2164.29,103.87l3.99,8.16,9.75,3.18h30.65l13.93-2.78,6.77-6.57,2.19-12.13-1.39-10.95-5.18-5.76-4.98-3.18-12.54-2.59-29.45-1.2-8.55,4.58-4.38,6.77.8,7.76v7.77l-1.6,6.96ZM2165.09,198.79l.8,7.77-.4,6.96,4.37,8.56,6.97,3.18,31.84.4,22.09-2,7.17-4.37,5.37-5.77.79-10.54-.79-11.55-6.17-5.57-5.97-4.58-11.55-2h-43.18l-8.16,3.98-2.78,7.36-.4,8.16Z"/>
        <path class="uuid-2c748cd0-c3bf-486e-84e4-ea58bb6b0db9" d="M2362.49,278.39l1.79-8.15.4-8.14-.8-15.9v-8.15l-.79-9.34,1.19-7.36-.4-7.75.8-8.94-1.2-8.55.8-16.29-1.19-15.9,1.19-8.54v-72.75l-.8-7.35.8-8.54-1.79-20.87,1.79-11.73-.8-16.29,3.98-8.91,11.74-2.96,53.53-1.2,7.37.8,15.71-.4,8.16.8,18.11-.8,7.96,1.39,7.36-.99,32.64.4,8.56,3.75,4.18,8.11-1.19,7.72-.6,8.9,1.39,7.72.8,16.61-4.58,7.32-8.56,4.36-78.21.39-12.73,3.78-3.97,11.74.79,12.54,4.98,7.36,6.77,4.58,32.24-.4,9.36.8h8.56l8.16-.8,16.32.4,6.96,4.38,3.79,7.76.79,8.16-.79,32.24-4.19,7.76-8.16,4.58-7.36.4-8.56-.99-10.94.99-21.69-1.39-8.16.99h-15.71l-7.37,4.38-3.78,8.56-.4,19.9,3.78,12.73,8.56,4.78,8.96-.8,8.96.8,7.76-1.2,53.73.8,12.13,4.18,5.37,8.16-.8,7.76.4,25.27-.79,7.76-3.79,7.76-8.56,3.98-7.56.8-24.88-1.6-24.88,1.2-7.36-1.2-92.14.8-7.76-4.38-5.37-7.76Z"/>
        <path class="uuid-2c748cd0-c3bf-486e-84e4-ea58bb6b0db9" d="M2595.92,213.1l1.4-16.72-1.4-8.97.6-15.52.8-8.56v-20.31l-1.4-11.95,1.4-114.05,3.19-8.5,7.79-3.76,8.97.4,7.79-1.19,16.76,1.58,7.79-1.19,24.53.8,6.77-.8,8.96.8,8.16-.8,9.15.4,11.74-.4,10.15.79,33.83,6.93,14.32,7.32,20.3,15.43,3.78,6.13,5.58,5.93,11.14,22.44,2,8.14,1.19,7.75,2,7.74-.4,32.3-4.38,15.35-2.98,6.98-4.38,7.38-2.99,7.78-4.77,6.97-11.55,10.97-4.37,8.57,1.19,9.76,12.34,21.34,5.17,6.58,4.18,7.17,4.78,7.38,3.78,6.97,12.94,19.94,5.37,10.37-1.6,8.57-8.56,2-8.96.8h-16.32l-8.16-.8-8.95.8-14.73-.8-10.15-2.39-8.16-7.38-4.98-6.58-3.58-6.98-5.37-7.78-11.34-20.33-2.99-7.78-10.54-14.36-6.56-6.97-10.15-3.19-7.36.4h-7.36l-7.96,4.19-3.78,8.18.8,25.32-1.2,17.54,1.59,8.57-.79,8.57-2.79,7.77-12.77,3.99h-12.17l-8.58-.8-16.76,1.2-7.79-.4-8.18-3.99-2.79-9.15-1.2-31.65.8-8.56-1.8-23.69ZM2669.15,82l1.2,45.66,4.18,8.57,6.77,3.59h9.15l8.16,1.2,31.64-2.79,6.16-2.78,4.98-4.98,4.38-6.98,3.18-8.18,1.39-10.96-.8-11.77-2.98-6.58-3.98-6.18-12.73-7.78-18.7-2.39-22.49-.39-6.37.39-8.16,4.19-4.98,8.17Z"/>
      </g>
      <g>
        <path class="uuid-754d7a41-77ce-4057-abe9-1722e4a0de39" d="M0,518.39l1.9-5.12,4.4-1.9,18.8-1.07,4.64.84,4.4-.6,4.88,2.03,7.97,8.8,4.17,2.62,4.16,2.26,12.37,1.19,4.4-.72,7.61-.47,8.21-3.69,3.21-3.69,1.9-6.07-1.43-6.07-3.21-2.97-8.68-4.16-38.31-4.41-8.8-2.85-16.54-9.04-9.04-11.18-3.81-8.57-1.79-9.75-.24-7.5.71-12.01,4.4-13.32,8.57-11.42,11.66-8.1,8.33-4.87,9.28-2.98,4.4-.71,4.88-.24,5.36-1.43,18.68.47,9.52,1.9,13.68,4.64,16.06,11.3,5.36,7.25,6.78,12.73.6,4.53.95,4.64-2.02,4.16-4.64,3.45-4.28-.47h-4.88l-6.66-.47-11.42.95-5.36-3.21-3.69-4.88-4.16-3.33-4.28-2.97-4.4-1.19-7.86-.96-7.73.25-4.4.95-3.93,2.14-3.69,2.74-2.86,3.09-1.31,6.67,1.07,7.26,3.57,3.45,9.04,4.4,12.97,2.61h7.02l5.11.96,4.88.24,4.88.83,19.04,5.83,4.4,2.62,3.81,2.02,4.4,3.81,6.43,7.38,2.62,3.93,3.69,14.04.47,7.85-1.43,12.13-1.55,4.16-1.43,4.41-2.74,5.36-2.38,3.44-7.02,7.26-16.66,10-4.64,2.26-4.28.47-4.88,1.9-4.88.72-4.88,1.18-4.88.59-19.28-.59-10-1.67-9.52-3.45-4.88-1.42-4.64-2.14-3.33-3.69-8.57-5.36-3.21-3.69-3.33-3.1-4.64-9.04-1.54-4.4-.95-4.88-.71-4.87Z"/>
        <path class="uuid-754d7a41-77ce-4057-abe9-1722e4a0de39" d="M162.64,439.94l1.07-9.75-.24-29.51,2.14-3.91,5.11-2.6,5.12-1.07,4.4.71,5.36.36,15.11-1.07,4.88.71,14.87.36,5.36-.83,7.73-.24,7.38.24,4.88,1.78h4.88l4.16,1.65,9.75,2.96,7.97,5.35,10.95,9.49,5.83,7.96,4.64,8.31,2.97,9.03.71,5.35.95,4.04-.48,19.95-1.43,3.93-.71,5.36-4.16,9.53-5.12,7.87-3.21,3.58-3.1,3.21-3.45,3.93-3.69,2.86-23.08,9.3-25.1,2.03-5.11-1.07-5.36.47-5.59,2.74-2.26,4.42.24,5.6-.47,4.64.47,9.06-.24,5.36.24,4.89-2.14,5.13-5.12,1.9-5.59.47-4.4-.24-12.02.47-4.28-.24-7.61-2.39-2.62-4.64.24-45.1-.48-4.64.24-63.19-.59-4.53ZM206.55,454.29l.71,19.79,2.26,4.17,4.88,2.98,5.83-.47,12.37.24,7.61-1.07,3.81-1.19,3.93-2.86,3.21-3.93,2.14-3.93,1.79-4.41.48-6.56-.48-6.79-.71-4.41-2.5-4.89-3.21-3.21-3.81-2.62-4.88-2.27-25.34-.71-5.11,2.5-2.5,4.53v10.01l-.47,5.13Z"/>
        <path class="uuid-754d7a41-77ce-4057-abe9-1722e4a0de39" d="M314.93,486.5l.72-19.75,4.19-18.8,3.71-9.28,7.53-12.85,11.9-13.92,8.33-6.07,4.4-2.27,3.69-2.61,18.21-6.78,25.82-3.69,6.66.25,14.04,2.38,18.8,5.95,3.69,2.61,7.26,3.21,5.59,3.81,7.14,6.18,6.78,7.5,5.36,7.38,4.64,8.93,6.07,18.32,1.79,9.99.71,12.14-.95,7.14-.36,5.11-1.19,4.88-.24,4.4-1.9,9.16-3.69,9.28-10.71,16.3-3.45,3.45-3.1,4.4-6.9,5.83-4.64,2.26-3.57,2.86-8.09,4.4-18.21,6.07-14.63,2.02-13.68.25-5.11-.6-8.81-1.9-5.36-.47-7.02-2.38-19.03-9.75-8.09-6.43-2.62-3.1-3.69-3.44-3.09-3.93-2.97-2.86-11.24-22.25-2.27-9.16-.48-4.64-1.19-4.41-.72-5.11ZM360.5,486.5l1.9,9.04,2.26,4.29,1.19,3.93,3.45,4.64,3.09,3.45,6.54,5.36,3.93,2.14,8.8,3.69,5.36.72h13.44l4.88-.96,3.57-1.67,4.4-1.31,11.66-7.97,3.45-3.93,1.43-3.69,2.74-4.4,1.67-4.29,2.02-9.04.48-14.87-.71-4.41-2.26-4.64-2.86-9.28-9.52-9.99-7.61-5.36-4.4-1.9-4.28-.96-11.78-1.55-6.78.48-9.52,2.5-3.21,1.19-12.14,8.32-5.83,7.73-1.43,4.41-2.02,4.4-.71,4.64-1.19,4.41v14.87Z"/>
        <path class="uuid-754d7a41-77ce-4057-abe9-1722e4a0de39" d="M518.26,517.89l.83-9.99-.83-5.36.36-9.28.48-5.12v-12.14l-.83-7.14.83-68.2,1.91-5.08,4.65-2.24,5.37.24,4.65-.71,10.02.95,4.65-.71,14.67.47,4.04-.47,5.36.47,4.88-.47,5.47.24,7.02-.24,6.07.47,20.22,4.14,8.57,4.37,12.14,9.22,2.26,3.67,3.33,3.54,6.66,13.42,1.19,4.86.71,4.64,1.19,4.63-.24,19.31-2.61,9.17-1.79,4.18-2.62,4.41-1.79,4.64-2.86,4.17-6.9,6.56-2.62,5.13.71,5.85,7.37,12.75,3.1,3.93,2.5,4.29,2.86,4.41,2.26,4.17,7.73,11.92,3.21,6.2-.95,5.13-5.12,1.19-5.36.47h-9.75l-4.88-.47-5.36.47-8.8-.47-6.07-1.43-4.88-4.42-2.97-3.93-2.14-4.17-3.21-4.64-6.78-12.16-1.79-4.65-6.31-8.58-3.93-4.17-6.07-1.91-4.4.24h-4.4l-4.76,2.5-2.26,4.89.47,15.13-.71,10.49.95,5.13-.47,5.13-1.67,4.64-7.64,2.39h-7.28l-5.13-.47-10.02.71-4.65-.24-4.89-2.39-1.67-5.47-.71-18.92.48-5.12-1.07-14.16ZM562.04,439.51l.71,27.3,2.5,5.12,4.04,2.15h5.47l4.88.72,18.92-1.68,3.69-1.67,2.97-2.98,2.62-4.17,1.9-4.89.83-6.56-.47-7.03-1.79-3.93-2.38-3.7-7.61-4.64-11.18-1.43-13.44-.24-3.81.24-4.88,2.5-2.98,4.88Z"/>
        <path class="uuid-754d7a41-77ce-4057-abe9-1722e4a0de39" d="M671.38,425.11l.24-24.39,2.38-4.88,5.36-2.5,72.59.47,5.58-.71h4.88l4.88.47h4.88l5.36-.71h4.64l3.81.47,5.95-.47,4.88,2.5,2.38,4.88-.48,19.98.48,5.12-2.38,4.88-5.71,2.14-13.32-.24-4.4.47-4.88-.24-4.16.24-5.36,2.26-1.9,4.28.47,5.36-.71,4.88.95,48.54-.71,10.23.47,4.41-.47,14.87-.71,5.11.71,4.16.24,9.76-.47,5.59.24,4.64-2.02,4.88-4.86,1.9h-15.07l-4.62.47-4.75-.47-4.63.47-5.1-2.38-2.02-5.12-.24-19.03.47-4.88-.71-14.87.24-5.11-.24-4.88.95-7.38-.71-7.02v-9.75l.47-4.88-.47-4.64.71-7.5-.71-26.77-2.38-4.64-4.4-2.73-21.65-.24-6.43.71-4.88-2.38-2.62-5.36Z"/>
        <path class="uuid-754d7a41-77ce-4057-abe9-1722e4a0de39" d="M818.44,542.54l1.31-4.88-.71-15.35.71-9.75-.71-4.64v-10.23l.48-4.64-.71-7.26.95-6.66-.71-10,.48-5.35-.48-4.41.48-4.87v-24.75l-.71-5.11v-4.64l.71-4.4v-9.99l.47-5.12,2.36-4.64,6.63-2.26,72.84.24,4.41,1.07,4.88,1.9,5.12.95,8.69,4.64,7.38,4.87,4.17,3.69,2.62,3.69,3.21,3.33,3.09,4.16,4.88,8.81,4.4,19.03-.24,14.28-.48,4.4-2.15,9.99-1.79,4.41-2.14,4.4-7.87,11.66-7.28,7.14-3.93,2.86-8.23,5.11-14.2,4.17-10.02,1.9-12.76.24-7.28-.72-5.37.72-6.56,2.5-1.79,4.16v5.12l.47,5.36-.71,4.4.47,4.64-.24,9.75-2.13,5.12-4.85,2.61h-5.09l-5.33-.47-14.32.24-4.85-.47-5.08-1.9-1.9-5.12-.24-4.64.71-4.64-1.07-4.64ZM862.34,439.98l.47,33.79,2.97,4.87,4.64,2.27,5.59.47,19.99-1.31,3.93-2.14,3.81-2.61,5.59-6.9,2.74-11.18-2.14-11.42-2.5-4.16-3.93-3.69-3.57-2.62-4.17-2.26-19.51-.95-6.07.47-4.88,2.02-2.97,5.36Z"/>
        <path class="uuid-754d7a41-77ce-4057-abe9-1722e4a0de39" d="M953.24,557.41l2.86-10.24,2.26-4.88,2.86-3.93,7.14-17.84,6.78-12.61,1.67-4.88,2.26-3.93,1.43-5.11,3.45-6.31,1.67-4.64,3.69-6.31,3.81-8.8,2.74-4.41,1.19-4.16,13.68-30.69,2.62-4.41,10.59-21.89,1.43-4.41,4.64-4.4,7.74-2.38,8.32,2.14,4.4,4.64,1.43,4.64,2.14,3.69,3.93,9.28,4.88,9.04,3.69,8.44,1.19,3.93,4.4,9.28,1.43,4.64,4.88,8.44,1.31,4.64,2.38,4.16,1.9,4.16,2.74,4.4,1.43,4.88,2.26,3.57,1.67,4.88,2.14,4.16,2.02,4.87,2.62,3.93,3.45,9.04,2.38,4.17,1.79,4.64,4.16,8.69,1.43,4.64,2.38,3.69,1.55,4.88,3.09,4.16,1.79,4.4,1.43,6.07-.95,5.11-4.4,1.43-15.11.47-8.57-.71-4.4.47-6.31-2.38-4.16-3.93-2.62-4.41-1.19-4.4-5.12-3.93-8.09-2.61-11.42.47-5.12-.47h-4.4l-5.59.71-5.12-.71-13.68.24-4.88-.48-5.83,2.39-4.16,4.64-4.17,8.33-4.4,4.4-5.59,2.38-6.3-.71h-21.42l-4.88-1.19-1.19-5.11ZM1023.08,496.97l.83,4.88,4.52,1.9,19.03-.24,4.16-1.9.48-4.41-1.67-4.4-2.5-4.88-.95-3.93-2.61-4.16-3.21-9.4-2.97-2.02-3.09,2.5-2.26,3.81-9.75,22.25Z"/>
        <path class="uuid-754d7a41-77ce-4057-abe9-1722e4a0de39" d="M1144.31,517.89l.83-9.99-.83-5.36.36-9.28.48-5.12v-12.14l-.83-7.14.83-68.2,1.91-5.08,4.65-2.24,5.37.24,4.65-.71,10.02.95,4.65-.71,14.67.47,4.04-.47,5.36.47,4.88-.47,5.47.24,7.02-.24,6.07.47,20.22,4.14,8.57,4.37,12.14,9.22,2.26,3.67,3.33,3.54,6.66,13.42,1.19,4.86.71,4.64,1.19,4.63-.24,19.31-2.61,9.17-1.79,4.18-2.62,4.41-1.79,4.64-2.86,4.17-6.9,6.56-2.62,5.13.71,5.85,7.37,12.75,3.1,3.93,2.5,4.29,2.86,4.41,2.26,4.17,7.73,11.92,3.21,6.2-.95,5.13-5.12,1.19-5.36.47h-9.75l-4.88-.47-5.36.47-8.8-.47-6.07-1.43-4.88-4.42-2.97-3.93-2.14-4.17-3.21-4.64-6.78-12.16-1.79-4.65-6.31-8.58-3.93-4.17-6.07-1.91-4.4.24h-4.4l-4.76,2.5-2.26,4.89.47,15.13-.71,10.49.95,5.13-.47,5.13-1.67,4.64-7.64,2.39h-7.28l-5.13-.47-10.02.71-4.65-.24-4.89-2.39-1.67-5.47-.71-18.92.48-5.12-1.07-14.16ZM1188.09,439.51l.71,27.3,2.5,5.12,4.04,2.15h5.47l4.88.72,18.92-1.68,3.69-1.67,2.97-2.98,2.62-4.17,1.9-4.89.83-6.56-.47-7.03-1.79-3.93-2.38-3.7-7.61-4.64-11.18-1.43-13.44-.24-3.81.24-4.88,2.5-2.98,4.88Z"/>
        <path class="uuid-754d7a41-77ce-4057-abe9-1722e4a0de39" d="M1313.14,527.43l.83-9.76-.24-5.11.71-4.41-.47-58.53-.83-5.12,1.31-9.64-.71-4.87-.24-4.64.71-14.64-.47-4.87v-5.12l3.31-4.4,3.91-3.21,19.64.47,4.85-.47,5.09.47,4.37,2.5,2.37,5.36.24,4.88.72,4.64-.72,35.34.72,4.41-.24,5.11,4.4,2.62,5.83-.24,10.71-2.15,4.16-2.02,4.4-2.61,3.69-3.21,2.86-3.93,3.21-3.57,1.9-4.64,2.5-9.75,1.18-10.24-.71-14.87,2.74-5.12,5.83-2.97,7.01.71,22.13-.71,5.12,2.73,2.02,5.59.24,9.75-.95,4.64.47,5.36-1.43,10.23-.36,4.64-2.38,9.28-2.14,5.11-1.31,4.29-2.38,4.64-5.36,8.33-7.14,7.01-4.28,2.74-2.27,5.59v5.36l8.57,12.25,7.02,12.61,2.97,4.4,1.9,4.41,2.98,3.93,4.64,8.21,3.57,4.16,2.02,4.64,2.39,4.16,3.44,3.57,2.15,5.95-1.19,5.59-4.16,2.14-5.12-.47h-27l-8.33-1.67-4.64-3.69-6.55-12.73-3.21-4.04-2.14-4.16-2.97-4.16-6.07-12.61-10-16.66-4.64-3.57-7.26-1.55-6.07,2.98-2.27,4.4v15.11l-.47,5.36.72,29.51-2.37,5.36-7.11,2.38-25.43.24-6.98-2.61-1.65-5.12-.71-4.87.48-4.41-.24-4.87.47-5.36-1.31-9.75Z"/>
        <path class="uuid-754d7a41-77ce-4057-abe9-1722e4a0de39" d="M1548,429.99l.59-4.88-.59-19.03.59-5.36,2.39-4.88,5.36-2.5,24.14.47,5.36-.47,5.12,2.73,2.14,4.64.47,9.04-.47,5.36-.24,18.92.24,4.4v5.12l.24,5.36,2.5,4.64,4.64,2.26,14.4.24,4.28-.47,5.12.47,9.52-.95,4.64.71,4.88-2.73,2.73-4.88.25-19.03-.72-4.52.47-10-.47-4.16.24-9.28,2.39-5.83,7.13-1.79,27.96.24,4.88,2.02,2.14,5.12-.24,122.31.83,3.93-.83,7.74.59,22.24-2.97,4.05-4.64,3.21-9.99-.71-4.88.47h-12.61l-7.13-3.21-2.62-3.81-.24-53.89-2.5-4.64-4.64-2.61h-4.4l-5.12-.84-28.67.36-5.12,3.1-2.26,5.12v43.19l.47,5.36-.47,4.64-1.9,4.64-5.12,2.85-10.23-.24-5.12.47-9.75-.47-4.88.24-4.64-2.61-2.86-4.64.72-19.98-.72-4.41v-72.81l.48-4.88-.25-5.95.48-9.16-1.07-9.99Z"/>
        <path class="uuid-754d7a41-77ce-4057-abe9-1722e4a0de39" d="M1724.91,419.75l1.19-4.16v-14.64l2.26-4.88,4.88-2.73,25.57.24,5.84,2.26,2.73,4.64v5.12l-1.31,7.25v4.64l.72,7.14v19.39l-.48,4.4.25,15.11.83,4.88.47,42.95,1.43,5.12,2.86,3.32,3.68,3.21,5.36,2.62,4.41,1.3,8.09.48,6.55-.48,9.75-3.21,3.93-3.69,2.14-3.33,2.26-4.64.96-7.85-.24-12.37.47-4.88-.24-8.81.47-5.36-.96-4.4.72-19.27-.72-5.12.48-5.12-.24-9.4.47-4.87-.24-23.92,2.38-5.36,5.36-2.26,22.96.24,7.73,2.26,2.02,5.36.72,4.16-.25,19.75.72,4.87-.72,4.53.25,5.47-.48,7.5.24,6.78-.47,5.12.24,4.64.96,4.87v4.41l-.96,5.11.72,19.75-1.67,24.63-1.79,4.64-2.38,4.17-1.55,4.87-3.1,3.57-2.73,4.4-10.95,9.76-3.93,2.73-4.29,1.9-3.93,2.38-4.87,1.31-5.12,1.9-9.75,2.14-12.26.6-11.66-1.07-4.64-1.19-5.36-.24-3.69-1.9-5.59-1.79-4.64-1.9-3.57-2.97-8.32-4.88-3.21-3.1-6.54-8.09-4.88-8.21-1.43-4.64-.71-4.64-1.43-4.88v-5.12l-.83-7.13.24-17.5-.71-9.75.47-4.64-.24-4.88.47-4.64-.71-5.36.95-4.64-1.19-14.64.72-9.15-.96-10.24Z"/>
        <path class="uuid-754d7a41-77ce-4057-abe9-1722e4a0de39" d="M1894.46,402.87l3.21-6.56,7.02-2.74,25.34-.47,6.42,2.98,2.39,7.27.47,12.05-.47,5.36.71,38.02-.71,5.13.71,5.36-.71,6.91.24,12.16-.47,5.13.47,4.88-.24,5.36.71,4.65-.24,9.06,1.55,5.36,5.12,2.14,42.82.47,5.36-.71,3.93,2.49,3.1,5.32-.71,4.61.71,5.32-.47,4.37-.24,4.85.47,5.33-2.62,4.26-6.78,2.48-86.26.47-7.85-2.95-2.14-4.26-.48-5.08.96-4.61-.47-4.87.24-29.75-.48-4.4-.24-9.75.72-4.88-.72-9.75.72-4.64-.72-10.47.72-4.64-.48-4.88.72-4.4-.72-5.13.48-4.77-.24-4.64.71-5.36-.47-4.64-.72-4.89.72-5.13.47-4.64-1.55-12.76Z"/>
        <path class="uuid-754d7a41-77ce-4057-abe9-1722e4a0de39" d="M2018.19,517.9l1.67-5.11,4.87-2.27,4.88.36,4.87-.6,18.56.6,4.88,1.9,3.69,4.87,3.57,3.45,4.4,2.62,3.69,1.66,5.59,1.55,7.26.48,6.9-.25,9.04-2.73,3.81-2.14,3.93-3.45,1.42-6.3-1.18-6.31-3.45-2.97-8.69-3.69-4.87-.24-4.41-.72-19.98-1.43-8.81-2.02-13.93-4.52-8.44-5.12-6.9-6.42-6.07-7.98-3.1-8.56-1.79-6.78-.24-16.41,3.45-14.04,2.38-3.93,1.79-4.4,3.1-3.21,2.74-4.04,4.4-2.98,3.33-3.21,4.87-2.85,3.93-1.43,3.93-2.5,4.41-1.67,19.27-3.93,13.56-.24,5.36,1.18,4.41.48,5.11.95,13.44,4.64,15.59,10.7,3.21,3.69,2.39,3.93,3.21,3.93,3.81,8.69,2.03,9.52-2.27,4.64-4.64,2.97-4.53-.47-4.4.47-16.06-.47-7.62-2.5-8.09-8.45-3.57-2.97-5.36-1.9-15.58.47-4.4.95-3.45,1.43-4.16,3.21-2.62,3.33-.71,6.42.24,6.54,3.81,3.93,3.69,1.9,10.23,3.69,24.64,3.21,19.98,4.76,12.85,5.95,4.16,3.33,5.83,7.61,4.88,9.04,1.31,4.52.71,4.88-.24,15.11-.71,4.4-1.55,4.88-1.9,4.4-4.88,7.85-6.78,7.73-7.86,5.36-12.61,6.9-23.92,4.52-7.85.36-7.02-.83-10.24-.71-4.64-1.67-5.36-.72-17.61-8.09-4.04-2.61-7.14-7.14-6.07-7.5-3.93-9.75-.95-4.41-.47-5.36Z"/>
        <path class="uuid-754d7a41-77ce-4057-abe9-1722e4a0de39" d="M2180.84,449.38l1.07-4.88-.47-4.04.71-5.36-1.3-14.64.83-4.64-.47-5.36v-4.64l.71-5.36,2.62-4.16,7.61-2.15,4.64-.59,4.88.59,14.27-.59,7.61,2.5,2.86,5.12-.24,4.16.83,24.15-.59,4.29v14.63l2.02,4.64,5.12,2.26,23.55-.24,4.41.47h9.75l4.16-2.5,2.74-4.88v-14.15l.95-4.04-.47-26.66,1.9-7.01,7.38-2.15h4.75l7.85-.83,12.38.24,7.61,2.5,2.38,4.88.6,4.88-1.07,4.87.47,4.64,1.07,4.64-1.31,20.23.84,23.8-.6,5.36.25,9.27-.72,5.12v4.88l.47,5.12-.24,4.87,1.07,9.28v39.26l-1.07,9.99-2.61,4.64-4.88,2.61h-16.78l-7.38-.71-4.87.47-4.88-2.38-2.38-5.12-.71-9.52.95-7.38-.95-17.25.71-4.64-.71-14.87-2.5-4.87-4.4-2.38h-4.64l-4.87-.6-4.88.6h-14.27l-4.41-.6h-5.12l-4.87,2.98-2.5,5.12.71,19.27-.47,5.12.24,5.35-.47,4.64.47,4.88-.47,4.4.71,5.36-.24,4.87-1.9,4.88-5.36,2.14-5.12.47-5.12-.71-7.01-.24-7.61.71h-4.64l-5.59-2.14-1.9-5.12-.47-24.86.47-4.87-.71-4.41.71-4.87-.47-5.36.71-11.42-.47-5.59.47-7.61-.71-4.64v-14.15l.47-5.12-1.07-14.87Z"/>
        <path class="uuid-754d7a41-77ce-4057-abe9-1722e4a0de39" d="M2351.2,486.5l.72-19.75,4.19-18.8,3.71-9.28,7.54-12.85,11.89-13.92,8.33-6.07,4.4-2.27,3.69-2.61,18.21-6.78,25.81-3.69,6.67.25,14.04,2.38,18.8,5.95,3.69,2.61,7.26,3.21,5.59,3.81,7.14,6.18,6.78,7.5,5.36,7.38,4.64,8.93,6.07,18.32,1.79,9.99.72,12.14-.96,7.14-.36,5.11-1.19,4.88-.24,4.4-1.9,9.16-3.69,9.28-10.71,16.3-3.44,3.45-3.1,4.4-6.9,5.83-4.64,2.26-3.57,2.86-8.09,4.4-18.21,6.07-14.64,2.02-13.68.25-5.12-.6-8.81-1.9-5.36-.47-7.01-2.38-19.03-9.75-8.1-6.43-2.61-3.1-3.69-3.44-3.1-3.93-2.97-2.86-11.24-22.25-2.28-9.16-.48-4.64-1.19-4.41-.72-5.11ZM2396.78,486.5l1.9,9.04,2.26,4.29,1.18,3.93,3.45,4.64,3.1,3.45,6.54,5.36,3.93,2.14,8.8,3.69,5.36.72h13.44l4.88-.96,3.57-1.67,4.4-1.31,11.66-7.97,3.45-3.93,1.43-3.69,2.73-4.4,1.67-4.29,2.02-9.04.48-14.87-.72-4.41-2.26-4.64-2.85-9.28-9.53-9.99-7.61-5.36-4.4-1.9-4.28-.96-11.78-1.55-6.78.48-9.52,2.5-3.21,1.19-12.13,8.32-5.84,7.73-1.42,4.41-2.02,4.4-.72,4.64-1.18,4.41v14.87Z"/>
        <path class="uuid-754d7a41-77ce-4057-abe9-1722e4a0de39" d="M2553.11,419.75l1.19-4.16v-14.64l2.26-4.88,4.88-2.73,25.57.24,5.84,2.26,2.73,4.64v5.12l-1.31,7.25v4.64l.72,7.14v19.39l-.48,4.4.25,15.11.83,4.88.47,42.95,1.43,5.12,2.86,3.32,3.68,3.21,5.36,2.62,4.41,1.3,8.09.48,6.55-.48,9.75-3.21,3.93-3.69,2.14-3.33,2.26-4.64.96-7.85-.24-12.37.47-4.88-.24-8.81.47-5.36-.96-4.4.72-19.27-.72-5.12.48-5.12-.24-9.4.47-4.87-.24-23.92,2.38-5.36,5.36-2.26,22.96.24,7.73,2.26,2.02,5.36.72,4.16-.25,19.75.72,4.87-.72,4.53.25,5.47-.48,7.5.24,6.78-.47,5.12.24,4.64.96,4.87v4.41l-.96,5.11.72,19.75-1.67,24.63-1.79,4.64-2.38,4.17-1.55,4.87-3.1,3.57-2.73,4.4-10.95,9.76-3.93,2.73-4.29,1.9-3.93,2.38-4.87,1.31-5.12,1.9-9.75,2.14-12.26.6-11.66-1.07-4.64-1.19-5.36-.24-3.69-1.9-5.59-1.79-4.64-1.9-3.57-2.97-8.32-4.88-3.21-3.1-6.54-8.09-4.88-8.21-1.43-4.64-.71-4.64-1.43-4.88v-5.12l-.83-7.13.24-17.5-.71-9.75.47-4.64-.24-4.88.47-4.64-.71-5.36.95-4.64-1.19-14.64.72-9.15-.96-10.24Z"/>
        <path class="uuid-754d7a41-77ce-4057-abe9-1722e4a0de39" d="M2709.32,425.11l.25-24.39,2.38-4.88,5.36-2.5,72.59.47,5.58-.71h4.88l4.88.47h4.87l5.36-.71h4.64l3.81.47,5.95-.47,4.87,2.5,2.39,4.88-.48,19.98.48,5.12-2.39,4.88-5.71,2.14-13.32-.24-4.4.47-4.88-.24-4.16.24-5.36,2.26-1.9,4.28.47,5.36-.71,4.88.96,48.54-.72,10.23.47,4.41-.47,14.87-.71,5.11.71,4.16.24,9.76-.47,5.59.24,4.64-2.01,4.88-4.86,1.9h-15.08l-4.62.47-4.75-.47-4.63.47-5.1-2.38-2.02-5.12-.24-19.03.47-4.88-.71-14.87.24-5.11-.24-4.88.95-7.38-.71-7.02v-9.75l.47-4.88-.47-4.64.71-7.5-.71-26.77-2.38-4.64-4.41-2.73-21.65-.24-6.43.71-4.87-2.38-2.62-5.36Z"/>
      </g>
    </g>
  </g>
</svg>