<?xml version="1.0" encoding="UTF-8"?>
<svg id="uuid-a8e9d85d-a445-4d60-922b-9193605259ca" data-name="Laag 2" xmlns="http://www.w3.org/2000/svg" viewBox="0 0 2837.11 567.85">
  <defs>
    <style>
      .uuid-503a3fe1-5586-4747-a507-895ba17d0b49 {
        fill: #4e0c69;
      }

      .uuid-5d992245-bf23-4603-91a8-1cb16f4cafbb {
        fill: #060606;
      }
    </style>
  </defs>
  <g id="uuid-7d164039-e545-4207-af09-a93d961d6edb" data-name="Laag 1">
    <g>
      <path class="uuid-503a3fe1-5586-4747-a507-895ba17d0b49" d="M0,216.18l3.59-8.98,6.59-3.99,40.52.8,9.38,3.19,10.18,14.77,12.38,8.58,25.35-.8,6.99-4.19,6.39-7.79,3.79-7.78,1.2-12.18-1.2-11.78-2.2-8.18-4.79-6.59-12.78-7.78-7.19-2.4-31.54-2.2-7.79-2.4-2.79-8.58,4.79-8.98,15.97-36.73,8.58-13.57,2.4-7.39-1.2-8.18-5.59-2.79H22.56l-8.18-3.99-3.79-8.18-1.2-15.97,1.2-24.95,3.39-8.18,12.97-4.19,8.58-.8,12.78,1.2h80.84l8.58-.8,8.98.8,11.98-.8,19.96.8,9.78,2.99,2,8.98-3.59,10.18-13.57,21.36-3.99,8.58-8.18,13.77-6.99,15.17-4.39,6.99-4.19,8.18.4,8.58,4.19,5.59,8.18,3.79,12.58,8.58,12.38,11.38,10.58,22.56,3.59,23.35v24.75l-1.2,8.18-2,8.18-3.39,7.79-3.59,6.99-3.19,7.79-20.96,25.75-19.96,13.17-24.95,7.79-20.96,1.2-11.38-.4-8.18-.4-7.39-2.59-5.59-.8-19.36-7.79-10.18-6.39-5.79-5.39-4.79-6.19-6.19-5.19-9.78-14.37-5.39-15.17-1.2-8.58-2-7.39Z"/>
      <path class="uuid-503a3fe1-5586-4747-a507-895ba17d0b49" d="M241.53,144.32l2-24.15-1.6-8.98.4-24.15,9.83-31.54,3.21-7.39,3.81-6.39,6.2-5.79,5.2-6.19,12.4-10.58,7.6-3.99,6.6-4.59,7.4-2.79,32.81-6.99,32.41,1.2,15.6,3.19,8.6,2.99,6.8,3.19,21.8,12.38,6.6,5.59,3.61,6.19,6.22,6.59,7.43,12.58,2.81,8.18,3.81,7.79,3.21,16.77-1.2,130.35-3.81,15.17-8.63,15.17-13.85,18.76-5.82,6.19-22.59,12.18-14.99,5.79-19.39,3.99-15.4,1.4-13.6-.8-16.81-2.99-22.21-6.99-8.2-4.39-5.6-4.59-7.4-3.99-6.6-5.79-5.4-6.19-10.2-12.58-2.81-6.99-4.22-7.39-4.01-15.57-.4-49.3-1.2-8.18,1.2-8.18-1.6-8.18ZM311.8,195.42l3.18,12.58,2.99,8.18,4.78,6.59,5.77,3.59,8.56,2.99,12.15,1.2,13.14-1.6,7.36-2.99,5.97-3.99,6.17-6.59,2.39-7.39,2.19-12.58.4-12.38-1.2-6.79.4-8.18,1.2-8.18-1.6-7.39,1.6-32.34-1.6-19.56-2.19-11.98-2.79-7.39-4.38-6.39-6.97-4.99-7.76-2.79-24.89.4-13.54,7.39-5.17,5.59-4.18,7.79-1.99,11.98v95.22Z"/>
      <path class="uuid-503a3fe1-5586-4747-a507-895ba17d0b49" d="M620.6,246.12l1-7.78-1-67.07,1.4-6.99-.8-16.77.4-6.99V16.77l3.59-7.78,9.38-4.19,12.38,2.99,9.38,4.79,5.99,4.99,80.64,81.24,11.38,8.98,29.14,29.14,5.99,2.79,2.6-6.99.8-73.06-.8-8.98,1.2-17.17-1.2-6.59.4-8.58,4.39-8.58,7.79-4.59,50.7-.4,8.18,4.59,3.99,8.18,1.4,56.89-1.4,9.78v40.32l1.4,6.99-1,149.31-3.99,8.18-8.98,2.79-11.38-1.2-11.18-6.59-5.99-5.19-10.78-11.98-63.28-62.88-6.99-4.59-5.39-5.99-28.94-27.95-5.39-6.99-5.19-2-2.99,6.99-.8,8.18-.4,103.4-3.99,12.78-8.18,3.99-8.58.4-15.97-1.2-8.98.8-16.77-.8-8.58-2.79-3.59-7.79-1-34.33Z"/>
      <path class="uuid-503a3fe1-5586-4747-a507-895ba17d0b49" d="M915.43,161.09l1.2-33.14,7.02-31.54,6.22-15.57,12.64-21.56,19.96-23.35,13.97-10.18,7.39-3.79,6.19-4.39,30.54-11.38,43.32-6.19,11.18.4,23.55,3.99,31.54,9.98,6.19,4.39,12.18,5.39,9.38,6.39,11.98,10.38,11.38,12.58,8.98,12.38,7.79,14.97,10.18,30.74,2.99,16.77,1.2,20.36-1.6,11.98-.6,8.58-2,8.18-.4,7.39-3.19,15.37-6.19,15.57-17.97,27.35-5.79,5.79-5.19,7.39-11.58,9.78-7.79,3.79-5.99,4.79-13.57,7.39-30.54,10.18-24.55,3.39-22.96.4-8.58-1-14.77-3.19-8.98-.8-11.78-3.99-31.94-16.37-13.57-10.78-4.39-5.19-6.19-5.79-5.19-6.59-4.99-4.79-18.86-37.33-3.81-15.37-.8-7.78-2.01-7.39-1.2-8.58ZM991.88,161.09l3.19,15.17,3.79,7.19,2,6.59,5.79,7.79,5.19,5.79,10.98,8.98,6.59,3.59,14.77,6.19,8.98,1.2h22.56l8.18-1.6,5.99-2.79,7.39-2.2,19.56-13.37,5.79-6.59,2.4-6.19,4.59-7.39,2.79-7.19,3.39-15.17.8-24.95-1.2-7.39-3.79-7.78-4.79-15.57-15.97-16.77-12.78-8.98-7.39-3.19-7.19-1.6-19.76-2.6-11.38.8-15.97,4.19-5.39,2-20.36,13.97-9.78,12.97-2.4,7.39-3.39,7.39-1.2,7.78-2,7.39v24.95Z"/>
      <path class="uuid-503a3fe1-5586-4747-a507-895ba17d0b49" d="M1219.44,17.57l.8-8.98,8.58-3.79,8.58-.4,7.39.8,6.99-.8,22.76,1.2,9.58,3.39,6.79,8.18,3.79,6.59,2.79,7.19,4.19,7.78,1.2,7.79,14.17,29.54,1.8,8.18,2.79,7.39,3.59,6.39,4.99,16.37,4.59,7.39,2.79,6.59,2.4,8.18,3.39,7.39,5.19,15.57,3.39,7.19,4.79-.8,4.99-7.39,2-7.19,3.99-7.78,48.71-119.77,2-7.39,7.39-7.79,9.38-3.39h48.31l6.99,2.6,2.4,10.18-3.99,9.78-1.8,6.99-3.99,7.78-2.79,8.18-4.59,6.99-2,7.19-6.19,15.97-5.19,6.19-2.2,7.78-5.59,7.39-2.2,7.79-2,6.99-4.39,8.18-4.59,15.37-8.58,14.77-4.99,15.97-24.35,52.3-2.59,7.39-6.39,14.77-4.19,6.79-3.59,7.78-6.99,15.97-2.4,7.79-6.99,6.59-11.18,4.99-8.18-1-9.78-3.59-6.39-7.39-11.18-22.56-2-8.58-3.99-5.99-10.78-23.75-2.4-7.78-6.99-14.77-2-6.79-26.95-61.08-4.19-6.39-12.18-29.94-4.19-7.39-6.39-15.97-4.59-7.79-2.4-7.19-3.79-7.39-5.99-15.57-3.79-7.39-1.6-9.78Z"/>
      <path class="uuid-503a3fe1-5586-4747-a507-895ba17d0b49" d="M1524.25,279.26l1.8-8.17.4-8.17-.8-15.95v-8.17l-.8-9.37,1.2-7.38-.4-7.78.8-8.97-1.2-8.57.8-16.35-1.2-15.95,1.2-8.57v-72.97l-.8-7.38.8-8.57-1.8-20.93,1.8-11.76-.8-16.35,3.99-8.93,11.78-2.98,53.7-1.2,7.39.8,15.77-.4,8.18.8,18.17-.8,7.98,1.39,7.39-.99,32.74.4,8.58,3.77,4.19,8.13-1.2,7.74-.6,8.93,1.4,7.74.8,16.67-4.59,7.34-8.58,4.37-78.45.4-12.78,3.79-3.99,11.78.8,12.58,4.99,7.39,6.79,4.59,32.34-.4,9.38.8h8.58l8.18-.8,16.37.4,6.99,4.39,3.79,7.78.8,8.18-.8,32.34-4.19,7.78-8.18,4.59-7.39.4-8.58-1-10.98,1-21.76-1.4-8.18,1h-15.77l-7.39,4.39-3.79,8.58-.4,19.96,3.79,12.78,8.58,4.79,8.98-.8,8.98.8,7.79-1.2,53.9.8,12.18,4.19,5.39,8.18-.8,7.78.4,25.35-.8,7.79-3.79,7.78-8.58,3.99-7.59.8-24.95-1.6-24.95,1.2-7.39-1.2-92.42.8-7.79-4.39-5.39-7.78Z"/>
      <path class="uuid-503a3fe1-5586-4747-a507-895ba17d0b49" d="M1758.4,213.39l1.8-7.78-1.2-180.25.8-8.58,4.39-8.18,8.18-4.59,11.78,3.39,11.98,8.58,8.98,9.38,4.39,5.59,5.79,5.39,4.59,6.19,5.19,5.59,6.99,6.19,9.78,12.38,28.34,28.94,4.79,6.59,6.59,5.19,4.79,6.99,5.39,5.39,7.39,2.4,8.98-2.79,60.48-64.28,3.79-5.99,23.16-24.15,9.38-11.58,10.38-5.59,12.18-3.79,8.18,4.99,4.59,7.78-.6,8.58,1,6.99-1,8.58,1.4,115.58-1.4,7.39,1,8.18-1,8.58.6,8.18-1.4,8.18.8,15.97-.8,7.78,1.8,49.11-1.4,7.98-4.39,8.58-7.79,4.99-49.1-.4-8.98-3.19-3.99-8.58,1.2-56.49-1.2-15.17.4-8.18-.4-7.39,1.2-7.78-1.2-7.98-3.39-4.99-4.79.8-5.79,5.79-5.39,6.99-34.33,34.73-6.79,4.79h-9.58l-13.37-10.98-5.39-6.99-22.76-21.56-10.38-12.78-5.99-1.6-3.79,5.79,1.6,23.55-1.2,55.29,1.2,8.58.4,8.58-.8,7.78-4.39,6.39-12.38,3.79-44.91.8-9.78-4.59-3.59-7.19.8-7.78-1.8-58.09Z"/>
      <path class="uuid-503a3fe1-5586-4747-a507-895ba17d0b49" d="M2100.14,263.29l1.8-24.55-1.2-16.77.8-33.54-.8-7.78v-16.37l.8-7.78-1.4-8.6v-32.81l1-7.8-.4-8.6.8-7.6-.8-8.61,1.2-8.6-1.8-27.61,1-11.81-1-17.61,3.81-8.64,8.23-3.81,122.92.8,22.95,5.42,15.17,8.23,12.17,8.64,5.79,5.82,9.78,13.06,2.4,7.8,4.19,7.8,4.39,15.2.4,11.8-5.59,29.6-4.99,6.99-4.39,8.18-1.8,7.98,3.79,9.18,6.19,5.99,5.59,6.99,7.39,14.37,2.79,8.58,1.8,7.78-.4,32.74-3.39,7.98-1.59,6.99-3.59,7.78-9.58,13.57-6.38,6.19-5.39,3.99-15.56,8.98-13.37,5.39-15.56,2-135.29,1.6-7.83-3.59-4.42-9.38-.6-15.57ZM2170.99,104.2l4,8.18,9.78,3.19h30.74l13.97-2.79,6.79-6.59,2.2-12.18-1.4-10.98-5.19-5.79-4.99-3.19-12.58-2.6-29.54-1.2-8.58,4.59-4.39,6.79.8,7.79v7.78l-1.61,6.99ZM2171.8,199.41l.8,7.79-.4,6.99,4.39,8.58,6.99,3.19,31.94.4,22.16-2,7.19-4.39,5.39-5.79.8-10.58-.8-11.58-6.19-5.59-5.99-4.59-11.58-2h-43.32l-8.18,3.99-2.79,7.39-.4,8.18Z"/>
      <path class="uuid-503a3fe1-5586-4747-a507-895ba17d0b49" d="M2369.81,213.76l1.4-16.77-1.4-8.99.6-15.57.8-8.59v-20.37l-1.4-11.98,1.4-114.41,3.2-8.53,7.81-3.77,9.01.4,7.81-1.2,16.81,1.59,7.81-1.19,24.61.8,6.79-.8,8.98.8,8.18-.8,9.18.4,11.78-.4,10.18.79,33.93,6.95,14.37,7.34,20.36,15.48,3.79,6.15,5.59,5.95,11.18,22.51,2,8.17,1.2,7.77,2,7.77-.4,32.4-4.39,15.4-2.99,7-4.39,7.4-2.99,7.8-4.79,7-11.58,11-4.39,8.6,1.2,9.8,12.38,21.4,5.19,6.6,4.19,7.2,4.79,7.4,3.79,7,12.97,20,5.39,10.4-1.6,8.6-8.58,2-8.98.8h-16.37l-8.18-.8-8.98.8-14.77-.8-10.18-2.4-8.18-7.4-4.99-6.6-3.59-7-5.39-7.8-11.38-20.4-2.99-7.8-10.58-14.4-6.59-7-10.18-3.2-7.39.4h-7.39l-7.98,4.2-3.79,8.2.8,25.4-1.2,17.6,1.6,8.6-.8,8.6-2.8,7.8-12.81,4h-12.21l-8.61-.8-16.81,1.2-7.81-.4-8.21-4-2.8-9.19-1.2-31.74.8-8.59-1.8-23.76ZM2443.27,82.26l1.2,45.8,4.19,8.6,6.79,3.6h9.18l8.18,1.2,31.74-2.8,6.19-2.8,4.99-5,4.39-7,3.19-8.2,1.4-11-.8-11.8-2.99-6.6-3.99-6.2-12.78-7.8-18.76-2.4-22.56-.4-6.39.4-8.18,4.2-4.99,8.2Z"/>
      <path class="uuid-503a3fe1-5586-4747-a507-895ba17d0b49" d="M2653.07,279.26l1.8-8.17.4-8.17-.8-15.95v-8.17l-.8-9.37,1.2-7.38-.4-7.78.8-8.97-1.2-8.57.8-16.35-1.2-15.95,1.2-8.57v-72.97l-.8-7.38.8-8.57-1.8-20.93,1.8-11.76-.8-16.35,3.99-8.93,11.78-2.98,53.7-1.2,7.39.8,15.77-.4,8.18.8,18.17-.8,7.98,1.39,7.39-.99,32.74.4,8.58,3.77,4.19,8.13-1.2,7.74-.6,8.93,1.4,7.74.8,16.67-4.59,7.34-8.58,4.37-78.45.4-12.78,3.79-3.99,11.78.8,12.58,4.99,7.39,6.79,4.59,32.34-.4,9.38.8h8.58l8.18-.8,16.37.4,6.99,4.39,3.79,7.78.8,8.18-.8,32.34-4.19,7.78-8.18,4.59-7.39.4-8.58-1-10.98,1-21.76-1.4-8.18,1h-15.77l-7.39,4.39-3.79,8.58-.4,19.96,3.79,12.78,8.58,4.79,8.98-.8,8.98.8,7.79-1.2,53.9.8,12.18,4.19,5.39,8.18-.8,7.78.4,25.35-.8,7.79-3.79,7.78-8.58,3.99-7.59.8-24.95-1.6-24.95,1.2-7.39-1.2-92.42.8-7.79-4.39-5.39-7.78Z"/>
    </g>
    <g>
      <path class="uuid-5d992245-bf23-4603-91a8-1cb16f4cafbb" d="M0,519.3l1.9-5.12,4.4-1.9,18.8-1.07,4.64.84,4.4-.6,4.88,2.03,7.97,8.8,4.17,2.62,4.16,2.26,12.37,1.19,4.4-.72,7.61-.47,8.21-3.69,3.21-3.69,1.9-6.07-1.43-6.07-3.21-2.97-8.68-4.16-38.31-4.41-8.8-2.85-16.54-9.04-9.04-11.18-3.81-8.57-1.79-9.75-.24-7.5.71-12.01,4.4-13.32,8.57-11.42,11.66-8.1,8.33-4.87,9.28-2.98,4.4-.71,4.88-.24,5.36-1.43,18.68.47,9.52,1.9,13.68,4.64,16.06,11.3,5.36,7.25,6.78,12.73.6,4.53.95,4.64-2.02,4.16-4.64,3.45-4.28-.47h-4.88l-6.66-.47-11.42.95-5.36-3.21-3.69-4.88-4.16-3.33-4.28-2.97-4.4-1.19-7.86-.96-7.73.25-4.4.95-3.93,2.14-3.69,2.74-2.86,3.09-1.31,6.67,1.07,7.26,3.57,3.45,9.04,4.4,12.97,2.61h7.02l5.11.96,4.88.24,4.88.83,19.04,5.83,4.4,2.62,3.81,2.02,4.4,3.81,6.43,7.38,2.62,3.93,3.69,14.04.47,7.85-1.43,12.13-1.55,4.16-1.43,4.41-2.74,5.36-2.38,3.44-7.02,7.26-16.66,10-4.64,2.26-4.28.47-4.88,1.9-4.88.72-4.88,1.18-4.88.59-19.28-.59-10-1.67-9.52-3.45-4.88-1.42-4.64-2.14-3.33-3.69-8.57-5.36-3.21-3.69-3.33-3.1-4.64-9.04-1.54-4.4-.95-4.88L0,519.3Z"/>
      <path class="uuid-5d992245-bf23-4603-91a8-1cb16f4cafbb" d="M162.64,440.85l1.07-9.75-.24-29.51,2.14-3.91,5.11-2.6,5.12-1.07,4.4.71,5.36.36,15.11-1.07,4.88.71,14.87.36,5.36-.83,7.73-.24,7.38.24,4.88,1.78h4.88l4.16,1.65,9.75,2.96,7.97,5.35,10.95,9.49,5.83,7.96,4.64,8.31,2.97,9.03.71,5.35.95,4.04-.48,19.95-1.43,3.93-.71,5.36-4.16,9.53-5.12,7.87-3.21,3.58-3.1,3.21-3.45,3.93-3.69,2.86-23.08,9.3-25.1,2.03-5.11-1.07-5.36.47-5.59,2.74-2.26,4.42.24,5.6-.47,4.64.47,9.06-.24,5.36.24,4.89-2.14,5.13-5.12,1.9-5.59.47-4.4-.24-12.02.47-4.28-.24-7.61-2.39-2.62-4.64.24-45.1-.48-4.64.24-63.19-.59-4.53ZM206.55,455.21l.71,19.79,2.26,4.17,4.88,2.98,5.83-.47,12.37.24,7.61-1.07,3.81-1.19,3.93-2.86,3.21-3.93,2.14-3.93,1.79-4.41.48-6.56-.48-6.79-.71-4.41-2.5-4.89-3.21-3.21-3.81-2.62-4.88-2.27-25.34-.71-5.11,2.5-2.5,4.53v10.01l-.47,5.13Z"/>
      <path class="uuid-5d992245-bf23-4603-91a8-1cb16f4cafbb" d="M314.93,487.42l.72-19.75,4.19-18.8,3.71-9.28,7.53-12.85,11.9-13.92,8.33-6.07,4.4-2.27,3.69-2.61,18.21-6.78,25.82-3.69,6.66.25,14.04,2.38,18.8,5.95,3.69,2.61,7.26,3.21,5.59,3.81,7.14,6.18,6.78,7.5,5.36,7.38,4.64,8.93,6.07,18.32,1.79,9.99.71,12.14-.95,7.14-.36,5.11-1.19,4.88-.24,4.4-1.9,9.16-3.69,9.28-10.71,16.3-3.45,3.45-3.1,4.4-6.9,5.83-4.64,2.26-3.57,2.86-8.09,4.4-18.21,6.07-14.63,2.02-13.68.25-5.11-.6-8.81-1.9-5.36-.47-7.02-2.38-19.03-9.75-8.09-6.43-2.62-3.1-3.69-3.44-3.09-3.93-2.97-2.86-11.24-22.25-2.27-9.16-.48-4.64-1.19-4.41-.72-5.11ZM360.5,487.42l1.9,9.04,2.26,4.29,1.19,3.93,3.45,4.64,3.09,3.45,6.54,5.36,3.93,2.14,8.8,3.69,5.36.72h13.44l4.88-.96,3.57-1.67,4.4-1.31,11.66-7.97,3.45-3.93,1.43-3.69,2.74-4.4,1.67-4.29,2.02-9.04.48-14.87-.71-4.41-2.26-4.64-2.86-9.28-9.52-9.99-7.61-5.36-4.4-1.9-4.28-.96-11.78-1.55-6.78.48-9.52,2.5-3.21,1.19-12.14,8.32-5.83,7.73-1.43,4.41-2.02,4.4-.71,4.64-1.19,4.41v14.87Z"/>
      <path class="uuid-5d992245-bf23-4603-91a8-1cb16f4cafbb" d="M518.26,518.8l.83-9.99-.83-5.36.36-9.28.48-5.12v-12.14l-.83-7.14.83-68.2,1.91-5.08,4.65-2.24,5.37.24,4.65-.71,10.02.95,4.65-.71,14.67.47,4.04-.47,5.36.47,4.88-.47,5.47.24,7.02-.24,6.07.47,20.22,4.14,8.57,4.37,12.14,9.22,2.26,3.67,3.33,3.54,6.66,13.42,1.19,4.86.71,4.64,1.19,4.63-.24,19.31-2.61,9.17-1.79,4.18-2.62,4.41-1.79,4.64-2.86,4.17-6.9,6.56-2.62,5.13.71,5.85,7.37,12.75,3.1,3.93,2.5,4.29,2.86,4.41,2.26,4.17,7.73,11.92,3.21,6.2-.95,5.13-5.12,1.19-5.36.47h-9.75l-4.88-.47-5.36.47-8.8-.47-6.07-1.43-4.88-4.42-2.97-3.93-2.14-4.17-3.21-4.64-6.78-12.16-1.79-4.65-6.31-8.58-3.93-4.17-6.07-1.91-4.4.24h-4.4l-4.76,2.5-2.26,4.89.47,15.13-.71,10.49.95,5.13-.47,5.13-1.67,4.64-7.64,2.39h-7.28l-5.13-.47-10.02.71-4.65-.24-4.89-2.39-1.67-5.47-.71-18.92.48-5.12-1.07-14.16ZM562.04,440.43l.71,27.3,2.5,5.12,4.04,2.15h5.47l4.88.72,18.92-1.68,3.69-1.67,2.97-2.98,2.62-4.17,1.9-4.89.83-6.56-.47-7.03-1.79-3.93-2.38-3.7-7.61-4.64-11.18-1.43-13.44-.24-3.81.24-4.88,2.5-2.98,4.88Z"/>
      <path class="uuid-5d992245-bf23-4603-91a8-1cb16f4cafbb" d="M671.38,426.02l.24-24.39,2.38-4.88,5.36-2.5,72.59.47,5.58-.71h4.88l4.88.47h4.88l5.36-.71h4.64l3.81.47,5.95-.47,4.88,2.5,2.38,4.88-.48,19.98.48,5.12-2.38,4.88-5.71,2.14-13.32-.24-4.4.47-4.88-.24-4.16.24-5.36,2.26-1.9,4.28.47,5.36-.71,4.88.95,48.54-.71,10.23.47,4.41-.47,14.87-.71,5.11.71,4.16.24,9.76-.47,5.59.24,4.64-2.02,4.88-4.86,1.9h-15.07l-4.62.47-4.75-.47-4.63.47-5.1-2.38-2.02-5.12-.24-19.03.47-4.88-.71-14.87.24-5.11-.24-4.88.95-7.38-.71-7.02v-9.75l.47-4.88-.47-4.64.71-7.5-.71-26.77-2.38-4.64-4.4-2.73-21.65-.24-6.43.71-4.88-2.38-2.62-5.36Z"/>
      <path class="uuid-5d992245-bf23-4603-91a8-1cb16f4cafbb" d="M818.44,543.46l1.31-4.88-.71-15.35.71-9.75-.71-4.64v-10.23l.48-4.64-.71-7.26.95-6.66-.71-10,.48-5.35-.48-4.41.48-4.87v-24.75l-.71-5.11v-4.64l.71-4.4v-9.99l.47-5.12,2.36-4.64,6.63-2.26,72.84.24,4.41,1.07,4.88,1.9,5.12.95,8.69,4.64,7.38,4.87,4.17,3.69,2.62,3.69,3.21,3.33,3.09,4.16,4.88,8.81,4.4,19.03-.24,14.28-.48,4.4-2.15,9.99-1.79,4.41-2.14,4.4-7.87,11.66-7.28,7.14-3.93,2.86-8.23,5.11-14.2,4.17-10.02,1.9-12.76.24-7.28-.72-5.37.72-6.56,2.5-1.79,4.16v5.12l.47,5.36-.71,4.4.47,4.64-.24,9.75-2.13,5.12-4.85,2.61h-5.09l-5.33-.47-14.32.24-4.85-.47-5.08-1.9-1.9-5.12-.24-4.64.71-4.64-1.07-4.64ZM862.34,440.9l.47,33.79,2.97,4.87,4.64,2.27,5.59.47,19.99-1.31,3.93-2.14,3.81-2.61,5.59-6.9,2.74-11.18-2.14-11.42-2.5-4.16-3.93-3.69-3.57-2.62-4.17-2.26-19.51-.95-6.07.47-4.88,2.02-2.97,5.36Z"/>
      <path class="uuid-5d992245-bf23-4603-91a8-1cb16f4cafbb" d="M953.24,558.33l2.86-10.24,2.26-4.88,2.86-3.93,7.14-17.84,6.78-12.61,1.67-4.88,2.26-3.93,1.43-5.11,3.45-6.31,1.67-4.64,3.69-6.31,3.81-8.8,2.74-4.41,1.19-4.16,13.68-30.69,2.62-4.41,10.59-21.89,1.43-4.41,4.64-4.4,7.74-2.38,8.32,2.14,4.4,4.64,1.43,4.64,2.14,3.69,3.93,9.28,4.88,9.04,3.69,8.44,1.19,3.93,4.4,9.28,1.43,4.64,4.88,8.44,1.31,4.64,2.38,4.16,1.9,4.16,2.74,4.4,1.43,4.88,2.26,3.57,1.67,4.88,2.14,4.16,2.02,4.87,2.62,3.93,3.45,9.04,2.38,4.17,1.79,4.64,4.16,8.69,1.43,4.64,2.38,3.69,1.55,4.88,3.09,4.16,1.79,4.4,1.43,6.07-.95,5.11-4.4,1.43-15.11.47-8.57-.71-4.4.47-6.31-2.38-4.16-3.93-2.62-4.41-1.19-4.4-5.12-3.93-8.09-2.61-11.42.47-5.12-.47h-4.4l-5.59.71-5.12-.71-13.68.24-4.88-.48-5.83,2.39-4.16,4.64-4.17,8.33-4.4,4.4-5.59,2.38-6.3-.71h-21.42l-4.88-1.19-1.19-5.11ZM1023.08,497.88l.83,4.88,4.52,1.9,19.03-.24,4.16-1.9.48-4.41-1.67-4.4-2.5-4.88-.95-3.93-2.61-4.16-3.21-9.4-2.97-2.02-3.09,2.5-2.26,3.81-9.75,22.25Z"/>
      <path class="uuid-5d992245-bf23-4603-91a8-1cb16f4cafbb" d="M1144.31,518.8l.83-9.99-.83-5.36.36-9.28.48-5.12v-12.14l-.83-7.14.83-68.2,1.91-5.08,4.65-2.24,5.37.24,4.65-.71,10.02.95,4.65-.71,14.67.47,4.04-.47,5.36.47,4.88-.47,5.47.24,7.02-.24,6.07.47,20.22,4.14,8.57,4.37,12.14,9.22,2.26,3.67,3.33,3.54,6.66,13.42,1.19,4.86.71,4.64,1.19,4.63-.24,19.31-2.61,9.17-1.79,4.18-2.62,4.41-1.79,4.64-2.86,4.17-6.9,6.56-2.62,5.13.71,5.85,7.37,12.75,3.1,3.93,2.5,4.29,2.86,4.41,2.26,4.17,7.73,11.92,3.21,6.2-.95,5.13-5.12,1.19-5.36.47h-9.75l-4.88-.47-5.36.47-8.8-.47-6.07-1.43-4.88-4.42-2.97-3.93-2.14-4.17-3.21-4.64-6.78-12.16-1.79-4.65-6.31-8.58-3.93-4.17-6.07-1.91-4.4.24h-4.4l-4.76,2.5-2.26,4.89.47,15.13-.71,10.49.95,5.13-.47,5.13-1.67,4.64-7.64,2.39h-7.28l-5.13-.47-10.02.71-4.65-.24-4.89-2.39-1.67-5.47-.71-18.92.48-5.12-1.07-14.16ZM1188.09,440.43l.71,27.3,2.5,5.12,4.04,2.15h5.47l4.88.72,18.92-1.68,3.69-1.67,2.97-2.98,2.62-4.17,1.9-4.89.83-6.56-.47-7.03-1.79-3.93-2.38-3.7-7.61-4.64-11.18-1.43-13.44-.24-3.81.24-4.88,2.5-2.98,4.88Z"/>
      <path class="uuid-5d992245-bf23-4603-91a8-1cb16f4cafbb" d="M1313.14,528.35l.83-9.76-.24-5.11.71-4.41-.47-58.53-.83-5.12,1.31-9.64-.71-4.87-.24-4.64.71-14.64-.47-4.87v-5.12l3.31-4.4,3.91-3.21,19.64.47,4.85-.47,5.09.47,4.37,2.5,2.37,5.36.24,4.88.72,4.64-.72,35.34.72,4.41-.24,5.11,4.4,2.62,5.83-.24,10.71-2.15,4.16-2.02,4.4-2.61,3.69-3.21,2.86-3.93,3.21-3.57,1.9-4.64,2.5-9.75,1.18-10.24-.71-14.87,2.74-5.12,5.83-2.97,7.01.71,22.13-.71,5.12,2.73,2.02,5.59.24,9.75-.95,4.64.47,5.36-1.43,10.23-.36,4.64-2.38,9.28-2.14,5.11-1.31,4.29-2.38,4.64-5.36,8.33-7.14,7.01-4.28,2.74-2.27,5.59v5.36l8.57,12.25,7.02,12.61,2.97,4.4,1.9,4.41,2.98,3.93,4.64,8.21,3.57,4.16,2.02,4.64,2.39,4.16,3.44,3.57,2.15,5.95-1.19,5.59-4.16,2.14-5.12-.47h-27l-8.33-1.67-4.64-3.69-6.55-12.73-3.21-4.04-2.14-4.16-2.97-4.16-6.07-12.61-10-16.66-4.64-3.57-7.26-1.55-6.07,2.98-2.27,4.4v15.11l-.47,5.36.72,29.51-2.37,5.36-7.11,2.38-25.43.24-6.98-2.61-1.65-5.12-.71-4.87.48-4.41-.24-4.87.47-5.36-1.31-9.75Z"/>
      <path class="uuid-5d992245-bf23-4603-91a8-1cb16f4cafbb" d="M1548,430.9l.59-4.88-.59-19.03.59-5.36,2.39-4.88,5.36-2.5,24.14.47,5.36-.47,5.12,2.73,2.14,4.64.47,9.04-.47,5.36-.24,18.92.24,4.4v5.12l.24,5.36,2.5,4.64,4.64,2.26,14.4.24,4.28-.47,5.12.47,9.52-.95,4.64.71,4.88-2.73,2.73-4.88.25-19.03-.72-4.52.47-10-.47-4.16.24-9.28,2.39-5.83,7.13-1.79,27.96.24,4.88,2.02,2.14,5.12-.24,122.31.83,3.93-.83,7.74.59,22.24-2.97,4.05-4.64,3.21-9.99-.71-4.88.47h-12.61l-7.13-3.21-2.62-3.81-.24-53.89-2.5-4.64-4.64-2.61h-4.4l-5.12-.84-28.67.36-5.12,3.1-2.26,5.12v43.19l.47,5.36-.47,4.64-1.9,4.64-5.12,2.85-10.23-.24-5.12.47-9.75-.47-4.88.24-4.64-2.61-2.86-4.64.72-19.98-.72-4.41v-72.81l.48-4.88-.25-5.95.48-9.16-1.07-9.99Z"/>
      <path class="uuid-5d992245-bf23-4603-91a8-1cb16f4cafbb" d="M1724.91,420.67l1.19-4.16v-14.64l2.26-4.88,4.88-2.73,25.57.24,5.84,2.26,2.73,4.64v5.12l-1.31,7.25v4.64l.72,7.14v19.39l-.48,4.4.25,15.11.83,4.88.47,42.95,1.43,5.12,2.86,3.32,3.68,3.21,5.36,2.62,4.41,1.3,8.09.48,6.55-.48,9.75-3.21,3.93-3.69,2.14-3.33,2.26-4.64.96-7.85-.24-12.37.47-4.88-.24-8.81.47-5.36-.96-4.4.72-19.27-.72-5.12.48-5.12-.24-9.4.47-4.87-.24-23.92,2.38-5.36,5.36-2.26,22.96.24,7.73,2.26,2.02,5.36.72,4.16-.25,19.75.72,4.87-.72,4.53.25,5.47-.48,7.5.24,6.78-.47,5.12.24,4.64.96,4.87v4.41l-.96,5.11.72,19.75-1.67,24.63-1.79,4.64-2.38,4.17-1.55,4.87-3.1,3.57-2.73,4.4-10.95,9.76-3.93,2.73-4.29,1.9-3.93,2.38-4.87,1.31-5.12,1.9-9.75,2.14-12.26.6-11.66-1.07-4.64-1.19-5.36-.24-3.69-1.9-5.59-1.79-4.64-1.9-3.57-2.97-8.32-4.88-3.21-3.1-6.54-8.09-4.88-8.21-1.43-4.64-.71-4.64-1.43-4.88v-5.12l-.83-7.13.24-17.5-.71-9.75.47-4.64-.24-4.88.47-4.64-.71-5.36.95-4.64-1.19-14.64.72-9.15-.96-10.24Z"/>
      <path class="uuid-5d992245-bf23-4603-91a8-1cb16f4cafbb" d="M1894.46,403.79l3.21-6.56,7.02-2.74,25.34-.47,6.42,2.98,2.39,7.27.47,12.05-.47,5.36.71,38.02-.71,5.13.71,5.36-.71,6.91.24,12.16-.47,5.13.47,4.88-.24,5.36.71,4.65-.24,9.06,1.55,5.36,5.12,2.14,42.82.47,5.36-.71,3.93,2.49,3.1,5.32-.71,4.61.71,5.32-.47,4.37-.24,4.85.47,5.33-2.62,4.26-6.78,2.48-86.26.47-7.85-2.95-2.14-4.26-.48-5.08.96-4.61-.47-4.87.24-29.75-.48-4.4-.24-9.75.72-4.88-.72-9.75.72-4.64-.72-10.47.72-4.64-.48-4.88.72-4.4-.72-5.13.48-4.77-.24-4.64.71-5.36-.47-4.64-.72-4.89.72-5.13.47-4.64-1.55-12.76Z"/>
      <path class="uuid-5d992245-bf23-4603-91a8-1cb16f4cafbb" d="M2018.19,518.82l1.67-5.11,4.87-2.27,4.88.36,4.87-.6,18.56.6,4.88,1.9,3.69,4.87,3.57,3.45,4.4,2.62,3.69,1.66,5.59,1.55,7.26.48,6.9-.25,9.04-2.73,3.81-2.14,3.93-3.45,1.42-6.3-1.18-6.31-3.45-2.97-8.69-3.69-4.87-.24-4.41-.72-19.98-1.43-8.81-2.02-13.93-4.52-8.44-5.12-6.9-6.42-6.07-7.98-3.1-8.56-1.79-6.78-.24-16.41,3.45-14.04,2.38-3.93,1.79-4.4,3.1-3.21,2.74-4.04,4.4-2.98,3.33-3.21,4.87-2.85,3.93-1.43,3.93-2.5,4.41-1.67,19.27-3.93,13.56-.24,5.36,1.18,4.41.48,5.11.95,13.44,4.64,15.59,10.7,3.21,3.69,2.39,3.93,3.21,3.93,3.81,8.69,2.03,9.52-2.27,4.64-4.64,2.97-4.53-.47-4.4.47-16.06-.47-7.62-2.5-8.09-8.45-3.57-2.97-5.36-1.9-15.58.47-4.4.95-3.45,1.43-4.16,3.21-2.62,3.33-.71,6.42.24,6.54,3.81,3.93,3.69,1.9,10.23,3.69,24.64,3.21,19.98,4.76,12.85,5.95,4.16,3.33,5.83,7.61,4.88,9.04,1.31,4.52.71,4.88-.24,15.11-.71,4.4-1.55,4.88-1.9,4.4-4.88,7.85-6.78,7.73-7.86,5.36-12.61,6.9-23.92,4.52-7.85.36-7.02-.83-10.24-.71-4.64-1.67-5.36-.72-17.61-8.09-4.04-2.61-7.14-7.14-6.07-7.5-3.93-9.75-.95-4.41-.47-5.36Z"/>
      <path class="uuid-5d992245-bf23-4603-91a8-1cb16f4cafbb" d="M2180.84,450.29l1.07-4.88-.47-4.04.71-5.36-1.3-14.64.83-4.64-.47-5.36v-4.64l.71-5.36,2.62-4.16,7.61-2.15,4.64-.59,4.88.59,14.27-.59,7.61,2.5,2.86,5.12-.24,4.16.83,24.15-.59,4.29v14.63l2.02,4.64,5.12,2.26,23.55-.24,4.41.47h9.75l4.16-2.5,2.74-4.88v-14.15l.95-4.04-.47-26.66,1.9-7.01,7.38-2.15h4.75l7.85-.83,12.38.24,7.61,2.5,2.38,4.88.6,4.88-1.07,4.87.47,4.64,1.07,4.64-1.31,20.23.84,23.8-.6,5.36.25,9.27-.72,5.12v4.88l.47,5.12-.24,4.87,1.07,9.28v39.26l-1.07,9.99-2.61,4.64-4.88,2.61h-16.78l-7.38-.71-4.87.47-4.88-2.38-2.38-5.12-.71-9.52.95-7.38-.95-17.25.71-4.64-.71-14.87-2.5-4.87-4.4-2.38h-4.64l-4.87-.6-4.88.6h-14.27l-4.41-.6h-5.12l-4.87,2.98-2.5,5.12.71,19.27-.47,5.12.24,5.35-.47,4.64.47,4.88-.47,4.4.71,5.36-.24,4.87-1.9,4.88-5.36,2.14-5.12.47-5.12-.71-7.01-.24-7.61.71h-4.64l-5.59-2.14-1.9-5.12-.47-24.86.47-4.87-.71-4.41.71-4.87-.47-5.36.71-11.42-.47-5.59.47-7.61-.71-4.64v-14.15l.47-5.12-1.07-14.87Z"/>
      <path class="uuid-5d992245-bf23-4603-91a8-1cb16f4cafbb" d="M2351.2,487.42l.72-19.75,4.19-18.8,3.71-9.28,7.54-12.85,11.89-13.92,8.33-6.07,4.4-2.27,3.69-2.61,18.21-6.78,25.81-3.69,6.67.25,14.04,2.38,18.8,5.95,3.69,2.61,7.26,3.21,5.59,3.81,7.14,6.18,6.78,7.5,5.36,7.38,4.64,8.93,6.07,18.32,1.79,9.99.72,12.14-.96,7.14-.36,5.11-1.19,4.88-.24,4.4-1.9,9.16-3.69,9.28-10.71,16.3-3.44,3.45-3.1,4.4-6.9,5.83-4.64,2.26-3.57,2.86-8.09,4.4-18.21,6.07-14.64,2.02-13.68.25-5.12-.6-8.81-1.9-5.36-.47-7.01-2.38-19.03-9.75-8.1-6.43-2.61-3.1-3.69-3.44-3.1-3.93-2.97-2.86-11.24-22.25-2.28-9.16-.48-4.64-1.19-4.41-.72-5.11ZM2396.78,487.42l1.9,9.04,2.26,4.29,1.18,3.93,3.45,4.64,3.1,3.45,6.54,5.36,3.93,2.14,8.8,3.69,5.36.72h13.44l4.88-.96,3.57-1.67,4.4-1.31,11.66-7.97,3.45-3.93,1.43-3.69,2.73-4.4,1.67-4.29,2.02-9.04.48-14.87-.72-4.41-2.26-4.64-2.85-9.28-9.53-9.99-7.61-5.36-4.4-1.9-4.28-.96-11.78-1.55-6.78.48-9.52,2.5-3.21,1.19-12.13,8.32-5.84,7.73-1.42,4.41-2.02,4.4-.72,4.64-1.18,4.41v14.87Z"/>
      <path class="uuid-5d992245-bf23-4603-91a8-1cb16f4cafbb" d="M2553.11,420.67l1.19-4.16v-14.64l2.26-4.88,4.88-2.73,25.57.24,5.84,2.26,2.73,4.64v5.12l-1.31,7.25v4.64l.72,7.14v19.39l-.48,4.4.25,15.11.83,4.88.47,42.95,1.43,5.12,2.86,3.32,3.68,3.21,5.36,2.62,4.41,1.3,8.09.48,6.55-.48,9.75-3.21,3.93-3.69,2.14-3.33,2.26-4.64.96-7.85-.24-12.37.47-4.88-.24-8.81.47-5.36-.96-4.4.72-19.27-.72-5.12.48-5.12-.24-9.4.47-4.87-.24-23.92,2.38-5.36,5.36-2.26,22.96.24,7.73,2.26,2.02,5.36.72,4.16-.25,19.75.72,4.87-.72,4.53.25,5.47-.48,7.5.24,6.78-.47,5.12.24,4.64.96,4.87v4.41l-.96,5.11.72,19.75-1.67,24.63-1.79,4.64-2.38,4.17-1.55,4.87-3.1,3.57-2.73,4.4-10.95,9.76-3.93,2.73-4.29,1.9-3.93,2.38-4.87,1.31-5.12,1.9-9.75,2.14-12.26.6-11.66-1.07-4.64-1.19-5.36-.24-3.69-1.9-5.59-1.79-4.64-1.9-3.57-2.97-8.32-4.88-3.21-3.1-6.54-8.09-4.88-8.21-1.43-4.64-.71-4.64-1.43-4.88v-5.12l-.83-7.13.24-17.5-.71-9.75.47-4.64-.24-4.88.47-4.64-.71-5.36.95-4.64-1.19-14.64.72-9.15-.96-10.24Z"/>
      <path class="uuid-5d992245-bf23-4603-91a8-1cb16f4cafbb" d="M2709.32,426.02l.25-24.39,2.38-4.88,5.36-2.5,72.59.47,5.58-.71h4.88l4.88.47h4.87l5.36-.71h4.64l3.81.47,5.95-.47,4.87,2.5,2.39,4.88-.48,19.98.48,5.12-2.39,4.88-5.71,2.14-13.32-.24-4.4.47-4.88-.24-4.16.24-5.36,2.26-1.9,4.28.47,5.36-.71,4.88.96,48.54-.72,10.23.47,4.41-.47,14.87-.71,5.11.71,4.16.24,9.76-.47,5.59.24,4.64-2.01,4.88-4.86,1.9h-15.08l-4.62.47-4.75-.47-4.63.47-5.1-2.38-2.02-5.12-.24-19.03.47-4.88-.71-14.87.24-5.11-.24-4.88.95-7.38-.71-7.02v-9.75l.47-4.88-.47-4.64.71-7.5-.71-26.77-2.38-4.64-4.41-2.73-21.65-.24-6.43.71-4.87-2.38-2.62-5.36Z"/>
    </g>
  </g>
</svg>