<?xml version="1.0" encoding="UTF-8"?>
<svg id="Laag_2" data-name="Laag 2" xmlns="http://www.w3.org/2000/svg" viewBox="0 0 281.06 112.45">
  <defs>
    <style>
      .cls-1, .cls-2 {
        fill: #1d1d1b;
      }

      .cls-2 {
        fill-rule: evenodd;
      }
    </style>
  </defs>
  <g id="Layer_1" data-name="Layer 1">
    <g>
      <path class="cls-1" d="m204.1,2.94c2.96,1.89,4.28,5.46,3.76,9.17l.02.73v45.75c0,6.18-4.21,11.2-9.4,11.2s-9.4-5.01-9.4-11.2v-15.83l-5.83,8.83c-2.38,3.6-6.16,5.64-9.72,5.61-3.56.03-7.34-2-9.72-5.61l-5.83-8.82v15.83c0,6.18-4.21,11.2-9.4,11.2s-9.4-5.01-9.4-11.2V12.84l.02-.73c-.51-3.71.8-7.28,3.76-9.17,1.49-.95,3.2-1.35,4.95-1.27.22-.02.44-.03.67-.03,2.78,0,5.28,1.44,7,3.73.55.57,1.06,1.21,1.51,1.9l16.43,24.87,16.43-24.87c.46-.69.97-1.33,1.51-1.9,1.72-2.29,4.22-3.73,7-3.73.22,0,.45.01.67.03,1.75-.09,3.47.32,4.96,1.27h0Z"/>
      <path class="cls-2" d="m16.5,17.47h9.6c12.18,0,18.38,6.53,18.38,16.21s-6.09,17.01-19.1,17.01h-8.88V17.47h0ZM0,60.5c0,4.91,4.01,7.65,8.32,7.65h19.93c18.08,0,34.11-12.09,34.11-34.11C62.36,16.76,50.03.88,28.25.88H8.32C4.01.88,0,3.62,0,8.54v51.97h0Z"/>
      <path class="cls-2" d="m65.45,35.05C65.45,15.69,81.14,0,100.5,0s35.05,15.69,35.05,35.05-15.69,35.05-35.05,35.05-35.05-15.69-35.05-35.05h0Zm16.69,0c0-10.14,8.22-18.36,18.36-18.36s18.36,8.22,18.36,18.36-8.22,18.36-18.36,18.36-18.36-8.22-18.36-18.36h0Z"/>
      <path class="cls-2" d="m210.95,35.05c0-19.36,15.69-35.05,35.05-35.05s35.05,15.69,35.05,35.05-15.69,35.05-35.05,35.05-35.05-15.69-35.05-35.05h0Zm16.69,0c0-10.14,8.22-18.36,18.36-18.36s18.37,8.22,18.37,18.36-8.22,18.36-18.37,18.36-18.36-8.22-18.36-18.36h0Z"/>
    </g>
    <rect class="cls-1" x="115.36" y="75.33" width="13.41" height="37.12" rx=".28" ry=".28"/>
    <path class="cls-1" d="m193.4,75.33h-33.5c-.16,0-.28.13-.28.28v5.93c0,.16.13.28.28.28h10.04v30.35c0,.16.13.28.28.28h12.84c.16,0,.28-.13.28-.28v-30.35h10.05c.16,0,.28-.13.28-.28v-5.93c0-.16-.13-.28-.28-.28Z"/>
    <path class="cls-1" d="m157.08,112.17l-16.08-23.22,14.88-13.34c.24-.27-.13-.28-.28-.28h-9.6c-.16,0-.3.14-.45.28l-14.87,13.33v4.48l12.99,18.75c.11.16.22.28.38.28h12.75c.25,0,.39-.12.28-.28Z"/>
    <path class="cls-1" d="m269.31,75.33h-19c-5.54,0-10.04,8.3-10.04,18.53s4.5,18.53,10.04,18.53h19c5.54,0,10.04-8.3,10.04-18.53s-4.49-18.53-10.04-18.53Zm-4.69,26.37c0,2.34-1.9,4.24-4.24,4.24h-1.14c-2.34,0-4.23-1.9-4.23-4.24v-15.76c0-2.34,1.9-4.24,4.23-4.24h1.14c2.34,0,4.24,1.9,4.24,4.24v15.76Z"/>
    <path class="cls-1" d="m239.02,112.17l-11.84-17.09c3.99-.03,7.21-4.44,7.21-9.87s-3.25-9.87-7.25-9.87c-.04,0-.08,0-.12,0,0,0-.01,0-.02,0h-29.79c-.16,0-.28.13-.28.28v36.56c0,.16.13.28.28.28h12.84c.16,0,.28-.13.28-.28v-30.35h.67s7.01,0,7.01,0c1.45,0,2.62,1.59,2.62,3.54s-1.18,3.54-2.62,3.54h0s-5.39,0-5.39,0v4.5l12.99,18.75c.11.16.22.28.38.28h12.75c.25,0,.39-.12.28-.28Z"/>
    <g>
      <path class="cls-1" d="m20.53,89.05h16.89c.16,0,.28.13.28.28v5.93c0,.16-.13.28-.28.28h-16.89c-.16,0-.28-.13-.28-.28v-5.93c0-.16.13-.28.28-.28Z"/>
      <path class="cls-1" d="m37.59,81.54v-5.93c0-.16-.13-.28-.28-.28H13.18s0,0,0,0c0,0-.02,0-.03,0-5.54,0-10.04,8.3-10.04,18.53s4.5,18.53,10.04,18.53c0,0,.02,0,.03,0,0,0,0,0,0,0h24.12c.16,0,.28-.13.28-.28v-5.93c0-.16-.13-.28-.28-.28h-14.85v-.02h-.44c-2.34,0-4.23-1.88-4.23-4.2v-15.64c0-2.32,1.9-4.2,4.23-4.2h.71v-.02h14.58c.16,0,.28-.13.28-.28Z"/>
    </g>
    <g>
      <path class="cls-1" d="m94.57,89.05h16.89c.16,0,.28.13.28.28v5.93c0,.16-.13.28-.28.28h-16.89c-.16,0-.28-.13-.28-.28v-5.93c0-.16.13-.28.28-.28Z"/>
      <path class="cls-1" d="m111.62,81.54v-5.93c0-.16-.13-.28-.28-.28h-24.12s0,0,0,0c0,0-.02,0-.03,0-5.54,0-10.04,8.3-10.04,18.53s4.5,18.53,10.04,18.53c0,0,.02,0,.03,0,0,0,0,0,0,0h24.12c.16,0,.28-.13.28-.28v-5.93c0-.16-.13-.28-.28-.28h-14.85v-.02h-.44c-2.34,0-4.23-1.88-4.23-4.2v-15.64c0-2.32,1.9-4.2,4.23-4.2h.71v-.02h14.58c.16,0,.28-.13.28-.28Z"/>
    </g>
    <path class="cls-1" d="m73.31,105.9h-11.63c-.09,0-.18.03-.27.03h-1.14c-.09,0-.18-.02-.27-.03h-.97c.02-.05.04-.11.07-.16-1.76-.51-3.06-2.12-3.06-4.05v-26.37h-14.39c-.16,0-.28.13-.28.28v21.87c0,.13.1.23.22.26.97,8.37,4.99,14.65,9.81,14.65,0,0,.02,0,.03,0,0,0,0,0,0,0h21.87c.16,0,.28-.13.28-.28v-5.93c0-.16-.13-.28-.28-.28Z"/>
  </g>
</svg>