<?xml version="1.0" encoding="UTF-8"?>
<svg id="uuid-960bf252-a1f9-4fc4-a60d-2362e79ee809" data-name="Laag_2" xmlns="http://www.w3.org/2000/svg" viewBox="0 0 283.46 147.75">
  <defs>
    <style>
      .uuid-9aac9e07-897c-45ce-a5d4-0cd8012c22dd {
        fill: #3c3735;
      }

      .uuid-b8f45b6d-a7c6-4ae6-bda2-c6005639f61b {
        fill: #3eaf49;
      }

      .uuid-191c5847-846c-4053-b3a1-b7346ced497b {
        fill: #39b54a;
      }
    </style>
  </defs>
  <g id="uuid-b8620a17-0cd6-4439-8852-35265631ab4a" data-name="Layer_1">
    <g>
      <path class="uuid-9aac9e07-897c-45ce-a5d4-0cd8012c22dd" d="M21.13,75.72v5.36H6.45v8.48h13.84v5.31H6.45v9.72h15.08v5.36H0v-34.22h21.13Z"/>
      <path class="uuid-9aac9e07-897c-45ce-a5d4-0cd8012c22dd" d="M38.04,90.7c-3.92,0-5.26,3.27-5.26,7.29v11.95h-6.35v-24h6.35l-.05,3.62h.15c1.29-2.53,3.72-4.07,7.19-4.07,6.89,0,8.63,4.46,8.63,10.22v14.23h-6.35v-12.84c0-3.57-.64-6.4-4.32-6.4Z"/>
      <path class="uuid-9aac9e07-897c-45ce-a5d4-0cd8012c22dd" d="M66.5,105.63c3.22,0,6.1-1.44,7.24-2.43l2.48,3.42c-1.34,1.39-4.96,3.87-10.81,3.87-7.24,0-12.6-4.41-12.6-12.15s5.6-12.84,12.45-12.84c7.39,0,11.85,4.86,11.85,11.26,0,1.24-.1,3.22-.1,3.22h-17.65c.59,3.82,3.52,5.65,7.14,5.65ZM59.26,95.86h11.51c-.1-2.63-1.09-5.65-5.55-5.65-3.77,0-5.75,2.63-5.95,5.65Z"/>
      <path class="uuid-9aac9e07-897c-45ce-a5d4-0cd8012c22dd" d="M87.63,85.94l-.1,3.87h.15c.94-2.58,3.32-4.31,5.9-4.31,1.64,0,2.53.45,2.53.45l-.45,5.51h-.3c-.69-.2-1.78-.3-2.63-.3-1.88,0-3.32.79-4.22,2.33-.6,1.19-.89,2.83-.89,4.66v11.8h-6.3v-24h6.3Z"/>
      <path class="uuid-9aac9e07-897c-45ce-a5d4-0cd8012c22dd" d="M108.71,109.15c-6.05,0-11.21-3.87-11.21-11.51,0-6.65,4.66-12.15,11.8-12.15,3.22,0,5.95,1.19,7.64,3.77h.1l-.05-3.32h6.3v19.04c0,5.26-1.09,8.23-3.12,10.37-2.08,2.18-5.16,4.22-10.91,4.22s-9.97-2.73-11.16-3.57l2.63-4.41c1.54,1.09,5.45,2.83,8.53,2.83,3.42,0,5.21-1.09,6.1-2.13.89-1.04,1.64-3.03,1.64-5.7v-1.19h-.1c-1.64,2.48-4.51,3.77-8.18,3.77ZM110.59,90.5c-4.17,0-6.65,3.07-6.65,6.99,0,3.67,2.38,6.69,6.55,6.69,4.56,0,6.84-3.03,6.84-6.69,0-3.47-2.58-6.99-6.74-6.99Z"/>
      <path class="uuid-9aac9e07-897c-45ce-a5d4-0cd8012c22dd" d="M132.76,85.94l6.35,17.01,6.25-17.01h6.6l-11.16,27.23c-1.74,4.22-3.72,6.25-7.09,6.25s-5.65-.99-5.65-.99l1.29-4.86s1.69.59,2.88.59,2.28-.35,2.78-1.59l1.04-2.48-9.92-24.15h6.65Z"/>
      <path class="uuid-9aac9e07-897c-45ce-a5d4-0cd8012c22dd" d="M158.49,75.72l8.83,25.44,8.83-25.44h6.55l-12.65,34.27h-5.75l-12.65-34.27h6.84Z"/>
      <path class="uuid-9aac9e07-897c-45ce-a5d4-0cd8012c22dd" d="M185.22,78.6c0-2.03,1.59-3.52,3.82-3.52s3.82,1.49,3.82,3.52-1.59,3.52-3.82,3.52-3.82-1.44-3.82-3.52ZM192.22,85.94v24h-6.35v-24h6.35Z"/>
      <path class="uuid-9aac9e07-897c-45ce-a5d4-0cd8012c22dd" d="M206.5,90.26c-2.08,0-3.12.79-3.12,1.93,0,1.04.79,1.88,3.47,2.73l1.69.54c5.31,1.74,7.19,3.62,7.19,7.09,0,4.56-3.62,7.93-9.52,7.93-3.67,0-7.79-1.49-9.72-3.72l2.58-4.31c2.83,2.18,5.26,3.27,7.29,3.27,2.38,0,3.47-.89,3.47-2.28,0-1.24-.94-1.93-4.02-2.98l-2.78-.94c-3.57-1.19-5.41-3.32-5.41-6.84,0-4.37,3.97-7.19,8.58-7.19,4.26,0,6.64,1.14,8.63,2.58l-2.73,4.22c-1.39-1.04-3.42-2.03-5.6-2.03Z"/>
      <path class="uuid-9aac9e07-897c-45ce-a5d4-0cd8012c22dd" d="M219.24,78.6c0-2.03,1.59-3.52,3.82-3.52s3.82,1.49,3.82,3.52-1.59,3.52-3.82,3.52-3.82-1.44-3.82-3.52ZM226.24,85.94v24h-6.35v-24h6.35Z"/>
      <path class="uuid-9aac9e07-897c-45ce-a5d4-0cd8012c22dd" d="M230.8,98.04c0-7.59,5.65-12.55,13.04-12.55s12.99,4.96,12.99,12.55-5.65,12.45-12.99,12.45-13.04-4.86-13.04-12.45ZM243.84,90.6c-4.17,0-6.45,3.17-6.45,7.29s2.28,7.34,6.45,7.34,6.45-3.22,6.45-7.34-2.38-7.29-6.45-7.29Z"/>
      <path class="uuid-9aac9e07-897c-45ce-a5d4-0cd8012c22dd" d="M272.8,90.7c-3.92,0-5.26,3.27-5.26,7.29v11.95h-6.35v-24h6.35l-.05,3.62h.15c1.29-2.53,3.72-4.07,7.19-4.07,6.89,0,8.63,4.46,8.63,10.22v14.23h-6.35v-12.84c0-3.57-.64-6.4-4.31-6.4Z"/>
    </g>
    <g>
      <path class="uuid-191c5847-846c-4053-b3a1-b7346ced497b" d="M62.22,143.98c-2.77,0-4.63-1.9-4.63-4.93,0-2.67,1.82-4.85,4.63-4.85,2.59,0,4.37,1.87,4.37,4.45,0,.34-.06.78-.06.78h-7.42c.02,1.94,1.36,3.31,3.37,3.31,1.84,0,3.17-1.18,3.17-1.18l.64.88c-.86,1.02-2.22,1.54-4.07,1.54ZM62.16,135.44c-1.88-.02-2.91,1.4-3.03,2.87h5.95c0-1.32-.86-2.85-2.93-2.87Z"/>
      <path class="uuid-191c5847-846c-4053-b3a1-b7346ced497b" d="M76.45,138.08v5.69h-1.48v-5.59c0-1.74-.56-2.71-2.3-2.71s-2.53,1.38-2.53,3.01v5.29h-1.48v-9.4h1.48v1.52h.06c.42-1,1.58-1.7,2.93-1.7,2.69,0,3.33,1.64,3.33,3.89Z"/>
      <path class="uuid-191c5847-846c-4053-b3a1-b7346ced497b" d="M83.16,143.98c-2.77,0-4.63-1.9-4.63-4.93,0-2.67,1.82-4.85,4.63-4.85,2.59,0,4.37,1.87,4.37,4.45,0,.34-.06.78-.06.78h-7.42c.02,1.94,1.36,3.31,3.37,3.31,1.84,0,3.17-1.18,3.17-1.18l.64.88c-.86,1.02-2.23,1.54-4.07,1.54ZM83.1,135.44c-1.88-.02-2.91,1.4-3.03,2.87h5.95c0-1.32-.86-2.85-2.93-2.87Z"/>
      <path class="uuid-191c5847-846c-4053-b3a1-b7346ced497b" d="M89.59,134.37h1.48v1.6c.44-1.14,1.34-1.78,2.39-1.78.62,0,1,.16,1,.16l-.1,1.4h-.06c-.32-.14-.74-.18-1.02-.18-.86,0-1.42.6-1.58.82-.38.54-.62,1.08-.62,2.51v4.87h-1.48v-9.4Z"/>
      <path class="uuid-191c5847-846c-4053-b3a1-b7346ced497b" d="M103.14,141.93c-.68,1.12-1.82,1.78-3.43,1.78-2.49,0-4.53-1.62-4.53-4.75,0-2.95,2.04-4.77,4.49-4.77,1.72,0,2.91.82,3.49,1.8h.04l-.02-1.62h1.48v7.4c0,2.1-.3,3.23-.9,4.05-.6.84-1.74,1.92-4.13,1.92s-3.93-1.32-4.07-1.42l.74-1.06c.62.48,1.94,1.22,3.41,1.22,2.59,0,3.47-1.68,3.47-4.03v-.52h-.04ZM103.24,138.94c0-2.15-1.28-3.49-3.31-3.49-2.12,0-3.23,1.54-3.23,3.49s1.14,3.53,3.27,3.53,3.27-1.56,3.27-3.53Z"/>
      <path class="uuid-191c5847-846c-4053-b3a1-b7346ced497b" d="M106.15,134.35l1.54.02,3.05,7.74,2.99-7.76,1.54.02-4.59,11.11c-.72,1.72-1.36,2.19-2.37,2.19-.84,0-1.46-.32-1.46-.32l.3-1.26s.52.22.94.22c.48,0,.82-.02,1.36-1.3l.52-1.22-3.83-9.42Z"/>
      <path class="uuid-191c5847-846c-4053-b3a1-b7346ced497b" d="M130.62,134.19c2.75,0,3.27,1.94,3.27,3.91v5.67h-1.48v-5.59c0-1.14-.3-2.71-1.98-2.71-1.54,0-2.41,1.5-2.41,3.35v4.95h-1.48v-5.59c0-1.14-.3-2.71-1.98-2.71-1.54,0-2.43,1.5-2.43,3.35v4.95h-1.48v-9.4h1.48l-.02,1.5h.06c.46-.96,1.44-1.68,2.59-1.68,1.84,0,2.69.86,3.03,2.02.4-1.16,1.52-2.02,2.85-2.02Z"/>
      <path class="uuid-191c5847-846c-4053-b3a1-b7346ced497b" d="M142.02,142.53c-.36.4-1.3,1.44-3.09,1.44s-3.23-1.14-3.23-2.87c0-1.6,1.18-2.73,3.75-2.85l2.55-.12v-.42c0-1.58-1.06-2.29-2.49-2.29s-2.53.56-2.79.74l-.5-1.06c.62-.36,1.86-.92,3.35-.92,2.75,0,3.93,1.42,3.93,4.07v5.51h-1.46l-.02-1.24ZM139.58,139.35c-1.74.08-2.33.78-2.33,1.74s.78,1.7,1.98,1.7c1.28,0,2.35-.74,2.79-1.34v-2.23l-2.45.12Z"/>
      <path class="uuid-191c5847-846c-4053-b3a1-b7346ced497b" d="M153.51,142.15h-.02c-.68,1.12-1.94,1.82-3.53,1.82-2.87,0-4.49-2.06-4.49-4.89s1.8-4.89,4.57-4.89c1.44,0,2.71.66,3.39,1.78h.04v-6.03h1.48v13.83h-1.44v-1.62ZM153.51,139.05c0-2.05-1.16-3.59-3.25-3.59s-3.27,1.52-3.27,3.57,1.2,3.67,3.27,3.67,3.25-1.62,3.25-3.65Z"/>
      <path class="uuid-191c5847-846c-4053-b3a1-b7346ced497b" d="M161.84,143.98c-2.77,0-4.63-1.9-4.63-4.93,0-2.67,1.82-4.85,4.63-4.85,2.59,0,4.37,1.87,4.37,4.45,0,.34-.06.78-.06.78h-7.42c.02,1.94,1.36,3.31,3.37,3.31,1.84,0,3.17-1.18,3.17-1.18l.64.88c-.86,1.02-2.22,1.54-4.07,1.54ZM161.78,135.44c-1.88-.02-2.91,1.4-3.03,2.87h5.95c0-1.32-.86-2.85-2.93-2.87Z"/>
      <path class="uuid-191c5847-846c-4053-b3a1-b7346ced497b" d="M174.89,142.79c1.02,0,2-.44,2-1.56s-1.58-1.5-2.31-1.74c-.68-.22-2.69-.68-2.69-2.67,0-1.72,1.5-2.63,3.03-2.63s2.43.5,3.09,1.1l-.72.9c-.66-.56-1.52-.86-2.37-.86-.98,0-1.66.46-1.66,1.34s.96,1.26,2.01,1.6c.94.32,3.03.8,3.03,2.83,0,1.8-1.5,2.87-3.45,2.87-1.54,0-2.79-.66-3.49-1.66l.78-.94c.9,1.02,1.84,1.42,2.75,1.42Z"/>
      <path class="uuid-191c5847-846c-4053-b3a1-b7346ced497b" d="M181.16,132.17c-.62,0-1.06-.44-1.06-1.02s.44-1.02,1.06-1.02,1.04.44,1.04,1.02c-.02.58-.44,1.02-1.04,1.02ZM180.42,134.37h1.48v9.4h-1.48v-9.4Z"/>
      <path class="uuid-191c5847-846c-4053-b3a1-b7346ced497b" d="M194.79,134.19c2.75,0,3.27,1.94,3.27,3.91v5.67h-1.48v-5.59c0-1.14-.3-2.71-1.98-2.71-1.54,0-2.41,1.5-2.41,3.35v4.95h-1.48v-5.59c0-1.14-.3-2.71-1.98-2.71-1.54,0-2.43,1.5-2.43,3.35v4.95h-1.48v-9.4h1.48l-.02,1.5h.06c.46-.96,1.44-1.68,2.59-1.68,1.84,0,2.69.86,3.03,2.02.4-1.16,1.52-2.02,2.85-2.02Z"/>
      <path class="uuid-191c5847-846c-4053-b3a1-b7346ced497b" d="M200.86,134.35h1.48v1.66h.02c.52-.88,1.76-1.83,3.43-1.83,2.89,0,4.57,2.09,4.57,4.87s-1.9,4.91-4.53,4.91c-1.38,0-2.75-.54-3.47-1.8l-.02-.02v5.39h-1.48v-13.19ZM208.82,139.06c0-2.04-1.18-3.63-3.27-3.63-1.88,0-3.27,1.58-3.27,3.63s1.12,3.61,3.23,3.61,3.31-1.58,3.31-3.61Z"/>
      <path class="uuid-191c5847-846c-4053-b3a1-b7346ced497b" d="M212.59,129.94h1.48v13.83h-1.48v-13.83Z"/>
      <path class="uuid-191c5847-846c-4053-b3a1-b7346ced497b" d="M220.94,143.98c-2.77,0-4.63-1.9-4.63-4.93,0-2.67,1.82-4.85,4.63-4.85,2.59,0,4.37,1.87,4.37,4.45,0,.34-.06.78-.06.78h-7.42c.02,1.94,1.36,3.31,3.37,3.31,1.84,0,3.17-1.18,3.17-1.18l.64.88c-.86,1.02-2.22,1.54-4.07,1.54ZM220.88,135.44c-1.88-.02-2.91,1.4-3.03,2.87h5.95c0-1.32-.86-2.85-2.93-2.87Z"/>
    </g>
    <g>
      <path class="uuid-b8f45b6d-a7c6-4ae6-bda2-c6005639f61b" d="M133.17,20.15l9.65,9.65h.01s.16.15.16.15c.15.17.48.5,1.36,1.38l8.41,8.41c2.19,2.19,5.11,3.4,8.22,3.4s6.02-1.21,8.22-3.4l.1-.1.06-.06c2.1-2.17,3.26-5.03,3.26-8.06s-1.18-5.95-3.33-8.14l-.08-.09c-2.19-2.2-5.11-3.41-8.22-3.41s-6.02,1.21-8.22,3.4l-4.31,4.31c-.42.42-.98.65-1.57.65s-1.15-.23-1.57-.65c-.42-.42-.65-.98-.65-1.57s.23-1.15.65-1.57l4.3-4.31c3.03-3.03,7.07-4.71,11.36-4.71,3.27,0,6.38.97,9.02,2.77-5.02-10.75-15.92-18.21-28.57-18.21s-23.5,7.42-28.53,18.13c2.62-1.75,5.7-2.69,8.91-2.69,4.29,0,8.33,1.67,11.36,4.71Z"/>
      <path class="uuid-b8f45b6d-a7c6-4ae6-bda2-c6005639f61b" d="M149.62,42.88s-15.81-15.81-19.59-19.6c-2.19-2.2-5.11-3.4-8.22-3.4s-6.02,1.21-8.22,3.4l-.09.09c-4.4,4.49-4.4,11.79,0,16.28l.08.09c2.19,2.19,5.11,3.4,8.22,3.4s6.02-1.21,8.22-3.4l4.39-4.52c.42-.42.98-.65,1.57-.65s1.15.23,1.57.65c.42.42.65.98.65,1.57s-.23,1.15-.65,1.57l-4.39,4.52c-3.04,3.04-7.07,4.71-11.36,4.71-3.22,0-6.3-.94-8.91-2.69,5.03,10.71,15.91,18.13,28.53,18.13s23.55-7.46,28.57-18.21c-2.64,1.8-5.76,2.77-9.02,2.77-4.29,0-8.33-1.67-11.36-4.71Z"/>
    </g>
  </g>
</svg>