<?xml version="1.0" encoding="UTF-8"?>
<svg id="uuid-a2a64ab7-995b-468e-b593-4581c3718d8c" data-name="Laag 2" xmlns="http://www.w3.org/2000/svg" viewBox="0 0 3401.57 543.14">
  <defs>
    <style>
      .uuid-ce0d115e-a9fa-47a7-9e9b-a6aaf2b7d5e9 {
        fill: #4e0c69;
      }
    </style>
  </defs>
  <g id="uuid-73833b7c-8024-416c-81dc-88d55bcaa01e" data-name="Laag 1">
    <g>
      <g>
        <path d="M0,462.72l.46-5.46-.26-5.07,1.43-2.8,2.8-1.11,2.67.13,2.67-.26,2.41.26,2.54-.52,2.67.39,10.92-.26,2.67.26,2.21-.13,2.67.26,2.93-.26,10.79-.13,2.41.59h2.8l2.67,1.04,1.24,2.54.26,8-.13,2.67.13,2.67-1.37,2.41-2.8,1.56-2.54.13-19.05-.26-2.54.52-2.47-.13-2.93,1.09-1.24,2.46v4.14l1.04,4.07,2.8,1.24,7.74-.26,5.59.39,2.8-.26h7.87l3.06,1.69,1.37,3.79-.39,11.99-.98,2.68-2.67,1.04-3.06-.13-2.67.33-5.46-.2-5.07.33-4.23-.46-4.03.13-2.34,1.48-1.24,2.77v8.32l1.11,2.38,2.8,1.29,2.93-.26,2.54.39,2.93-.13,2.67.26,4.36-.52,6.83.13,2.47.39,3.12-.26,2.8,1.25,1.43,2.68v13.54l-1.43,2.81-2.8,1.18-19.05.26-2.67-.26-2.67.26-3.06-.13-2.54-.52-5.46.39-2.41-.13-2.93.26-9.62-.13-3.97-1.77-1.04-3.58-.26-2.93.39-9.17-.39-2.67.26-2.54.13-21.58-.39-2.39.13-10.92.26-2.54-.39-2.8.26-13-.46-2.93ZM20.02,435.41l.78-2.67.78-1.5.39-1.56.98-1.63.39-1.56.91-1.37,5.33-11.96,2.15-.98,9.3,3.51,1.5.13,6.24,2.15,1.63,1.56-.98,2.54-1.04.78-8.65,9.75-.85,1.3-1.3,1.24-2.8.91-3.45.26-1.24.13-2.8-.39-2.41.26h-1.56l-3.32-.91Z"/>
        <path d="M76.26,529.68l.72-2.67-.39-8.39.39-5.33-.39-2.54v-5.59l.26-2.54-.39-3.97.52-3.64-.39-5.46.26-2.93-.26-2.41.26-2.67v-13.52l-.39-2.8v-2.54l.39-2.41v-5.46l.26-2.8,1.29-2.54,3.62-1.24,39.81.13,2.41.59,2.67,1.04,2.8.52,4.75,2.54,4.04,2.67,2.28,2.02,1.43,2.02,1.76,1.82,1.69,2.28,2.67,4.81,2.41,10.4-.13,7.8-.26,2.41-1.17,5.46-.99,2.41-1.17,2.41-4.3,6.37-3.98,3.9-2.15,1.56-4.5,2.8-7.76,2.28-5.48,1.04-6.97.13-3.98-.39-2.94.39-3.59,1.37-.98,2.28v2.8l.26,2.93-.39,2.41.26,2.54-.13,5.33-1.16,2.8-2.65,1.43h-2.78l-2.9-.26-7.82.13-2.65-.26-2.77-1.04-1.04-2.8-.13-2.54.39-2.54-.59-2.54ZM100.25,473.64l.26,18.46,1.63,2.67,2.54,1.24,3.06.26,10.92-.72,2.15-1.17,2.08-1.43,3.06-3.77,1.5-6.11-1.17-6.24-1.37-2.28-2.15-2.02-1.95-1.43-2.28-1.24-10.66-.52-3.32.26-2.67,1.11-1.63,2.93Z"/>
        <path d="M163.83,516.21l.46-5.46-.46-2.93.2-5.07.26-2.8v-6.63l-.46-3.91.46-37.25,1.04-2.78,2.55-1.22,2.94.13,2.54-.39,5.48.52,2.54-.39,8.02.26,2.21-.26,2.93.26,2.67-.26,2.99.13,3.84-.13,3.32.26,11.05,2.26,4.68,2.38,6.63,5.04,1.24,2,1.82,1.94,3.64,7.34.65,2.65.39,2.54.65,2.52-.13,10.55-1.43,5.02-.98,2.28-1.43,2.42-.98,2.54-1.56,2.29-3.77,3.58-1.43,2.81.39,3.19,4.03,6.97,1.69,2.16,1.37,2.34,1.56,2.41,1.24,2.29,4.23,6.51,1.76,3.38-.52,2.81-2.8.65-2.93.26h-5.33l-2.67-.26-2.93.26-4.81-.26-3.32-.78-2.67-2.42-1.63-2.15-1.17-2.28-1.76-2.55-3.71-6.64-.98-2.54-3.45-4.69-2.15-2.28-3.32-1.05-2.41.13h-2.41l-2.6,1.38-1.24,2.67.26,8.27-.39,5.73.52,2.81-.26,2.8-.91,2.55-4.17,1.3h-3.98l-2.81-.26-5.47.39-2.55-.13-2.68-1.3-.91-2.99-.39-10.35.26-2.8-.59-7.74ZM187.75,473.39l.39,14.91,1.37,2.81,2.21,1.17h2.99l2.67.39,10.34-.91,2.02-.91,1.63-1.64,1.43-2.28,1.04-2.67.46-3.59-.26-3.85-.98-2.15-1.3-2.02-4.16-2.55-6.11-.78-7.35-.13-2.08.13-2.67,1.37-1.63,2.68Z"/>
        <path d="M256.08,537.55l.59-2.67.13-2.65-.26-5.2v-2.65l-.26-3.06.39-2.41-.13-2.54.26-2.91-.39-2.8.26-5.32-.39-5.2.39-2.78v-23.77l-.26-2.39.26-2.8-.59-6.82.59-3.84-.26-5.32,1.3-2.91,3.84-.96,17.49-.39,2.41.26,5.14-.13,2.67.26,5.92-.26,2.6.46,2.41-.33,10.66.13,2.8,1.22,1.37,2.65-.39,2.51-.2,2.91.46,2.51.26,5.43-1.5,2.39-2.8,1.42-25.55.13-4.16,1.24-1.3,3.84.26,4.1,1.63,2.41,2.21,1.5,10.53-.13,3.06.26h2.8l2.67-.26,5.33.13,2.28,1.43,1.24,2.54.26,2.67-.26,10.53-1.37,2.54-2.67,1.5-2.41.13-2.8-.33-3.58.33-7.09-.46-2.67.33h-5.14l-2.41,1.43-1.24,2.8-.13,6.5,1.24,4.16,2.8,1.56,2.93-.26,2.93.26,2.54-.39,17.55.26,3.97,1.37,1.76,2.67-.26,2.54.13,8.26-.26,2.54-1.24,2.54-2.8,1.3-2.47.26-8.13-.52-8.13.39-2.41-.39-30.1.26-2.54-1.43-1.76-2.54Z"/>
        <path d="M331.56,462.59l.65-2.28v-8l1.24-2.67,2.67-1.5,13.98.13,3.19,1.24,1.5,2.54v2.8l-.72,3.97v2.54l.39,3.9v10.6l-.26,2.41.13,8.26.46,2.67.26,23.47.78,2.8,1.56,1.82,2.02,1.76,2.93,1.43,2.41.72,4.42.26,3.58-.26,5.33-1.76,2.15-2.02,1.17-1.82,1.24-2.54.52-4.29-.13-6.76.26-2.67-.13-4.81.26-2.93-.52-2.41.39-10.53-.39-2.8.26-2.8-.13-5.14.26-2.67-.13-13.07,1.3-2.93,2.93-1.24,12.55.13,4.23,1.24,1.11,2.93.39,2.28-.13,10.79.39,2.67-.39,2.47.13,2.99-.26,4.1.13,3.71-.26,2.8.13,2.54.52,2.67v2.41l-.52,2.8.39,10.79-.91,13.46-.98,2.54-1.3,2.28-.85,2.67-1.69,1.95-1.5,2.41-5.98,5.33-2.15,1.5-2.34,1.04-2.15,1.3-2.67.72-2.8,1.04-5.33,1.17-6.7.33-6.37-.59-2.54-.65-2.93-.13-2.02-1.04-3.06-.98-2.54-1.04-1.95-1.63-4.55-2.67-1.76-1.69-3.58-4.42-2.67-4.49-.78-2.54-.39-2.54-.78-2.67v-2.8l-.46-3.9.13-9.56-.39-5.33.26-2.54-.13-2.67.26-2.54-.39-2.93.52-2.54-.65-8,.39-5.01-.52-5.59Z"/>
        <path d="M414.64,452.32l.26-2.93,2.8-1.24,2.8-.13,2.41.26,2.28-.26,7.41.39,3.12,1.11,2.21,2.67,1.24,2.15.91,2.34,1.37,2.54.39,2.54,4.62,9.62.59,2.67.91,2.41,1.17,2.08,1.63,5.33,1.5,2.41.91,2.15.78,2.67,1.11,2.41,1.69,5.07,1.11,2.34,1.56-.26,1.63-2.41.65-2.34,1.3-2.54,15.86-39.01.65-2.41,2.41-2.54,3.06-1.11h15.73l2.28.85.78,3.32-1.3,3.19-.59,2.28-1.3,2.54-.91,2.67-1.5,2.28-.65,2.34-2.02,5.2-1.69,2.02-.72,2.54-1.82,2.41-.72,2.54-.65,2.28-1.43,2.67-1.5,5.01-2.8,4.81-1.63,5.2-7.93,17.03-.85,2.41-2.08,4.81-1.37,2.21-1.17,2.54-2.28,5.2-.78,2.54-2.28,2.15-3.64,1.63-2.67-.33-3.19-1.17-2.08-2.41-3.64-7.35-.65-2.8-1.3-1.95-3.51-7.74-.78-2.54-2.28-4.81-.65-2.21-8.78-19.89-1.37-2.08-3.97-9.75-1.37-2.41-2.08-5.2-1.5-2.54-.78-2.34-1.24-2.41-1.95-5.07-1.24-2.41-.52-3.19Z"/>
        <path d="M513.91,537.55l.59-2.67.13-2.65-.26-5.2v-2.65l-.26-3.06.39-2.41-.13-2.54.26-2.91-.39-2.8.26-5.32-.39-5.2.39-2.78v-23.77l-.26-2.39.26-2.8-.59-6.82.59-3.84-.26-5.32,1.3-2.91,3.84-.96,17.49-.39,2.41.26,5.14-.13,2.67.26,5.92-.26,2.6.46,2.41-.33,10.66.13,2.8,1.22,1.37,2.65-.39,2.51-.2,2.91.46,2.51.26,5.43-1.5,2.39-2.8,1.42-25.55.13-4.16,1.24-1.3,3.84.26,4.1,1.63,2.41,2.21,1.5,10.53-.13,3.06.26h2.8l2.67-.26,5.33.13,2.28,1.43,1.24,2.54.26,2.67-.26,10.53-1.37,2.54-2.67,1.5-2.41.13-2.8-.33-3.58.33-7.09-.46-2.67.33h-5.14l-2.41,1.43-1.24,2.8-.13,6.5,1.24,4.16,2.8,1.56,2.93-.26,2.93.26,2.54-.39,17.55.26,3.97,1.37,1.76,2.67-.26,2.54.13,8.26-.26,2.54-1.24,2.54-2.8,1.3-2.47.26-8.13-.52-8.13.39-2.41-.39-30.1.26-2.54-1.43-1.76-2.54Z"/>
        <path d="M626.45,476.31l.39-2.67-.39-2.67.39-2.93-.26-5.07.13-2.67-.26-2.67v-5.46l1.94-2.54,2.39-1.5,2.78.13,2.38-.13,2.65.26,8.52-.26,2.67.26,18.92.2,5.46,1.04,7.28,2.41,2.67,1.3,4.94,3.06,3.71,3.64,2.28,1.69,3.51,4.16,1.04,2.28,3.06,4.49,2.02,5.33.65,2.41.26,2.8,2.02,7.61-.52,8.52.13,2.28-.72,2.8-.39,2.8-.91,2.41-.52,2.6-1.37,2.54-.65,2.54-4.1,6.7-5.33,6.11-11.31,7.61-7.74,2.41-8.52,1.17-23.99.13-2.8.39h-2.65l-2.77-.39h-3.04l-2.13-1.17-1.55-2.93.26-5.07-.39-10.66.26-2.67-.26-10.66.39-5.2-.39-2.8.39-2.54-.39-5.72.39-5.07-.52-10.6ZM650.11,510.76l.52,2.41-.26,2.67,1.24,2.93,3.19,1.17,11.05-.52,4.75-1.3,2.67-1.37,2.15-1.3,1.63-2.15,1.69-1.89,1.76-2.41,2.02-4.75.78-2.54.65-6.57-.39-4.1-1.56-7.87-1.76-2.15-1.5-2.54-3.32-3.71-4.49-2.93-5.33-1.63-4.03-.26-2.8.13-2.8-.13-3.84,1.5-1.63,2.41v34.2l-.39,2.67Z"/>
        <path d="M722.99,537.55l.59-2.67.13-2.65-.26-5.2v-2.65l-.26-3.06.39-2.41-.13-2.54.26-2.91-.39-2.8.26-5.32-.39-5.2.39-2.78v-23.77l-.26-2.39.26-2.8-.59-6.82.59-3.84-.26-5.32,1.3-2.91,3.84-.96,17.49-.39,2.41.26,5.14-.13,2.67.26,5.92-.26,2.6.46,2.41-.33,10.66.13,2.8,1.22,1.37,2.65-.39,2.51-.2,2.91.46,2.51.26,5.43-1.5,2.39-2.8,1.42-25.55.13-4.16,1.24-1.3,3.84.26,4.1,1.63,2.41,2.21,1.5,10.53-.13,3.06.26h2.8l2.67-.26,5.33.13,2.28,1.43,1.24,2.54.26,2.67-.26,10.53-1.37,2.54-2.67,1.5-2.41.13-2.8-.33-3.58.33-7.09-.46-2.67.33h-5.14l-2.41,1.43-1.24,2.8-.13,6.5,1.24,4.16,2.8,1.56,2.93-.26,2.93.26,2.54-.39,17.55.26,3.97,1.37,1.76,2.67-.26,2.54.13,8.26-.26,2.54-1.24,2.54-2.8,1.3-2.47.26-8.13-.52-8.13.39-2.41-.39-30.1.26-2.54-1.43-1.76-2.54Z"/>
        <path d="M831.36,516.22l.91-2.8,2.67-1.24,2.67.2,2.67-.33,10.14.33,2.67,1.04,2.02,2.67,1.95,1.89,2.41,1.43,2.02.91,3.06.85,3.97.26,3.77-.13,4.94-1.5,2.08-1.17,2.15-1.89.78-3.45-.65-3.45-1.89-1.63-4.75-2.02-2.67-.13-2.41-.39-10.92-.78-4.81-1.11-7.61-2.47-4.62-2.8-3.77-3.51-3.32-4.36-1.69-4.68-.98-3.71-.13-8.97,1.89-7.67,1.3-2.15.98-2.41,1.69-1.76,1.5-2.21,2.41-1.63,1.82-1.76,2.67-1.56,2.15-.78,2.15-1.37,2.41-.91,10.53-2.15,7.41-.13,2.93.65,2.41.26,2.8.52,7.35,2.54,8.52,5.85,1.76,2.02,1.3,2.15,1.76,2.15,2.08,4.75,1.11,5.2-1.24,2.54-2.54,1.63-2.47-.26-2.41.26-8.78-.26-4.16-1.37-4.42-4.62-1.95-1.63-2.93-1.04-8.52.26-2.41.52-1.89.78-2.28,1.76-1.43,1.82-.39,3.51.13,3.58,2.08,2.15,2.02,1.04,5.59,2.02,13.46,1.76,10.92,2.6,7.02,3.25,2.28,1.82,3.19,4.16,2.67,4.94.72,2.47.39,2.67-.13,8.26-.39,2.41-.85,2.67-1.04,2.41-2.67,4.29-3.71,4.23-4.29,2.93-6.89,3.77-13.07,2.47-4.29.2-3.84-.46-5.59-.39-2.54-.91-2.93-.39-9.62-4.42-2.21-1.43-3.9-3.9-3.32-4.1-2.15-5.33-.52-2.41-.26-2.93Z"/>
        <path d="M920.23,537.55l.59-2.67.13-2.65-.26-5.2v-2.65l-.26-3.06.39-2.41-.13-2.54.26-2.91-.39-2.8.26-5.32-.39-5.2.39-2.78v-23.77l-.26-2.39.26-2.8-.59-6.82.59-3.84-.26-5.32,1.3-2.91,3.84-.96,17.49-.39,2.41.26,5.14-.13,2.67.26,5.92-.26,2.6.46,2.41-.33,10.66.13,2.8,1.22,1.37,2.65-.39,2.51-.2,2.91.46,2.51.26,5.43-1.5,2.39-2.8,1.42-25.55.13-4.16,1.24-1.3,3.84.26,4.1,1.63,2.41,2.21,1.5,10.53-.13,3.06.26h2.8l2.67-.26,5.33.13,2.28,1.43,1.24,2.54.26,2.67-.26,10.53-1.37,2.54-2.67,1.5-2.41.13-2.8-.33-3.58.33-7.09-.46-2.67.33h-5.14l-2.41,1.43-1.24,2.8-.13,6.5,1.24,4.16,2.8,1.56,2.93-.26,2.93.26,2.54-.39,17.55.26,3.97,1.37,1.76,2.67-.26,2.54.13,8.26-.26,2.54-1.24,2.54-2.8,1.3-2.47.26-8.13-.52-8.13.39-2.41-.39-30.1.26-2.54-1.43-1.76-2.54ZM940.26,435.41l.78-2.67.78-1.5.39-1.56.98-1.63.39-1.56.91-1.37,5.33-11.96,2.15-.98,9.3,3.51,1.5.13,6.24,2.15,1.63,1.56-.98,2.54-1.04.78-8.65,9.75-.85,1.3-1.3,1.24-2.8.91-3.45.26-1.24.13-2.8-.39-2.41.26h-1.56l-3.32-.91Z"/>
        <path d="M996.49,453.37l1.76-3.59,3.84-1.5,13.85-.26,3.51,1.63,1.3,3.98.26,6.58-.26,2.94.39,20.77-.39,2.8.39,2.94-.39,3.78.13,6.64-.26,2.8.26,2.68-.13,2.93.39,2.54-.13,4.95.85,2.94,2.8,1.17,23.4.26,2.93-.39,2.15,1.35,1.69,2.91-.39,2.51.39,2.91-.26,2.38-.13,2.65.26,2.9-1.43,2.33-3.71,1.35-47.13.26-4.29-1.61-1.17-2.33-.26-2.77.52-2.52-.26-2.67.13-16.25-.26-2.41-.13-5.33.39-2.67-.39-5.33.39-2.52-.39-5.72.39-2.54-.26-2.67.39-2.41-.39-2.81.26-2.6-.13-2.55.39-2.93-.26-2.55-.39-2.67.39-2.81.26-2.54-.85-6.97Z"/>
        <path d="M1068.07,537.55l.59-2.67.13-2.65-.26-5.2v-2.65l-.26-3.06.39-2.41-.13-2.54.26-2.91-.39-2.8.26-5.32-.39-5.2.39-2.78v-23.77l-.26-2.39.26-2.8-.59-6.82.59-3.84-.26-5.32,1.3-2.91,3.84-.96,17.49-.39,2.41.26,5.14-.13,2.67.26,5.92-.26,2.6.46,2.41-.33,10.66.13,2.8,1.22,1.37,2.65-.39,2.51-.2,2.91.46,2.51.26,5.43-1.5,2.39-2.8,1.42-25.55.13-4.16,1.24-1.3,3.84.26,4.1,1.63,2.41,2.21,1.5,10.53-.13,3.06.26h2.8l2.67-.26,5.33.13,2.28,1.43,1.24,2.54.26,2.67-.26,10.53-1.37,2.54-2.67,1.5-2.41.13-2.8-.33-3.58.33-7.09-.46-2.67.33h-5.14l-2.41,1.43-1.24,2.8-.13,6.5,1.24,4.16,2.8,1.56,2.93-.26,2.93.26,2.54-.39,17.55.26,3.97,1.37,1.76,2.67-.26,2.54.13,8.26-.26,2.54-1.24,2.54-2.8,1.3-2.47.26-8.13-.52-8.13.39-2.41-.39-30.1.26-2.54-1.43-1.76-2.54Z"/>
        <path d="M1138.54,494.68l2.41-16.66,6.11-11.94,1.56-2.26,3.64-3.32,1.56-2.13,9.36-5.95,2.34-.9,2.02-1.24,2.54-.9,5.2-1.11,2.54-.77,2.28-.26h12.09l6.63.91,5.2,1.48,7.61,3.43,2.93,2,6.96,6.22,4.88,6.8,2.15,4.98.39,2.39,1.11,2.67-.85,2.86-2.08,1.27-2.67.27-13.46-.26-2.93-1.25-2.41-2.57-1.24-2.22-1.95-2.17-3.9-3.22-2.8-.99-5.01-.92-8.26-.26-4.68,1.3-2.54,1.11-4.42,3.2-3.32,4.11-2.28,4.81-.78,2.42-.13,2.67-.91,2.42-.13,4.23.39,6.32,1.56,5.15,1.11,2.28,4.94,6.46,1.69,1.82,2.54,1.24,7.22,2.67,7.41.13,2.8-.26,2.67-.85,4.55-2.28,5.07-5.47,1.04-2.21,2.67-2.55,2.93-1.37,14.24.13,3.38,1.5.78,2.42-.39,2.54-.98,2.68-.65,2.54-1.17,2.34-4.03,6.97-2.28,1.7-1.43,2.28-1.76,1.76-2.28,1.64-2.34,1.43-2.02,1.37-7.35,3.2-12.87,2.67-8-.46h-2.54l-2.41-.52-2.8-.26-2.8-.91-2.02-.52-2.67-.99-9.04-4.88-2.02-1.64-2.28-1.5-4.75-4.63-5.33-7.75-.98-2.28-1.3-2.42-.39-2.41-1.11-2.47-1.3-5.21v-5.34l-.52-4.3Z"/>
        <path d="M1236.25,465.51l.13-13.33,1.3-2.67,2.93-1.37,39.67.26,3.04-.39h2.67l2.67.26h2.67l2.93-.39h2.54l2.08.26,3.25-.26,2.67,1.37,1.3,2.67-.26,10.92.26,2.8-1.3,2.67-3.12,1.17-7.28-.13-2.41.26-2.67-.13-2.28.13-2.93,1.24-1.04,2.34.26,2.93-.39,2.67.52,26.52-.39,5.59.26,2.41-.26,8.13-.39,2.8.39,2.28.13,5.33-.26,3.06.13,2.54-1.11,2.67-2.65,1.04h-8.23l-2.52.26-2.6-.26-2.52.26-2.78-1.3-1.11-2.8-.13-10.4.26-2.67-.39-8.13.13-2.8-.13-2.67.52-4.03-.39-3.84v-5.33l.26-2.67-.26-2.54.39-4.1-.39-14.63-1.3-2.54-2.41-1.5-11.83-.13-3.51.39-2.67-1.3-1.43-2.93Z"/>
        <path d="M1314.85,537.55v-10.27l.26-2.54,1.6-2.54,8.68-2.8,1.35-2.93.26-5.2-.52-5.72.65-2.67-.52-5.2.26-2.67.13-5.46-.39-3.06-.13-2.28.39-11.31-1.76-2.41-8.13-2.8-1.3-2.47v-2.54l-.26-2.67v-2.93l.26-2.28v-2.54l1.43-2.8,2.93-1.37,5.2.26,2.54-.13,8.18.13,2.94-.26,16.97.13,4.29,1.24,1.04,2.67.26,2.67-.26,2.41v7.8l-1.5,2.54-2.47,1.5-2.93.13-2.54,1.5-1.5,2.34v5.59l.26,2.8-.26,2.67.26,2.54-.26,4.16.26,3.97-.52,5.59.52,5.33-.26,10.92,1.5,2.67,8.91,2.8,1.82,2.28-.39,8.13.26,2.41v2.93l-1.43,2.41-2.54,1.3-39.53-.26-2.67-.91-1.37-2.8Z"/>
        <path d="M1372.45,499.06l.39-10.79,2.29-10.27,2.03-5.07,4.12-7.02,6.5-7.61,4.55-3.32,2.41-1.24,2.02-1.43,9.95-3.71,14.11-2.02,3.64.13,7.67,1.3,10.27,3.25,2.02,1.43,3.97,1.76,3.06,2.08,3.9,3.38,3.71,4.1,2.93,4.03,2.54,4.88,3.32,10.01.98,5.46.39,6.63-.52,3.9-.2,2.8-.65,2.67-.13,2.41-1.04,5.01-2.02,5.07-5.85,8.91-1.89,1.89-1.69,2.41-3.77,3.19-2.54,1.24-1.95,1.56-4.42,2.41-9.95,3.32-8,1.11-7.48.13-2.8-.33-4.81-1.04-2.93-.26-3.84-1.3-10.4-5.33-4.42-3.51-1.43-1.69-2.02-1.89-1.69-2.15-1.63-1.56-6.14-12.16-1.24-5.01-.27-2.54-.65-2.41-.39-2.8ZM1397.35,499.06l1.04,4.94,1.24,2.34.65,2.15,1.89,2.54,1.69,1.89,3.58,2.93,2.15,1.17,4.81,2.02,2.93.39h7.35l2.67-.52,1.95-.91,2.41-.72,6.37-4.36,1.89-2.15.78-2.02,1.5-2.41.91-2.34,1.11-4.94.26-8.13-.39-2.41-1.24-2.54-1.56-5.07-5.2-5.46-4.16-2.93-2.41-1.04-2.34-.52-6.44-.85-3.71.26-5.2,1.37-1.76.65-6.63,4.55-3.19,4.23-.78,2.41-1.11,2.41-.39,2.54-.65,2.41v8.13Z"/>
        <path d="M1483.55,516.09v-2.54l.33-2.93v-2.54l.26-2.41-.59-19.05.46-2.8-.13-2.8.26-2.41-.39-5.46.26-2.67-.26-18.59,1.69-2.54,3.19-1.63,3.64,1.11,5.27,3.58,7.22,7.35,1.76,2.21,2.28,1.63,1.3,2.02,2.54,1.69,1.43,2.02,4.16,3.45,2.8,2.93,1.43,1.89,2.15,1.63,4.68,4.75,2.02,1.63,5.85,5.98,1.82.52.72-2.15-.13-5.27.52-2.8v-2.54l-.52-2.8.13-24.25,1.3-2.8,3.16-1.37,2.65.13,2.38-.26,2.78.39,2.91-.26h2.51l2.65.26,2.91,1.37,1.61,2.41-.26,6.89.26,4.03-.59,2.67v5.33l.33,2.54-.46,5.27.59,15.99-.26,2.93.52,3.77-.72,36.21-1.16,2.8-3.04,1.43-3.42-1.04-3.88-1.76-1.69-1.69-1.63-2.02-2.13-1.76-1.69-2.15-12.92-12.87-2.15-1.76-19.02-18.66-1.69-.39-1.37,1.63.59,2.8-.46,32.64.46,2.67-1.24,2.67-2.67,1.3-3.06-.26-2.8.39-6.63-.39-4.55.26-2.54-1.43-1.17-2.93v-2.54l-.39-2.67.39-5.07-.26-2.67.13-5.46-.46-2.8Z"/>
        <path d="M1615.27,494.77l1.3-11.44,1.37-5.46,3.32-7.48,2.54-3.84,3.58-4.55,5.72-5.14,3.9-2.99,9.82-4.62,12.94-2.54,8.26.13,2.67.39,2.54.13,12.74,4.29,9.04,5.72,3.77,3.84,1.43,2.54,1.89,2.28,1.17,2.15,1.5,2.08.78,2.8.98,2.41.78,2.93-.91,2.67-2.28,1.11-4.03.39-3.71-.39-2.67.13-2.8-.13-2.41.26-3.06-1.5-2.54-2.54-1.43-1.95-3.9-3.9-1.82-1.43-2.41-.98-4.16-1.17-5.72-.26-8.91,1.17-3.58,2.02-3.25,2.54-3.19,3.71-1.3,2.54-2.02,4.81-.91,5.33v8.13l.39,2.93.65,2.41.91,1.82.98,2.67,2.93,4.68,3.84,3.45,4.68,2.41,4.81,1.76,3.84.39,7.09-.39,4.62-2.54,2.02-.85,2.15-1.82,3.06-3.45,1.3-2.54,2.15-2.15,3.06-1.63,2.67.13,2.67-.13,2.67.39,7.48-.52,2.67,1.76.78,2.41-3.45,10.08-2.8,4.81-3.06,4.03-3.77,3.71-6.5,4.68-2.28,1.04-2.8.91-2.41,1.37-7.87,1.56-9.3.72-6.63-.59-2.54-.13-2.41-.52-2.67-.91-2.41-.52-5.98-2.54-5.72-3.06-5.98-5.2-5.46-5.85-5.72-11.64-1.89-7.54-.78-9.75Z"/>
        <path d="M1721.56,478.78l.59-2.67-.26-2.21.39-2.93-.72-8,.46-2.54-.26-2.93v-2.54l.39-2.93,1.43-2.28,4.16-1.17,2.54-.33,2.67.33,7.8-.33,4.16,1.37,1.56,2.8-.13,2.28.46,13.2-.33,2.34v8l1.11,2.54,2.8,1.24,12.87-.13,2.41.26h5.33l2.28-1.37,1.5-2.67v-7.74l.52-2.21-.26-14.56,1.04-3.84,4.03-1.17h2.6l4.29-.46,6.76.13,4.16,1.37,1.3,2.67.33,2.67-.59,2.67.26,2.54.59,2.54-.72,11.05.46,13-.33,2.93.13,5.07-.39,2.8v2.67l.26,2.8-.13,2.67.59,5.07v21.45l-.59,5.46-1.43,2.54-2.67,1.43h-9.17l-4.03-.39-2.67.26-2.67-1.3-1.3-2.8-.39-5.2.52-4.03-.52-9.43.39-2.54-.39-8.13-1.37-2.67-2.41-1.3h-2.54l-2.67-.33-2.67.33h-7.8l-2.41-.33h-2.8l-2.67,1.63-1.37,2.8.39,10.53-.26,2.8.13,2.93-.26,2.54.26,2.67-.26,2.41.39,2.93-.13,2.67-1.04,2.67-2.93,1.17-2.8.26-2.8-.39-3.84-.13-4.16.39h-2.54l-3.06-1.17-1.04-2.8-.26-13.59.26-2.67-.39-2.41.39-2.67-.26-2.93.39-6.24-.26-3.06.26-4.16-.39-2.54v-7.74l.26-2.8-.59-8.13Z"/>
        <path d="M1811.21,537.81l1.56-5.59,1.24-2.67,1.56-2.15,3.9-9.75,3.71-6.89.91-2.67,1.24-2.15.78-2.8,1.89-3.45.91-2.54,2.02-3.45,2.08-4.81,1.5-2.41.65-2.28,7.48-16.77,1.43-2.41,5.79-11.96.78-2.41,2.54-2.41,4.23-1.3,4.55,1.17,2.41,2.54.78,2.54,1.17,2.02,2.15,5.07,2.67,4.94,2.02,4.62.65,2.15,2.41,5.07.78,2.54,2.67,4.62.72,2.54,1.3,2.28,1.04,2.28,1.5,2.41.78,2.67,1.24,1.95.91,2.67,1.17,2.28,1.11,2.67,1.43,2.15,1.89,4.94,1.3,2.28.98,2.54,2.28,4.75.78,2.54,1.3,2.02.85,2.67,1.69,2.28.98,2.41.78,3.32-.52,2.8-2.41.78-8.26.26-4.68-.39-2.41.26-3.45-1.3-2.28-2.15-1.43-2.41-.65-2.41-2.8-2.15-4.42-1.43-6.24.26-2.8-.26h-2.41l-3.06.39-2.8-.39-7.48.13-2.67-.26-3.19,1.3-2.28,2.54-2.28,4.55-2.41,2.41-3.06,1.3-3.45-.39h-11.7l-2.67-.65-.65-2.8ZM1849.37,504.78l.46,2.67,2.47,1.04,10.4-.13,2.28-1.04.26-2.41-.91-2.41-1.37-2.67-.52-2.15-1.43-2.28-1.76-5.14-1.63-1.11-1.69,1.37-1.24,2.08-5.33,12.16Z"/>
        <path d="M1915.62,516.09l.59-2.54-.39-58.71.26-2.8,1.43-2.67,2.67-1.5,3.84,1.11,3.9,2.8,2.93,3.06,1.43,1.82,1.89,1.76,1.5,2.02,1.69,1.82,2.28,2.02,3.19,4.03,9.23,9.43,1.56,2.15,2.15,1.69,1.56,2.28,1.76,1.76,2.41.78,2.93-.91,19.7-20.93,1.24-1.95,7.54-7.87,3.06-3.77,3.38-1.82,3.97-1.24,2.67,1.63,1.5,2.54-.2,2.8.33,2.28-.33,2.8.46,37.64-.46,2.41.33,2.67-.33,2.8.2,2.67-.46,2.67.26,5.2-.26,2.54.59,15.99-.46,2.6-1.43,2.8-2.54,1.63-15.99-.13-2.93-1.04-1.3-2.8.39-18.4-.39-4.94.13-2.67-.13-2.41.39-2.54-.39-2.6-1.11-1.63-1.56.26-1.89,1.89-1.76,2.28-11.18,11.31-2.21,1.56h-3.12l-4.36-3.58-1.76-2.28-7.41-7.02-3.38-4.16-1.95-.52-1.24,1.89.52,7.67-.39,18.01.39,2.8.13,2.8-.26,2.54-1.43,2.08-4.03,1.24-14.63.26-3.19-1.5-1.17-2.34.26-2.54-.59-18.92Z"/>
        <path d="M2026.92,529.68l.72-2.67-.39-8.39.39-5.33-.39-2.54v-5.59l.26-2.54-.39-3.97.52-3.64-.39-5.46.26-2.93-.26-2.41.26-2.67v-13.52l-.39-2.8v-2.54l.39-2.41v-5.46l.26-2.8,1.29-2.54,3.62-1.24,39.81.13,2.41.59,2.67,1.04,2.8.52,4.75,2.54,4.04,2.67,2.28,2.02,1.43,2.02,1.76,1.82,1.69,2.28,2.67,4.81,2.41,10.4-.13,7.8-.26,2.41-1.17,5.46-.99,2.41-1.17,2.41-4.3,6.37-3.98,3.9-2.15,1.56-4.5,2.8-7.76,2.28-5.48,1.04-6.97.13-3.98-.39-2.94.39-3.59,1.37-.98,2.28v2.8l.26,2.93-.39,2.41.26,2.54-.13,5.33-1.16,2.8-2.65,1.43h-2.78l-2.9-.26-7.82.13-2.65-.26-2.77-1.04-1.04-2.8-.13-2.54.39-2.54-.59-2.54ZM2050.9,473.64l.26,18.46,1.63,2.67,2.54,1.24,3.06.26,10.92-.72,2.15-1.17,2.08-1.43,3.06-3.77,1.5-6.11-1.17-6.24-1.37-2.28-2.15-2.02-1.95-1.43-2.28-1.24-10.66-.52-3.32.26-2.67,1.11-1.63,2.93Z"/>
        <path d="M2110.52,537.55v-10.27l.26-2.54,1.6-2.54,8.68-2.8,1.35-2.93.26-5.2-.52-5.72.65-2.67-.52-5.2.26-2.67.13-5.46-.39-3.06-.13-2.28.39-11.31-1.76-2.41-8.13-2.8-1.3-2.47v-2.54l-.26-2.67v-2.93l.26-2.28v-2.54l1.43-2.8,2.93-1.37,5.2.26,2.54-.13,8.18.13,2.94-.26,16.97.13,4.29,1.24,1.04,2.67.26,2.67-.26,2.41v7.8l-1.5,2.54-2.47,1.5-2.93.13-2.54,1.5-1.5,2.34v5.59l.26,2.8-.26,2.67.26,2.54-.26,4.16.26,3.97-.52,5.59.52,5.33-.26,10.92,1.5,2.67,8.91,2.8,1.82,2.28-.39,8.13.26,2.41v2.93l-1.43,2.41-2.54,1.3-39.53-.26-2.67-.91-1.37-2.8Z"/>
        <path d="M2168.12,499.06l.39-10.79,2.29-10.27,2.03-5.07,4.12-7.02,6.5-7.61,4.55-3.32,2.41-1.24,2.02-1.43,9.95-3.71,14.11-2.02,3.64.13,7.67,1.3,10.27,3.25,2.02,1.43,3.97,1.76,3.06,2.08,3.9,3.38,3.71,4.1,2.93,4.03,2.54,4.88,3.32,10.01.98,5.46.39,6.63-.52,3.9-.2,2.8-.65,2.67-.13,2.41-1.04,5.01-2.02,5.07-5.85,8.91-1.89,1.89-1.69,2.41-3.77,3.19-2.54,1.24-1.95,1.56-4.42,2.41-9.95,3.32-8,1.11-7.48.13-2.8-.33-4.81-1.04-2.93-.26-3.84-1.3-10.4-5.33-4.42-3.51-1.43-1.69-2.02-1.89-1.69-2.15-1.63-1.56-6.14-12.16-1.24-5.01-.27-2.54-.65-2.41-.39-2.8ZM2193.02,499.06l1.04,4.94,1.24,2.34.65,2.15,1.89,2.54,1.69,1.89,3.58,2.93,2.15,1.17,4.81,2.02,2.93.39h7.35l2.67-.52,1.95-.91,2.41-.72,6.37-4.36,1.89-2.15.78-2.02,1.5-2.41.91-2.34,1.11-4.94.26-8.13-.39-2.41-1.24-2.54-1.56-5.07-5.2-5.46-4.16-2.93-2.41-1.04-2.34-.52-6.44-.85-3.71.26-5.2,1.37-1.76.65-6.63,4.55-3.19,4.23-.78,2.41-1.11,2.41-.39,2.54-.65,2.41v8.13Z"/>
        <path d="M2279.22,516.09v-2.54l.33-2.93v-2.54l.26-2.41-.59-19.05.46-2.8-.13-2.8.26-2.41-.39-5.46.26-2.67-.26-18.59,1.69-2.54,3.19-1.63,3.64,1.11,5.27,3.58,7.22,7.35,1.76,2.21,2.28,1.63,1.3,2.02,2.54,1.69,1.43,2.02,4.16,3.45,2.8,2.93,1.43,1.89,2.15,1.63,4.68,4.75,2.02,1.63,5.85,5.98,1.82.52.72-2.15-.13-5.27.52-2.8v-2.54l-.52-2.8.13-24.25,1.3-2.8,3.16-1.37,2.65.13,2.38-.26,2.78.39,2.91-.26h2.51l2.65.26,2.91,1.37,1.61,2.41-.26,6.89.26,4.03-.59,2.67v5.33l.33,2.54-.46,5.27.59,15.99-.26,2.93.52,3.77-.72,36.21-1.16,2.8-3.04,1.43-3.42-1.04-3.88-1.76-1.69-1.69-1.63-2.02-2.13-1.76-1.69-2.15-12.92-12.87-2.15-1.76-19.02-18.66-1.69-.39-1.37,1.63.59,2.8-.46,32.64.46,2.67-1.24,2.67-2.67,1.3-3.06-.26-2.8.39-6.63-.39-4.55.26-2.54-1.43-1.17-2.93v-2.54l-.39-2.67.39-5.07-.26-2.67.13-5.46-.46-2.8Z"/>
        <path d="M2379.6,516.09v-2.54l.33-2.93v-2.54l.26-2.41-.59-19.05.46-2.8-.13-2.8.26-2.41-.39-5.46.26-2.67-.26-18.59,1.69-2.54,3.19-1.63,3.64,1.11,5.27,3.58,7.22,7.35,1.76,2.21,2.28,1.63,1.3,2.02,2.54,1.69,1.43,2.02,4.16,3.45,2.8,2.93,1.43,1.89,2.15,1.63,4.68,4.75,2.02,1.63,5.85,5.98,1.82.52.72-2.15-.13-5.27.52-2.8v-2.54l-.52-2.8.13-24.25,1.3-2.8,3.16-1.37,2.65.13,2.38-.26,2.78.39,2.91-.26h2.51l2.65.26,2.91,1.37,1.61,2.41-.26,6.89.26,4.03-.59,2.67v5.33l.33,2.54-.46,5.27.59,15.99-.26,2.93.52,3.77-.72,36.21-1.16,2.8-3.04,1.43-3.42-1.04-3.88-1.76-1.69-1.69-1.63-2.02-2.13-1.76-1.69-2.15-12.92-12.87-2.15-1.76-19.02-18.66-1.69-.39-1.37,1.63.59,2.8-.46,32.64.46,2.67-1.24,2.67-2.67,1.3-3.06-.26-2.8.39-6.63-.39-4.55.26-2.54-1.43-1.17-2.93v-2.54l-.39-2.67.39-5.07-.26-2.67.13-5.46-.46-2.8Z"/>
        <path d="M2472.18,537.81l1.56-5.59,1.24-2.67,1.56-2.15,3.9-9.75,3.71-6.89.91-2.67,1.24-2.15.78-2.8,1.89-3.45.91-2.54,2.02-3.45,2.08-4.81,1.5-2.41.65-2.28,7.48-16.77,1.43-2.41,5.79-11.96.78-2.41,2.54-2.41,4.23-1.3,4.55,1.17,2.41,2.54.78,2.54,1.17,2.02,2.15,5.07,2.67,4.94,2.02,4.62.65,2.15,2.41,5.07.78,2.54,2.67,4.62.72,2.54,1.3,2.28,1.04,2.28,1.5,2.41.78,2.67,1.24,1.95.91,2.67,1.17,2.28,1.11,2.67,1.43,2.15,1.89,4.94,1.3,2.28.98,2.54,2.28,4.75.78,2.54,1.3,2.02.85,2.67,1.69,2.28.98,2.41.78,3.32-.52,2.8-2.41.78-8.26.26-4.68-.39-2.41.26-3.45-1.3-2.28-2.15-1.43-2.41-.65-2.41-2.8-2.15-4.42-1.43-6.24.26-2.8-.26h-2.41l-3.06.39-2.8-.39-7.48.13-2.67-.26-3.19,1.3-2.28,2.54-2.28,4.55-2.41,2.41-3.06,1.3-3.45-.39h-11.7l-2.67-.65-.65-2.8ZM2510.34,504.78l.46,2.67,2.47,1.04,10.4-.13,2.28-1.04.26-2.41-.91-2.41-1.37-2.67-.52-2.15-1.43-2.28-1.76-5.14-1.63-1.11-1.69,1.37-1.24,2.08-5.33,12.16Z"/>
        <path d="M2561.83,465.51l.13-13.33,1.3-2.67,2.93-1.37,39.67.26,3.04-.39h2.67l2.67.26h2.67l2.93-.39h2.54l2.08.26,3.25-.26,2.67,1.37,1.3,2.67-.26,10.92.26,2.8-1.3,2.67-3.12,1.17-7.28-.13-2.41.26-2.67-.13-2.28.13-2.93,1.24-1.04,2.34.26,2.93-.39,2.67.52,26.52-.39,5.59.26,2.41-.26,8.13-.39,2.8.39,2.28.13,5.33-.26,3.06.13,2.54-1.11,2.67-2.65,1.04h-8.23l-2.52.26-2.6-.26-2.52.26-2.78-1.3-1.11-2.8-.13-10.4.26-2.67-.39-8.13.13-2.8-.13-2.67.52-4.03-.39-3.84v-5.33l.26-2.67-.26-2.54.39-4.1-.39-14.63-1.3-2.54-2.41-1.5-11.83-.13-3.51.39-2.67-1.3-1.43-2.93Z"/>
        <path d="M2639.51,516.22l.91-2.8,2.67-1.24,2.67.2,2.67-.33,10.14.33,2.67,1.04,2.02,2.67,1.95,1.89,2.41,1.43,2.02.91,3.06.85,3.97.26,3.77-.13,4.94-1.5,2.08-1.17,2.15-1.89.78-3.45-.65-3.45-1.89-1.63-4.75-2.02-2.67-.13-2.41-.39-10.92-.78-4.81-1.11-7.61-2.47-4.62-2.8-3.77-3.51-3.32-4.36-1.69-4.68-.98-3.71-.13-8.97,1.89-7.67,1.3-2.15.98-2.41,1.69-1.76,1.5-2.21,2.41-1.63,1.82-1.76,2.67-1.56,2.15-.78,2.15-1.37,2.41-.91,10.53-2.15,7.41-.13,2.93.65,2.41.26,2.8.52,7.35,2.54,8.52,5.85,1.76,2.02,1.3,2.15,1.76,2.15,2.08,4.75,1.11,5.2-1.24,2.54-2.54,1.63-2.47-.26-2.41.26-8.78-.26-4.16-1.37-4.42-4.62-1.95-1.63-2.93-1.04-8.52.26-2.41.52-1.89.78-2.28,1.76-1.43,1.82-.39,3.51.13,3.58,2.08,2.15,2.02,1.04,5.59,2.02,13.46,1.76,10.92,2.6,7.02,3.25,2.28,1.82,3.19,4.16,2.67,4.94.72,2.47.39,2.67-.13,8.26-.39,2.41-.85,2.67-1.04,2.41-2.67,4.29-3.71,4.23-4.29,2.93-6.89,3.77-13.07,2.47-4.29.2-3.84-.46-5.59-.39-2.54-.91-2.93-.39-9.62-4.42-2.21-1.43-3.9-3.9-3.32-4.1-2.15-5.33-.52-2.41-.26-2.93Z"/>
        <path d="M2764.66,476.31l.39-2.67-.39-2.67.39-2.93-.26-5.07.13-2.67-.26-2.67v-5.46l1.94-2.54,2.39-1.5,2.78.13,2.38-.13,2.65.26,8.52-.26,2.67.26,18.92.2,5.46,1.04,7.28,2.41,2.67,1.3,4.94,3.06,3.71,3.64,2.28,1.69,3.51,4.16,1.04,2.28,3.06,4.49,2.02,5.33.65,2.41.26,2.8,2.02,7.61-.52,8.52.13,2.28-.72,2.8-.39,2.8-.91,2.41-.52,2.6-1.37,2.54-.65,2.54-4.1,6.7-5.33,6.11-11.31,7.61-7.74,2.41-8.52,1.17-23.99.13-2.8.39h-2.65l-2.77-.39h-3.04l-2.13-1.17-1.55-2.93.26-5.07-.39-10.66.26-2.67-.26-10.66.39-5.2-.39-2.8.39-2.54-.39-5.72.39-5.07-.52-10.6ZM2788.33,510.76l.52,2.41-.26,2.67,1.24,2.93,3.19,1.17,11.05-.52,4.75-1.3,2.67-1.37,2.15-1.3,1.63-2.15,1.69-1.89,1.76-2.41,2.02-4.75.78-2.54.65-6.57-.39-4.1-1.56-7.87-1.76-2.15-1.5-2.54-3.32-3.71-4.49-2.93-5.33-1.63-4.03-.26-2.8.13-2.8-.13-3.84,1.5-1.63,2.41v34.2l-.39,2.67Z"/>
        <path d="M2852.49,479.1l.28-24.9-.28-1.89.14-2.28,1.83-1.76,2.19.13,2.05-.13,1.97.13,2.05-.26,6.21-.13,4.1.39,1.83,1.76-.42,5.85-.56,1.63-1.06,11.44.22,1.89-.64,1.95.14,1.89-.14,2.28-.28,1.69-2.11,2.15-3.95-.13-1.97-.26-1.63.26-7.83-.26-2.11-1.43Z"/>
        <path d="M2887.86,462.72l.46-5.46-.26-5.07,1.43-2.8,2.8-1.11,2.67.13,2.67-.26,2.41.26,2.54-.52,2.67.39,10.92-.26,2.67.26,2.21-.13,2.67.26,2.93-.26,10.79-.13,2.41.59h2.8l2.67,1.04,1.24,2.54.26,8-.13,2.67.13,2.67-1.37,2.41-2.8,1.56-2.54.13-19.05-.26-2.54.52-2.47-.13-2.93,1.09-1.24,2.46v4.14l1.04,4.07,2.8,1.24,7.74-.26,5.59.39,2.8-.26h7.87l3.06,1.69,1.37,3.79-.39,11.99-.98,2.68-2.67,1.04-3.06-.13-2.67.33-5.46-.2-5.07.33-4.23-.46-4.03.13-2.34,1.48-1.24,2.77v8.32l1.11,2.38,2.8,1.29,2.93-.26,2.54.39,2.93-.13,2.67.26,4.36-.52,6.83.13,2.47.39,3.12-.26,2.8,1.25,1.43,2.68v13.54l-1.43,2.81-2.8,1.18-19.05.26-2.67-.26-2.67.26-3.06-.13-2.54-.52-5.46.39-2.41-.13-2.93.26-9.62-.13-3.97-1.77-1.04-3.58-.26-2.93.39-9.17-.39-2.67.26-2.54.13-21.58-.39-2.39.13-10.92.26-2.54-.39-2.8.26-13-.46-2.93Z"/>
        <path d="M2963.34,462.59l.65-2.28v-8l1.24-2.67,2.67-1.5,13.98.13,3.19,1.24,1.5,2.54v2.8l-.72,3.97v2.54l.39,3.9v10.6l-.26,2.41.13,8.26.46,2.67.26,23.47.78,2.8,1.56,1.82,2.02,1.76,2.93,1.43,2.41.72,4.42.26,3.58-.26,5.33-1.76,2.15-2.02,1.17-1.82,1.24-2.54.52-4.29-.13-6.76.26-2.67-.13-4.81.26-2.93-.52-2.41.39-10.53-.39-2.8.26-2.8-.13-5.14.26-2.67-.13-13.07,1.3-2.93,2.93-1.24,12.55.13,4.23,1.24,1.11,2.93.39,2.28-.13,10.79.39,2.67-.39,2.47.13,2.99-.26,4.1.13,3.71-.26,2.8.13,2.54.52,2.67v2.41l-.52,2.8.39,10.79-.91,13.46-.98,2.54-1.3,2.28-.85,2.67-1.69,1.95-1.5,2.41-5.98,5.33-2.15,1.5-2.34,1.04-2.15,1.3-2.67.72-2.8,1.04-5.33,1.17-6.7.33-6.37-.59-2.54-.65-2.93-.13-2.02-1.04-3.06-.98-2.54-1.04-1.95-1.63-4.55-2.67-1.76-1.69-3.58-4.42-2.67-4.49-.78-2.54-.39-2.54-.78-2.67v-2.8l-.46-3.9.13-9.56-.39-5.33.26-2.54-.13-2.67.26-2.54-.39-2.93.52-2.54-.65-8,.39-5.01-.52-5.59Z"/>
        <path d="M3055.98,516.21l.46-5.46-.46-2.93.2-5.07.26-2.8v-6.63l-.46-3.91.46-37.25,1.04-2.78,2.55-1.22,2.94.13,2.54-.39,5.48.52,2.54-.39,8.02.26,2.21-.26,2.93.26,2.67-.26,2.99.13,3.84-.13,3.32.26,11.05,2.26,4.68,2.38,6.63,5.04,1.24,2,1.82,1.94,3.64,7.34.65,2.65.39,2.54.65,2.52-.13,10.55-1.43,5.02-.98,2.28-1.43,2.42-.98,2.54-1.56,2.29-3.77,3.58-1.43,2.81.39,3.19,4.03,6.97,1.69,2.16,1.37,2.34,1.56,2.41,1.24,2.29,4.23,6.51,1.76,3.38-.52,2.81-2.8.65-2.93.26h-5.33l-2.67-.26-2.93.26-4.81-.26-3.32-.78-2.67-2.42-1.63-2.15-1.17-2.28-1.76-2.55-3.71-6.64-.98-2.54-3.45-4.69-2.15-2.28-3.32-1.05-2.41.13h-2.41l-2.6,1.38-1.24,2.67.26,8.27-.39,5.73.52,2.81-.26,2.8-.91,2.55-4.17,1.3h-3.98l-2.81-.26-5.47.39-2.55-.13-2.68-1.3-.91-2.99-.39-10.35.26-2.8-.59-7.74ZM3079.9,473.39l.39,14.91,1.37,2.81,2.21,1.17h2.99l2.67.39,10.34-.91,2.02-.91,1.63-1.64,1.43-2.28,1.04-2.67.46-3.59-.26-3.85-.98-2.15-1.3-2.02-4.16-2.55-6.11-.78-7.35-.13-2.08.13-2.67,1.37-1.63,2.68Z"/>
        <path d="M3142.96,499.06l.39-10.79,2.29-10.27,2.03-5.07,4.12-7.02,6.5-7.61,4.55-3.32,2.41-1.24,2.02-1.43,9.95-3.71,14.11-2.02,3.64.13,7.67,1.3,10.27,3.25,2.02,1.43,3.97,1.76,3.06,2.08,3.9,3.38,3.71,4.1,2.93,4.03,2.54,4.88,3.32,10.01.98,5.46.39,6.63-.52,3.9-.2,2.8-.65,2.67-.13,2.41-1.04,5.01-2.02,5.07-5.85,8.91-1.89,1.89-1.69,2.41-3.77,3.19-2.54,1.24-1.95,1.56-4.42,2.41-9.95,3.32-8,1.11-7.48.13-2.8-.33-4.81-1.04-2.93-.26-3.84-1.3-10.4-5.33-4.42-3.51-1.43-1.69-2.02-1.89-1.69-2.15-1.63-1.56-6.14-12.16-1.24-5.01-.27-2.54-.65-2.41-.39-2.8ZM3167.86,499.06l1.04,4.94,1.24,2.34.65,2.15,1.89,2.54,1.69,1.89,3.58,2.93,2.15,1.17,4.81,2.02,2.93.39h7.35l2.67-.52,1.95-.91,2.41-.72,6.37-4.36,1.89-2.15.78-2.02,1.5-2.41.91-2.34,1.11-4.94.26-8.13-.39-2.41-1.24-2.54-1.56-5.07-5.2-5.46-4.16-2.93-2.41-1.04-2.34-.52-6.44-.85-3.71.26-5.2,1.37-1.76.65-6.63,4.55-3.19,4.23-.78,2.41-1.11,2.41-.39,2.54-.65,2.41v8.13Z"/>
        <path d="M3254.06,529.68l.72-2.67-.39-8.39.39-5.33-.39-2.54v-5.59l.26-2.54-.39-3.97.52-3.64-.39-5.46.26-2.93-.26-2.41.26-2.67v-13.52l-.39-2.8v-2.54l.39-2.41v-5.46l.26-2.8,1.29-2.54,3.62-1.24,39.81.13,2.41.59,2.67,1.04,2.8.52,4.75,2.54,4.04,2.67,2.28,2.02,1.43,2.02,1.76,1.82,1.69,2.28,2.67,4.81,2.41,10.4-.13,7.8-.26,2.41-1.17,5.46-.99,2.41-1.17,2.41-4.3,6.37-3.98,3.9-2.15,1.56-4.5,2.8-7.76,2.28-5.48,1.04-6.97.13-3.98-.39-2.94.39-3.59,1.37-.98,2.28v2.8l.26,2.93-.39,2.41.26,2.54-.13,5.33-1.16,2.8-2.65,1.43h-2.78l-2.9-.26-7.82.13-2.65-.26-2.77-1.04-1.04-2.8-.13-2.54.39-2.54-.59-2.54ZM3278.05,473.64l.26,18.46,1.63,2.67,2.54,1.24,3.06.26,10.92-.72,2.15-1.17,2.08-1.43,3.06-3.77,1.5-6.11-1.17-6.24-1.37-2.28-2.15-2.02-1.95-1.43-2.28-1.24-10.66-.52-3.32.26-2.67,1.11-1.63,2.93Z"/>
        <path d="M3341.63,537.55l.59-2.67.13-2.65-.26-5.2v-2.65l-.26-3.06.39-2.41-.13-2.54.26-2.91-.39-2.8.26-5.32-.39-5.2.39-2.78v-23.77l-.26-2.39.26-2.8-.59-6.82.59-3.84-.26-5.32,1.3-2.91,3.84-.96,17.49-.39,2.41.26,5.14-.13,2.67.26,5.92-.26,2.6.46,2.41-.33,10.66.13,2.8,1.22,1.37,2.65-.39,2.51-.2,2.91.46,2.51.26,5.43-1.5,2.39-2.8,1.42-25.55.13-4.16,1.24-1.3,3.84.26,4.1,1.63,2.41,2.21,1.5,10.53-.13,3.06.26h2.8l2.67-.26,5.33.13,2.28,1.43,1.24,2.54.26,2.67-.26,10.53-1.37,2.54-2.67,1.5-2.41.13-2.8-.33-3.58.33-7.09-.46-2.67.33h-5.14l-2.41,1.43-1.24,2.8-.13,6.5,1.24,4.16,2.8,1.56,2.93-.26,2.93.26,2.54-.39,17.55.26,3.97,1.37,1.76,2.67-.26,2.54.13,8.26-.26,2.54-1.24,2.54-2.8,1.3-2.47.26-8.13-.52-8.13.39-2.41-.39-30.1.26-2.54-1.43-1.76-2.54Z"/>
      </g>
      <path class="uuid-ce0d115e-a9fa-47a7-9e9b-a6aaf2b7d5e9" d="M0,186.4l5.03-44.27,5.28-21.13,12.83-28.93,9.81-14.84,13.84-17.61,22.14-19.87,15.09-11.57,37.99-17.86L172.06.5l31.95.5,10.31,1.51,9.81.5,49.31,16.6,34.97,22.14,14.59,14.84,5.53,9.81,7.3,8.8,4.53,8.3,5.79,8.05,3.02,10.82,3.77,9.31,3.02,11.32-3.52,10.31-8.8,4.28-15.6,1.51-14.34-1.51-10.31.5-10.82-.5-9.31,1.01-11.82-5.79-9.81-9.81-5.53-7.55-15.09-15.09-7.04-5.53-9.31-3.77-16.1-4.53-22.14-1.01-34.46,4.53-13.84,7.8-12.58,9.81-12.33,14.34-5.03,9.81-7.8,18.62-3.52,20.63v31.44l1.51,11.32,2.52,9.31,3.52,7.04,3.77,10.31,11.32,18.11,14.84,13.33,18.11,9.31,18.62,6.79,14.84,1.51,27.42-1.51,17.86-9.81,7.8-3.27,8.3-7.04,11.82-13.33,5.03-9.81,8.3-8.3,11.82-6.29,10.31.5,10.31-.5,10.31,1.51,28.93-2.01,10.31,6.79,3.02,9.31-13.33,38.99-10.82,18.62-11.82,15.6-14.59,14.34-25.16,18.11-8.8,4.02-10.82,3.52-9.31,5.28-30.44,6.04-35.97,2.77-25.66-2.26-9.81-.5-9.31-2.01-10.31-3.52-9.31-2.01-23.14-9.81-22.14-11.82-23.14-20.12-21.13-22.64-22.14-45.03-7.3-29.18-3.02-37.73Z"/>
      <path class="uuid-ce0d115e-a9fa-47a7-9e9b-a6aaf2b7d5e9" d="M470.85,212.95l2.26-98.65-1.51-21.64,1.01-30.2-.5-9.31.5-10.82-1.01-9.31v-11.32l5.01-10.86,11.26-5.3,62.03,1.01,9.25-2.01,20.18,2.52,9.08-2.01,53.23,1.51,20.18,4.79,8.83,3.03,9.84,4.79,8.83,5.05,7.06,5.81,7.82,5.05,7.82,7.32,17.15,23.73,3.53,10.86,4.04,18.69,1.01,15.9-.5,17.68-6.04,18.68-9.81,19.94-3.77,9.85,5.28,11.87,8.3,7.32,6.54,7.83,9.31,21.21,5.79,18.68-1.01,41.64-4.28,9.69-3.02,9.69-5.29,10.19-13.85,18.89-20.65,16.4-9.32,4.47-28.71,8.2-9.32,1.49-53.14,2.49-10.33-1.5-74.8,1-15.26-1.49-17.01,1.49-9.76-6.22-4.5-9.94-1.01-9.81,1.01-112.99-1.76-15.36ZM560.15,271.38l6.54,10.36,9.31,3.53,39.75,1.01,28.43-2.52,8.55-5.56,5.79-7.32,2.52-14.89-3.02-13.13-5.28-9.09-8.55-3.78-48.55-4.55-10.82,1.01-9.81-1.51-8.8,6.56-4.53,8.84-1.51,31.05ZM560.65,109.05l.5,17.67,5.53,14.39,10.82,6.31,39.75-1.77,15.09-5.05,7.55-6.31,3.77-14.9-1.76-15.65-4.02-8.08-8.3-4.29-53.08-3.54-9.81,6.31-6.04,14.9Z"/>
      <path class="uuid-ce0d115e-a9fa-47a7-9e9b-a6aaf2b7d5e9" d="M1178.65,186.4l5.03-44.27,5.28-21.13,12.83-28.93,9.81-14.84,13.84-17.61,22.14-19.87,15.09-11.57,37.99-17.86,50.06-9.81,31.95.5,10.31,1.51,9.81.5,49.31,16.6,34.97,22.14,14.59,14.84,5.53,9.81,7.3,8.8,4.53,8.3,5.79,8.05,3.02,10.82,3.77,9.31,3.02,11.32-3.52,10.31-8.8,4.28-15.6,1.51-14.34-1.51-10.31.5-10.82-.5-9.31,1.01-11.82-5.79-9.81-9.81-5.53-7.55-15.09-15.09-7.04-5.53-9.31-3.77-16.1-4.53-22.14-1.01-34.46,4.53-13.84,7.8-12.58,9.81-12.33,14.34-5.03,9.81-7.8,18.62-3.52,20.63v31.44l1.51,11.32,2.52,9.31,3.52,7.04,3.77,10.31,11.32,18.11,14.84,13.33,18.11,9.31,18.62,6.79,14.84,1.51,27.42-1.51,17.86-9.81,7.8-3.27,8.3-7.04,11.82-13.33,5.03-9.81,8.3-8.3,11.82-6.29,10.31.5,10.31-.5,10.31,1.51,28.93-2.01,10.31,6.79,3.02,9.31-13.33,38.99-10.82,18.62-11.82,15.6-14.59,14.34-25.16,18.11-8.8,4.02-10.82,3.52-9.31,5.28-30.44,6.04-35.97,2.77-25.66-2.26-9.81-.5-9.31-2.01-10.31-3.52-9.31-2.01-23.14-9.81-22.14-11.82-23.14-20.12-21.13-22.64-22.14-45.03-7.3-29.18-3.02-37.73Z"/>
      <path class="uuid-ce0d115e-a9fa-47a7-9e9b-a6aaf2b7d5e9" d="M1689.18,269.38l1.76-21.13-1.76-11.32.75-19.63,1.01-10.82v-25.67l-1.76-15.1,1.76-144.18,4.04-10.75,9.84-4.75,11.35.5,9.84-1.51,21.19,2.01,9.84-1.5,31.01,1.01,8.55-1.01,11.32,1.01,10.31-1.01,11.57.5,14.84-.5,12.83,1,42.76,8.75,18.11,9.25,25.66,19.5,4.78,7.75,7.04,7.5,14.09,28.37,2.52,10.29,1.51,9.79,2.52,9.79-.5,40.83-5.53,19.4-3.77,8.82-5.53,9.32-3.77,9.83-6.04,8.82-14.59,13.86-5.53,10.84,1.51,12.35,15.6,26.96,6.54,8.32,5.28,9.07,6.04,9.32,4.78,8.82,16.35,25.2,6.79,13.11-2.01,10.84-10.82,2.52-11.32,1.01h-20.63l-10.31-1.01-11.32,1.01-18.62-1.01-12.83-3.02-10.31-9.33-6.29-8.32-4.53-8.82-6.79-9.82-14.34-25.71-3.77-9.83-13.33-18.14-8.3-8.82-12.83-4.03-9.31.5h-9.31l-10.06,5.29-4.78,10.33,1.01,32.01-1.51,22.18,2.01,10.83-1.01,10.84-3.53,9.83-16.14,5.04h-15.39l-10.84-1.01-21.19,1.51-9.84-.5-10.34-5.04-3.53-11.58-1.51-40.01,1.01-10.82-2.27-29.94ZM1781.75,103.67l1.51,57.71,5.28,10.84,8.55,4.54h11.57l10.31,1.51,40-3.53,7.8-3.53,6.29-6.3,5.53-8.82,4.02-10.33,1.76-13.86-1.01-14.87-3.77-8.32-5.03-7.81-16.1-9.83-23.65-3.03-28.43-.5-8.05.5-10.31,5.29-6.29,10.33Z"/>
      <path class="uuid-ce0d115e-a9fa-47a7-9e9b-a6aaf2b7d5e9" d="M2147.14,203.01l1.52-41.76,8.85-39.75,7.84-19.62,15.93-27.17,25.16-29.43,17.61-12.83,9.31-4.78,7.8-5.53,38.49-14.34,54.59-7.8,14.09.5,29.68,5.03,39.75,12.58,7.8,5.53,15.34,6.79,11.82,8.05,15.09,13.08,14.34,15.85,11.32,15.6,9.81,18.87,12.83,38.74,3.77,21.13,1.51,25.66-2.01,15.09-.75,10.82-2.52,10.31-.5,9.31-4.02,19.37-7.8,19.62-22.64,34.46-7.3,7.3-6.54,9.31-14.59,12.33-9.81,4.78-7.55,6.04-17.11,9.31-38.49,12.83-30.94,4.28-28.93.5-10.82-1.26-18.62-4.02-11.32-1.01-14.84-5.03-40.25-20.63-17.11-13.58-5.53-6.54-7.8-7.3-6.54-8.3-6.29-6.04-23.77-47.04-4.8-19.37-1.01-9.81-2.53-9.31-1.52-10.82ZM2243.48,203.01l4.02,19.12,4.78,9.06,2.52,8.3,7.3,9.81,6.54,7.3,13.84,11.32,8.3,4.53,18.62,7.8,11.32,1.51h28.43l10.31-2.01,7.55-3.52,9.31-2.77,24.65-16.85,7.3-8.3,3.02-7.8,5.79-9.31,3.52-9.06,4.28-19.12,1.01-31.44-1.51-9.31-4.78-9.81-6.04-19.62-20.12-21.13-16.1-11.32-9.31-4.02-9.06-2.01-24.9-3.27-14.34,1.01-20.12,5.28-6.79,2.52-25.66,17.61-12.33,16.35-3.02,9.31-4.28,9.31-1.51,9.81-2.52,9.31v31.44Z"/>
      <path class="uuid-ce0d115e-a9fa-47a7-9e9b-a6aaf2b7d5e9" d="M2674.45,269.42l3.52-10.82,10.31-4.78,10.31.75,10.31-1.26,39.24,1.26,10.31,4.02,7.8,10.31,7.55,7.3,9.31,5.53,7.8,3.52,11.82,3.27,15.34,1.01,14.59-.5,19.12-5.79,8.05-4.53,8.3-7.3,3.02-13.33-2.52-13.33-7.3-6.29-18.36-7.8-10.31-.5-9.31-1.51-42.26-3.02-18.62-4.28-29.43-9.56-17.86-10.82-14.59-13.58-12.83-16.85-6.54-18.11-3.77-14.34-.5-34.71,7.3-29.68,5.03-8.3,3.77-9.31,6.54-6.79,5.79-8.55,9.31-6.29,7.04-6.79,10.31-6.04,8.3-3.02,8.3-5.28,9.31-3.52,40.75-8.3,28.68-.5,11.32,2.52,9.31,1.01,10.82,2.01,28.43,9.81,32.95,22.64,6.79,7.8,5.03,8.3,6.79,8.3,8.05,18.36,4.28,20.12-4.78,9.81-9.81,6.29-9.56-1.01-9.31,1.01-33.96-1.01-16.1-5.28-17.11-17.86-7.55-6.29-11.32-4.02-32.95,1.01-9.31,2.01-7.3,3.02-8.8,6.79-5.53,7.04-1.51,13.58.5,13.84,8.05,8.3,7.8,4.02,21.63,7.8,52.07,6.79,42.26,10.06,27.17,12.58,8.8,7.04,12.33,16.1,10.31,19.12,2.77,9.56,1.51,10.31-.5,31.95-1.51,9.31-3.27,10.31-4.02,9.31-10.31,16.6-14.34,16.35-16.6,11.32-26.67,14.59-50.56,9.56-16.6.75-14.84-1.76-21.63-1.51-9.81-3.52-11.32-1.51-37.23-17.11-8.55-5.53-15.09-15.09-12.83-15.85-8.3-20.63-2.01-9.31-1.01-11.32Z"/>
      <path class="uuid-ce0d115e-a9fa-47a7-9e9b-a6aaf2b7d5e9" d="M3114.55,269.42l3.52-10.82,10.31-4.78,10.31.75,10.31-1.26,39.24,1.26,10.31,4.02,7.8,10.31,7.55,7.3,9.31,5.53,7.8,3.52,11.82,3.27,15.34,1.01,14.59-.5,19.12-5.79,8.05-4.53,8.3-7.3,3.02-13.33-2.52-13.33-7.3-6.29-18.36-7.8-10.31-.5-9.31-1.51-42.26-3.02-18.62-4.28-29.43-9.56-17.86-10.82-14.59-13.58-12.83-16.85-6.54-18.11-3.77-14.34-.5-34.71,7.3-29.68,5.03-8.3,3.77-9.31,6.54-6.79,5.79-8.55,9.31-6.29,7.04-6.79,10.31-6.04,8.3-3.02,8.3-5.28,9.31-3.52,40.75-8.3,28.68-.5,11.32,2.52,9.31,1.01,10.82,2.01,28.43,9.81,32.95,22.64,6.79,7.8,5.03,8.3,6.79,8.3,8.05,18.36,4.28,20.12-4.78,9.81-9.81,6.29-9.56-1.01-9.31,1.01-33.96-1.01-16.1-5.28-17.11-17.86-7.55-6.29-11.32-4.02-32.95,1.01-9.31,2.01-7.3,3.02-8.8,6.79-5.53,7.04-1.51,13.58.5,13.84,8.05,8.3,7.8,4.02,21.63,7.8,52.07,6.79,42.26,10.06,27.17,12.58,8.8,7.04,12.33,16.1,10.31,19.12,2.77,9.56,1.51,10.31-.5,31.95-1.51,9.31-3.27,10.31-4.02,9.31-10.31,16.6-14.34,16.35-16.6,11.32-26.67,14.59-50.56,9.56-16.6.75-14.84-1.76-21.63-1.51-9.81-3.52-11.32-1.51-37.23-17.11-8.55-5.53-15.09-15.09-12.83-15.85-8.3-20.63-2.01-9.31-1.01-11.32Z"/>
    </g>
  </g>
</svg>