<?xml version="1.0" encoding="UTF-8"?>
<svg id="uuid-f258b118-9d89-41e1-8dd0-3ed1d539b8ef" data-name="Laag 2" xmlns="http://www.w3.org/2000/svg" viewBox="0 0 3401.57 491.75">
  <defs>
    <style>
      .uuid-a7efd51a-34df-4815-ab79-3bba7730e0b6 {
        fill: #4e0c69;
      }

      .uuid-c9a7b7fd-aa3d-4809-b86b-55c89cf5cee9 {
        fill: #060606;
      }
    </style>
  </defs>
  <g id="uuid-38aa3d62-9da8-4880-a5ec-6a76bd529dab" data-name="Laag 1">
    <g>
      <g>
        <path class="uuid-c9a7b7fd-aa3d-4809-b86b-55c89cf5cee9" d="M0,464.74l1.05-2.83,2.44-1.05,10.41-.59,2.57.46,2.44-.33,2.7,1.12,4.41,4.87,2.31,1.45,2.31,1.25,6.85.66,2.44-.4,4.22-.26,4.55-2.04,1.78-2.04,1.05-3.36-.79-3.36-1.78-1.65-4.81-2.31-21.21-2.44-4.87-1.58-9.16-5.01-5.01-6.19-2.11-4.74-.99-5.4-.13-4.15.4-6.65,2.44-7.38,4.74-6.32,6.46-4.48,4.61-2.7,5.14-1.65,2.44-.4,2.7-.13,2.96-.79,10.34.26,5.27,1.05,7.58,2.57,8.89,6.26,2.96,4.02,3.76,7.05.33,2.5.53,2.57-1.12,2.31-2.57,1.91-2.37-.26h-2.7l-3.69-.26-6.32.53-2.96-1.78-2.04-2.7-2.31-1.84-2.37-1.65-2.44-.66-4.35-.53-4.28.13-2.44.53-2.17,1.19-2.04,1.52-1.58,1.71-.72,3.69.59,4.02,1.98,1.91,5.01,2.44,7.18,1.45h3.89l2.83.53,2.7.13,2.7.46,10.54,3.23,2.44,1.45,2.11,1.12,2.44,2.11,3.56,4.08,1.45,2.17,2.04,7.77.26,4.35-.79,6.72-.86,2.31-.79,2.44-1.52,2.96-1.32,1.91-3.89,4.02-9.22,5.53-2.57,1.25-2.37.26-2.7,1.05-2.7.4-2.7.66-2.7.33-10.67-.33-5.53-.92-5.27-1.91-2.7-.79-2.57-1.19-1.84-2.04-4.74-2.96-1.78-2.04-1.84-1.71-2.57-5.01-.86-2.44-.53-2.7-.4-2.7Z"/>
        <path class="uuid-c9a7b7fd-aa3d-4809-b86b-55c89cf5cee9" d="M90.05,486.08l.59-2.7.13-2.7-.26-5.27v-2.68l-.26-3.1.4-2.44-.13-2.57.26-2.96-.4-2.83.26-5.38-.4-5.27.4-2.83v-24.09l-.26-2.42.26-2.83-.59-6.92.59-3.89-.26-5.38,1.32-2.96,3.89-.97,17.72-.4,2.44.26,5.2-.13,2.7.26,5.99-.26,2.64.46,2.44-.33,10.8.13,2.83,1.23,1.38,2.7-.4,2.55-.2,2.94.46,2.55.26,5.51-1.52,2.42-2.83,1.45-25.89.13-4.22,1.25-1.32,3.89.26,4.15,1.65,2.44,2.24,1.52,10.67-.13,3.1.26h2.83l2.7-.26,5.4.13,2.31,1.45,1.25,2.57.26,2.7-.26,10.67-1.38,2.57-2.7,1.52-2.44.13-2.83-.33-3.62.33-7.18-.46-2.7.33h-5.2l-2.44,1.45-1.25,2.83-.13,6.59,1.25,4.22,2.83,1.58,2.96-.26,2.96.26,2.57-.4,17.79.26,4.02,1.38,1.78,2.7-.26,2.57.13,8.37-.26,2.57-1.25,2.57-2.83,1.32-2.5.26-8.23-.53-8.23.4-2.44-.4-30.5.26-2.57-1.45-1.78-2.57Z"/>
        <path class="uuid-c9a7b7fd-aa3d-4809-b86b-55c89cf5cee9" d="M167.33,400.77l1.78-3.62,3.89-1.52,14.03-.26,3.56,1.65,1.32,4.02.26,6.68-.26,2.96.4,21.06-.4,2.83.4,2.96-.4,3.84.13,6.72-.26,2.83.26,2.72-.13,2.96.4,2.57-.13,5.01.86,2.99,2.83,1.19,23.72.26,2.96-.4,2.17,1.36,1.71,2.96-.4,2.55.4,2.94-.26,2.42-.13,2.7.26,2.94-1.45,2.35-3.76,1.38-47.76.26-4.35-1.65-1.19-2.35-.26-2.81.53-2.57-.26-2.7.13-16.47-.26-2.44-.13-5.4.4-2.7-.4-5.4.4-2.55-.4-5.8.4-2.57-.26-2.7.4-2.44-.4-2.85.26-2.64-.13-2.57.4-2.96-.26-2.59-.4-2.7.4-2.83.26-2.57-.86-7.07Z"/>
        <path class="uuid-c9a7b7fd-aa3d-4809-b86b-55c89cf5cee9" d="M239.86,486.08l.59-2.7.13-2.7-.26-5.27v-2.68l-.26-3.1.4-2.44-.13-2.57.26-2.96-.4-2.83.26-5.38-.4-5.27.4-2.83v-24.09l-.26-2.42.26-2.83-.59-6.92.59-3.89-.26-5.38,1.32-2.96,3.89-.97,17.72-.4,2.44.26,5.2-.13,2.7.26,5.99-.26,2.64.46,2.44-.33,10.8.13,2.83,1.23,1.38,2.7-.4,2.55-.2,2.94.46,2.55.26,5.51-1.52,2.42-2.83,1.45-25.89.13-4.22,1.25-1.32,3.89.26,4.15,1.65,2.44,2.24,1.52,10.67-.13,3.1.26h2.83l2.7-.26,5.4.13,2.31,1.45,1.25,2.57.26,2.7-.26,10.67-1.38,2.57-2.7,1.52-2.44.13-2.83-.33-3.62.33-7.18-.46-2.7.33h-5.2l-2.44,1.45-1.25,2.83-.13,6.59,1.25,4.22,2.83,1.58,2.96-.26,2.96.26,2.57-.4,17.79.26,4.02,1.38,1.78,2.7-.26,2.57.13,8.37-.26,2.57-1.25,2.57-2.83,1.32-2.5.26-8.23-.53-8.23.4-2.44-.4-30.5.26-2.57-1.45-1.78-2.57Z"/>
        <path class="uuid-c9a7b7fd-aa3d-4809-b86b-55c89cf5cee9" d="M311.27,442.64l2.44-16.89,6.19-12.1,1.58-2.31,3.69-3.36,1.58-2.15,9.49-6.04,2.37-.9,2.04-1.25,2.57-.92,5.27-1.12,2.57-.77,2.31-.26h12.25l6.72.92,5.27,1.49,7.71,3.49,2.96,2.02,7.05,6.3,4.94,6.9,2.17,5.05.4,2.44,1.12,2.7-.86,2.9-2.11,1.27-2.7.29-13.64-.26-2.96-1.27-2.44-2.59-1.25-2.26-1.98-2.2-3.95-3.25-2.83-1.01-5.07-.92-8.37-.26-4.74,1.32-2.57,1.12-4.48,3.23-3.36,4.17-2.31,4.87-.79,2.44-.13,2.7-.92,2.46-.13,4.28.4,6.39,1.58,5.23,1.12,2.31,5.01,6.54,1.71,1.84,2.57,1.25,7.31,2.7,7.51.13,2.83-.26,2.7-.86,4.61-2.31,5.14-5.56,1.05-2.24,2.7-2.57,2.96-1.38,14.43.13,3.43,1.52.79,2.44-.4,2.57-.99,2.72-.66,2.57-1.19,2.37-4.08,7.05-2.31,1.73-1.45,2.31-1.78,1.78-2.31,1.65-2.37,1.45-2.04,1.38-7.44,3.25-13.04,2.7-8.1-.46h-2.57l-2.44-.53-2.83-.26-2.83-.92-2.04-.53-2.7-1.01-9.16-4.94-2.04-1.65-2.31-1.52-4.81-4.7-5.4-7.84-.99-2.31-1.32-2.46-.4-2.44-1.12-2.5-1.32-5.27v-5.42l-.53-4.35Z"/>
        <path class="uuid-c9a7b7fd-aa3d-4809-b86b-55c89cf5cee9" d="M410.28,413.09l.13-13.5,1.32-2.7,2.96-1.38,40.2.26,3.09-.4h2.7l2.7.26h2.7l2.96-.4h2.57l2.11.26,3.29-.26,2.7,1.38,1.32,2.7-.26,11.07.26,2.83-1.32,2.7-3.16,1.19-7.38-.13-2.44.26-2.7-.13-2.31.13-2.96,1.25-1.05,2.37.26,2.96-.4,2.7.53,26.88-.4,5.67.26,2.44-.26,8.23-.4,2.83.4,2.31.13,5.4-.26,3.1.13,2.57-1.12,2.7-2.69,1.05h-8.34l-2.56.26-2.64-.26-2.56.26-2.82-1.32-1.12-2.83-.13-10.54.26-2.7-.4-8.23.13-2.83-.13-2.7.53-4.08-.4-3.89v-5.4l.26-2.7-.26-2.57.4-4.15-.4-14.82-1.32-2.57-2.44-1.52-11.99-.13-3.56.4-2.7-1.32-1.45-2.96Z"/>
        <path class="uuid-c9a7b7fd-aa3d-4809-b86b-55c89cf5cee9" d="M489.93,486.08v-10.41l.26-2.57,1.62-2.57,8.79-2.83,1.37-2.96.26-5.27-.53-5.8.66-2.7-.53-5.27.26-2.7.13-5.53-.4-3.1-.13-2.31.4-11.46-1.78-2.44-8.23-2.83-1.32-2.5v-2.57l-.26-2.7v-2.96l.26-2.31v-2.57l1.45-2.83,2.96-1.38,5.27.26,2.57-.13,8.29.13,2.98-.26,17.19.13,4.35,1.25,1.05,2.7.26,2.7-.26,2.44v7.91l-1.52,2.57-2.5,1.52-2.96.13-2.57,1.52-1.52,2.37v5.67l.26,2.83-.26,2.7.26,2.57-.26,4.22.26,4.02-.53,5.67.53,5.4-.26,11.07,1.52,2.7,9.03,2.83,1.84,2.31-.4,8.23.26,2.44v2.96l-1.45,2.44-2.57,1.32-40.05-.26-2.7-.92-1.38-2.83Z"/>
        <path class="uuid-c9a7b7fd-aa3d-4809-b86b-55c89cf5cee9" d="M554.23,486.08l.59-2.7.13-2.7-.26-5.27v-2.68l-.26-3.1.4-2.44-.13-2.57.26-2.96-.4-2.83.26-5.38-.4-5.27.4-2.83v-24.09l-.26-2.42.26-2.83-.59-6.92.59-3.89-.26-5.38,1.32-2.96,3.89-.97,17.72-.4,2.44.26,5.2-.13,2.7.26,5.99-.26,2.64.46,2.44-.33,10.8.13,2.83,1.23,1.38,2.7-.4,2.55-.2,2.94.46,2.55.26,5.51-1.52,2.42-2.83,1.45-25.89.13-4.22,1.25-1.32,3.89.26,4.15,1.65,2.44,2.24,1.52,10.67-.13,3.1.26h2.83l2.7-.26,5.4.13,2.31,1.45,1.25,2.57.26,2.7-.26,10.67-1.38,2.57-2.7,1.52-2.44.13-2.83-.33-3.62.33-7.18-.46-2.7.33h-5.2l-2.44,1.45-1.25,2.83-.13,6.59,1.25,4.22,2.83,1.58,2.96-.26,2.96.26,2.57-.4,17.79.26,4.02,1.38,1.78,2.7-.26,2.57.13,8.37-.26,2.57-1.25,2.57-2.83,1.32-2.5.26-8.23-.53-8.23.4-2.44-.4-30.5.26-2.57-1.45-1.78-2.57Z"/>
        <path class="uuid-c9a7b7fd-aa3d-4809-b86b-55c89cf5cee9" d="M623,399.85l.72-3.1,2.83-.99h5.14l2.11-.26,8.5.13,2.31-.26,3.36,1.65,2.17,2.44.66,2.7.86,2.44.53,2.83,2.04,5.2,1.32,2.57,7.71,29.84.79-.13,1.52-2.7.4-2.31,1.45-2.83.99-2.57.4-2.57,2.96-7.51.79-2.96,3.76-9.88,1.25-5.27,2.44-5.27,1.58-2.7,2.96-1.45,2.57.13,3.49,1.19,2.04,2.7,5.67,15.55.4,2.7,1.25,2.7.53,2.57,4.87,12.91.4,2.57,1.45,2.31.46,2.44,1.19.26,5.93-23.32,1.65-4.08.66-2.44,1.19-2.7,2.31-7.91,1.25-2.31.66-2.7,2.04-2.44,3.1-1.52,2.37.13,14.76-.26,4.15,1.12.53,3.23-3.49,11.33-1.45,2.31-2.44,7.64-1.38,2.44-.53,2.57-1.19,2.7-1.38,5.01-1.45,2.57-3.1,9.95-3.03,6.26-1.05,3.89-1.05,2.83-.53,2.57-1.38,2.44-1.78,5.4-2.11,4.68-1.52,5.27-2.44,5.01-.53,2.57-2.31,2.44-3.36,1.19-4.61.26-3.1-1.19-2.44-2.96-1.98-4.87-.53-2.57-.99-2.44-1.45-2.7-2.04-4.94-.79-2.57-2.17-4.87-.66-2.7-1.25-2.57-1.32-2.57-.66-2.31-1.38-2.7-1.05.2-.86,2.37-2.37,5.27-.59,2.31-5.4,12.85-.66,2.7-1.05,2.11-1.91,5.4-2.44,4.74-2.17,2.7-3.1,1.05h-5.27l-2.96-.92-1.98-2.57-2.17-5.14-1.38-5.27-9.95-25.23-.4-2.57-1.38-2.83-.4-2.5-3.1-7.44-.53-2.44-1.25-2.7-.66-2.44-1.19-2.57-2.57-7.64-1.38-2.31-.66-2.83-1.19-2.44-1.65-5.01-1.19-2.57-.72-3.49Z"/>
        <path class="uuid-c9a7b7fd-aa3d-4809-b86b-55c89cf5cee9" d="M760.16,486.08l.59-2.7.13-2.7-.26-5.27v-2.68l-.26-3.1.4-2.44-.13-2.57.26-2.96-.4-2.83.26-5.38-.4-5.27.4-2.83v-24.09l-.26-2.42.26-2.83-.59-6.92.59-3.89-.26-5.38,1.32-2.96,3.89-.97,17.72-.4,2.44.26,5.2-.13,2.7.26,5.99-.26,2.64.46,2.44-.33,10.8.13,2.83,1.23,1.38,2.7-.4,2.55-.2,2.94.46,2.55.26,5.51-1.52,2.42-2.83,1.45-25.89.13-4.22,1.25-1.32,3.89.26,4.15,1.65,2.44,2.24,1.52,10.67-.13,3.1.26h2.83l2.7-.26,5.4.13,2.31,1.45,1.25,2.57.26,2.7-.26,10.67-1.38,2.57-2.7,1.52-2.44.13-2.83-.33-3.62.33-7.18-.46-2.7.33h-5.2l-2.44,1.45-1.25,2.83-.13,6.59,1.25,4.22,2.83,1.58,2.96-.26,2.96.26,2.57-.4,17.79.26,4.02,1.38,1.78,2.7-.26,2.57.13,8.37-.26,2.57-1.25,2.57-2.83,1.32-2.5.26-8.23-.53-8.23.4-2.44-.4-30.5.26-2.57-1.45-1.78-2.57Z"/>
        <path class="uuid-c9a7b7fd-aa3d-4809-b86b-55c89cf5cee9" d="M837.63,424.02l.4-2.7-.4-2.7.4-2.96-.26-5.14.13-2.7-.26-2.7v-5.53l1.97-2.57,2.43-1.52,2.82.13,2.42-.13,2.69.26,8.63-.26,2.7.26,19.17.2,5.53,1.05,7.38,2.44,2.7,1.32,5.01,3.1,3.76,3.69,2.31,1.71,3.56,4.22,1.05,2.31,3.1,4.55,2.04,5.4.66,2.44.26,2.83,2.04,7.71-.53,8.63.13,2.31-.72,2.83-.4,2.83-.92,2.44-.53,2.64-1.38,2.57-.66,2.57-4.15,6.79-5.4,6.19-11.46,7.71-7.84,2.44-8.63,1.19-24.31.13-2.83.4h-2.69l-2.81-.4h-3.09l-2.16-1.19-1.57-2.96.26-5.14-.4-10.8.26-2.7-.26-10.8.4-5.27-.4-2.83.4-2.57-.4-5.8.4-5.14-.53-10.74ZM861.61,458.94l.53,2.44-.26,2.7,1.25,2.96,3.23,1.19,11.2-.53,4.81-1.32,2.7-1.38,2.17-1.32,1.65-2.17,1.71-1.91,1.78-2.44,2.04-4.81.79-2.57.66-6.65-.4-4.15-1.58-7.97-1.78-2.17-1.52-2.57-3.36-3.76-4.55-2.96-5.4-1.65-4.08-.26-2.83.13-2.83-.13-3.89,1.52-1.65,2.44v34.65l-.4,2.7Z"/>
        <path class="uuid-c9a7b7fd-aa3d-4809-b86b-55c89cf5cee9" d="M931.44,464.47l.92-2.83,2.7-1.25,2.7.2,2.7-.33,10.28.33,2.7,1.05,2.04,2.7,1.98,1.91,2.44,1.45,2.04.92,3.1.86,4.02.26,3.82-.13,5.01-1.52,2.11-1.19,2.17-1.91.79-3.49-.66-3.49-1.91-1.65-4.81-2.04-2.7-.13-2.44-.4-11.07-.79-4.87-1.12-7.71-2.5-4.68-2.83-3.82-3.56-3.36-4.41-1.71-4.74-.99-3.76-.13-9.09,1.91-7.77,1.32-2.17.99-2.44,1.71-1.78,1.52-2.24,2.44-1.65,1.84-1.78,2.7-1.58,2.17-.79,2.17-1.38,2.44-.92,10.67-2.17,7.51-.13,2.96.66,2.44.26,2.83.53,7.44,2.57,8.63,5.93,1.78,2.04,1.32,2.17,1.78,2.17,2.11,4.81,1.12,5.27-1.25,2.57-2.57,1.65-2.5-.26-2.44.26-8.89-.26-4.22-1.38-4.48-4.68-1.98-1.65-2.96-1.05-8.63.26-2.44.53-1.91.79-2.31,1.78-1.45,1.84-.4,3.56.13,3.62,2.11,2.17,2.04,1.05,5.67,2.04,13.64,1.78,11.07,2.64,7.11,3.29,2.31,1.84,3.23,4.22,2.7,5.01.72,2.5.4,2.7-.13,8.37-.4,2.44-.86,2.7-1.05,2.44-2.7,4.35-3.76,4.28-4.35,2.96-6.98,3.82-13.24,2.5-4.35.2-3.89-.46-5.67-.4-2.57-.92-2.96-.4-9.75-4.48-2.24-1.45-3.95-3.95-3.36-4.15-2.17-5.4-.53-2.44-.26-2.96Z"/>
        <path class="uuid-c9a7b7fd-aa3d-4809-b86b-55c89cf5cee9" d="M1010.62,413.09l.13-13.5,1.32-2.7,2.96-1.38,40.2.26,3.09-.4h2.7l2.7.26h2.7l2.96-.4h2.57l2.11.26,3.29-.26,2.7,1.38,1.32,2.7-.26,11.07.26,2.83-1.32,2.7-3.16,1.19-7.38-.13-2.44.26-2.7-.13-2.31.13-2.96,1.25-1.05,2.37.26,2.96-.4,2.7.53,26.88-.4,5.67.26,2.44-.26,8.23-.4,2.83.4,2.31.13,5.4-.26,3.1.13,2.57-1.12,2.7-2.69,1.05h-8.34l-2.56.26-2.64-.26-2.56.26-2.82-1.32-1.12-2.83-.13-10.54.26-2.7-.4-8.23.13-2.83-.13-2.7.53-4.08-.4-3.89v-5.4l.26-2.7-.26-2.57.4-4.15-.4-14.82-1.32-2.57-2.44-1.52-11.99-.13-3.56.4-2.7-1.32-1.45-2.96Z"/>
        <path class="uuid-c9a7b7fd-aa3d-4809-b86b-55c89cf5cee9" d="M1092.05,464.45l.46-5.53-.46-2.96.2-5.14.26-2.83v-6.72l-.46-3.95.46-37.75,1.05-2.83,2.58-1.23,2.98.13,2.57-.4,5.56.53,2.57-.4,8.12.26,2.24-.26,2.96.26,2.7-.26,3.03.13,3.89-.13,3.36.26,11.2,2.28,4.74,2.42,6.72,5.12,1.25,2.02,1.84,1.98,3.69,7.42.66,2.7.4,2.57.66,2.55-.13,10.69-1.45,5.09-.99,2.31-1.45,2.44-.99,2.57-1.58,2.33-3.82,3.62-1.45,2.83.4,3.23,4.08,7.07,1.71,2.17,1.38,2.37,1.58,2.44,1.25,2.33,4.28,6.59,1.78,3.43-.53,2.85-2.83.66-2.96.26h-5.4l-2.7-.26-2.96.26-4.87-.26-3.36-.79-2.7-2.46-1.65-2.17-1.19-2.31-1.78-2.57-3.76-6.74-.99-2.57-3.49-4.74-2.17-2.31-3.36-1.08-2.44.13h-2.44l-2.64,1.41-1.25,2.7.26,8.37-.4,5.82.53,2.83-.26,2.83-.92,2.59-4.23,1.32h-4.03l-2.84-.26-5.54.4-2.58-.13-2.71-1.32-.92-3.03-.4-10.5.26-2.83-.59-7.84ZM1116.29,421.06l.4,15.11,1.38,2.85,2.24,1.19h3.03l2.7.4,10.47-.92,2.04-.92,1.65-1.67,1.45-2.31,1.05-2.7.46-3.62-.26-3.91-.99-2.17-1.32-2.04-4.22-2.57-6.19-.79-7.44-.13-2.11.13-2.7,1.38-1.65,2.7Z"/>
        <path class="uuid-c9a7b7fd-aa3d-4809-b86b-55c89cf5cee9" d="M1182.43,486.08v-10.41l.26-2.57,1.62-2.57,8.79-2.83,1.37-2.96.26-5.27-.53-5.8.66-2.7-.53-5.27.26-2.7.13-5.53-.4-3.1-.13-2.31.4-11.46-1.78-2.44-8.23-2.83-1.32-2.5v-2.57l-.26-2.7v-2.96l.26-2.31v-2.57l1.45-2.83,2.96-1.38,5.27.26,2.57-.13,8.29.13,2.98-.26,17.19.13,4.35,1.25,1.05,2.7.26,2.7-.26,2.44v7.91l-1.52,2.57-2.5,1.52-2.96.13-2.57,1.52-1.52,2.37v5.67l.26,2.83-.26,2.7.26,2.57-.26,4.22.26,4.02-.53,5.67.53,5.4-.26,11.07,1.52,2.7,9.03,2.83,1.84,2.31-.4,8.23.26,2.44v2.96l-1.45,2.44-2.57,1.32-40.05-.26-2.7-.92-1.38-2.83Z"/>
        <path class="uuid-c9a7b7fd-aa3d-4809-b86b-55c89cf5cee9" d="M1239.22,458.81l.26-3.76.4-2.33-.26-2.7,1.38-2.44,2.7-1.08,11.59-.13,2.44-.33,3.1,1.27,1.58,3.89-.26,2.2v5.27l1.12,3.65,1.05,2.7,1.91,2.06,1.84,1.32,2.31.99,4.08.4,4.41-.13,2.17-1.12,2.44-1.58,1.71-2.06.86-2.57.65-18.97-.4-2.64.13-3.18.4-2.5-.53-5.89.54-2.72-.26-5.23-1.52-2.7-2.57-1.52-8.5-.13-2.37.13-3.16-1.43-1.19-2.42v-2.92l.26-2.81-.26-2.28.13-5.34,1.19-2.66,2.83-1.62,2.7.26,4.22-.4,3.89.4,4.35-.26,8.32.46,6.91-.46,3.32.13,2.65-.26,2.5,1.62,1.05,2.55.1,2.53-.19,5.2.19,2.57.05,18.6-.15,2.7.1,2.44-.34,32.46-1.09,2.5-.26,2.31-1.15,2.59-1.62,2.44-7.38,8.15-4.94,2.96-7.77,3.1-8.26,1.67-8.1-.26-10.28-2.06-2.64-1.12-2.31-1.45-2.57-1.05-2.04-1.65-1.91-1.93-4.81-6.21-2.17-5.16-.79-2.7-1.12-2.57-.4-2.46-.26-4.3Z"/>
        <path class="uuid-c9a7b7fd-aa3d-4809-b86b-55c89cf5cee9" d="M1330.39,424.02l.4-2.7-.4-2.7.4-2.96-.26-5.14.13-2.7-.26-2.7v-5.53l1.97-2.57,2.43-1.52,2.82.13,2.42-.13,2.69.26,8.63-.26,2.7.26,19.17.2,5.53,1.05,7.38,2.44,2.7,1.32,5.01,3.1,3.76,3.69,2.31,1.71,3.56,4.22,1.05,2.31,3.1,4.55,2.04,5.4.66,2.44.26,2.83,2.04,7.71-.53,8.63.13,2.31-.72,2.83-.4,2.83-.92,2.44-.53,2.64-1.38,2.57-.66,2.57-4.15,6.79-5.4,6.19-11.46,7.71-7.84,2.44-8.63,1.19-24.31.13-2.83.4h-2.69l-2.81-.4h-3.09l-2.16-1.19-1.57-2.96.26-5.14-.4-10.8.26-2.7-.26-10.8.4-5.27-.4-2.83.4-2.57-.4-5.8.4-5.14-.53-10.74ZM1354.37,458.94l.53,2.44-.26,2.7,1.25,2.96,3.23,1.19,11.2-.53,4.81-1.32,2.7-1.38,2.17-1.32,1.65-2.17,1.71-1.91,1.78-2.44,2.04-4.81.79-2.57.66-6.65-.4-4.15-1.58-7.97-1.78-2.17-1.52-2.57-3.36-3.76-4.55-2.96-5.4-1.65-4.08-.26-2.83.13-2.83-.13-3.89,1.52-1.65,2.44v34.65l-.4,2.7Z"/>
        <path class="uuid-c9a7b7fd-aa3d-4809-b86b-55c89cf5cee9" d="M1464.78,410.26l.46-5.53-.26-5.14,1.45-2.83,2.83-1.12,2.7.13,2.7-.26,2.44.26,2.57-.53,2.7.4,11.07-.26,2.7.26,2.24-.13,2.7.26,2.96-.26,10.94-.13,2.44.59h2.83l2.7,1.05,1.25,2.57.26,8.1-.13,2.7.13,2.7-1.38,2.44-2.83,1.58-2.57.13-19.3-.26-2.57.53-2.5-.13-2.96,1.1-1.25,2.5v4.19l1.05,4.13,2.83,1.25,7.84-.26,5.67.4,2.83-.26h7.97l3.1,1.71,1.38,3.84-.4,12.14-.99,2.72-2.7,1.05-3.1-.13-2.7.33-5.53-.2-5.14.33-4.28-.46-4.08.13-2.37,1.49-1.25,2.81v8.43l1.12,2.42,2.83,1.32,2.96-.26,2.57.4,2.96-.13,2.7.26,4.41-.53,6.92.13,2.5.4,3.16-.26,2.83,1.25,1.45,2.72v13.72l-1.45,2.83-2.83,1.21-19.3.26-2.7-.26-2.7.26-3.1-.13-2.57-.53-5.53.4-2.44-.13-2.96.26-9.75-.13-4.02-1.8-1.05-3.62-.26-2.96.4-9.29-.4-2.7.26-2.57.13-21.87-.4-2.42.13-11.07.26-2.57-.4-2.83.26-13.18-.46-2.96Z"/>
        <path class="uuid-c9a7b7fd-aa3d-4809-b86b-55c89cf5cee9" d="M1541.27,410.12l.66-2.31v-8.1l1.25-2.7,2.7-1.52,14.16.13,3.23,1.25,1.52,2.57v2.83l-.72,4.02v2.57l.4,3.95v10.74l-.26,2.44.13,8.37.46,2.7.26,23.78.79,2.83,1.58,1.84,2.04,1.78,2.96,1.45,2.44.72,4.48.26,3.62-.26,5.4-1.78,2.17-2.04,1.19-1.84,1.25-2.57.53-4.35-.13-6.85.26-2.7-.13-4.87.26-2.96-.53-2.44.4-10.67-.4-2.83.26-2.83-.13-5.2.26-2.7-.13-13.24,1.32-2.96,2.96-1.25,12.71.13,4.28,1.25,1.12,2.96.4,2.31-.13,10.94.4,2.7-.4,2.5.13,3.03-.26,4.15.13,3.76-.26,2.83.13,2.57.53,2.7v2.44l-.53,2.83.4,10.94-.92,13.64-.99,2.57-1.32,2.31-.86,2.7-1.71,1.98-1.52,2.44-6.06,5.4-2.17,1.52-2.37,1.05-2.17,1.32-2.7.72-2.83,1.05-5.4,1.19-6.79.33-6.46-.59-2.57-.66-2.96-.13-2.04-1.05-3.1-.99-2.57-1.05-1.98-1.65-4.61-2.7-1.78-1.71-3.62-4.48-2.7-4.55-.79-2.57-.4-2.57-.79-2.7v-2.83l-.46-3.95.13-9.68-.4-5.4.26-2.57-.13-2.7.26-2.57-.4-2.96.53-2.57-.66-8.1.4-5.07-.53-5.67Z"/>
        <path class="uuid-c9a7b7fd-aa3d-4809-b86b-55c89cf5cee9" d="M1635.14,464.45l.46-5.53-.46-2.96.2-5.14.26-2.83v-6.72l-.46-3.95.46-37.75,1.05-2.83,2.58-1.23,2.98.13,2.57-.4,5.56.53,2.57-.4,8.12.26,2.24-.26,2.96.26,2.7-.26,3.03.13,3.89-.13,3.36.26,11.2,2.28,4.74,2.42,6.72,5.12,1.25,2.02,1.84,1.98,3.69,7.42.66,2.7.4,2.57.66,2.55-.13,10.69-1.45,5.09-.99,2.31-1.45,2.44-.99,2.57-1.58,2.33-3.82,3.62-1.45,2.83.4,3.23,4.08,7.07,1.71,2.17,1.38,2.37,1.58,2.44,1.25,2.33,4.28,6.59,1.78,3.43-.53,2.85-2.83.66-2.96.26h-5.4l-2.7-.26-2.96.26-4.87-.26-3.36-.79-2.7-2.46-1.65-2.17-1.19-2.31-1.78-2.57-3.76-6.74-.99-2.57-3.49-4.74-2.17-2.31-3.36-1.08-2.44.13h-2.44l-2.64,1.41-1.25,2.7.26,8.37-.4,5.82.53,2.83-.26,2.83-.92,2.59-4.23,1.32h-4.03l-2.84-.26-5.54.4-2.58-.13-2.71-1.32-.92-3.03-.4-10.5.26-2.83-.59-7.84ZM1659.38,421.06l.4,15.11,1.38,2.85,2.24,1.19h3.03l2.7.4,10.47-.92,2.04-.92,1.65-1.67,1.45-2.31,1.05-2.7.46-3.62-.26-3.91-.99-2.17-1.32-2.04-4.22-2.57-6.19-.79-7.44-.13-2.11.13-2.7,1.38-1.65,2.7Z"/>
        <path class="uuid-c9a7b7fd-aa3d-4809-b86b-55c89cf5cee9" d="M1723.28,447.08l.4-10.94,2.32-10.41,2.05-5.14,4.17-7.11,6.59-7.71,4.61-3.36,2.44-1.25,2.04-1.45,10.08-3.76,14.3-2.04,3.69.13,7.77,1.32,10.41,3.29,2.04,1.45,4.02,1.78,3.1,2.11,3.95,3.43,3.76,4.15,2.96,4.08,2.57,4.94,3.36,10.15.99,5.53.4,6.72-.53,3.95-.2,2.83-.66,2.7-.13,2.44-1.05,5.07-2.04,5.14-5.93,9.03-1.91,1.91-1.71,2.44-3.82,3.23-2.57,1.25-1.98,1.58-4.48,2.44-10.08,3.36-8.1,1.12-7.58.13-2.83-.33-4.87-1.05-2.96-.26-3.89-1.32-10.54-5.4-4.48-3.56-1.45-1.71-2.04-1.91-1.71-2.17-1.65-1.58-6.23-12.32-1.25-5.07-.27-2.57-.66-2.44-.4-2.83ZM1748.52,447.08l1.05,5.01,1.25,2.37.66,2.17,1.91,2.57,1.71,1.91,3.62,2.96,2.17,1.19,4.87,2.04,2.96.4h7.44l2.7-.53,1.98-.92,2.44-.72,6.46-4.41,1.91-2.17.79-2.04,1.52-2.44.92-2.37,1.12-5.01.26-8.23-.4-2.44-1.25-2.57-1.58-5.14-5.27-5.53-4.22-2.96-2.44-1.05-2.37-.53-6.52-.86-3.76.26-5.27,1.38-1.78.66-6.72,4.61-3.23,4.28-.79,2.44-1.12,2.44-.4,2.57-.66,2.44v8.23Z"/>
        <path class="uuid-c9a7b7fd-aa3d-4809-b86b-55c89cf5cee9" d="M1835.87,478.11l.72-2.7-.4-8.5.4-5.4-.4-2.57v-5.67l.26-2.57-.4-4.02.53-3.69-.4-5.53.26-2.96-.26-2.44.26-2.7v-13.7l-.4-2.83v-2.57l.4-2.44v-5.53l.26-2.83,1.31-2.57,3.67-1.25,40.34.13,2.44.59,2.7,1.05,2.83.53,4.81,2.57,4.1,2.7,2.31,2.04,1.45,2.04,1.78,1.84,1.71,2.31,2.7,4.87,2.44,10.54-.13,7.91-.26,2.44-1.19,5.53-1,2.44-1.19,2.44-4.36,6.46-4.03,3.95-2.17,1.58-4.56,2.83-7.86,2.31-5.56,1.05-7.06.13-4.03-.4-2.98.4-3.63,1.38-.99,2.31v2.83l.26,2.96-.4,2.44.26,2.57-.13,5.4-1.17,2.83-2.69,1.45h-2.82l-2.94-.26-7.93.13-2.69-.26-2.81-1.05-1.05-2.83-.13-2.57.4-2.57-.59-2.57ZM1860.18,421.32l.26,18.71,1.65,2.7,2.57,1.25,3.1.26,11.07-.72,2.17-1.19,2.11-1.45,3.1-3.82,1.52-6.19-1.19-6.32-1.38-2.31-2.17-2.04-1.98-1.45-2.31-1.25-10.8-.53-3.36.26-2.7,1.12-1.65,2.96Z"/>
        <path class="uuid-c9a7b7fd-aa3d-4809-b86b-55c89cf5cee9" d="M1924.61,486.08l.59-2.7.13-2.7-.26-5.27v-2.68l-.26-3.1.4-2.44-.13-2.57.26-2.96-.4-2.83.26-5.38-.4-5.27.4-2.83v-24.09l-.26-2.42.26-2.83-.59-6.92.59-3.89-.26-5.38,1.32-2.96,3.89-.97,17.72-.4,2.44.26,5.2-.13,2.7.26,5.99-.26,2.64.46,2.44-.33,10.8.13,2.83,1.23,1.38,2.7-.4,2.55-.2,2.94.46,2.55.26,5.51-1.52,2.42-2.83,1.45-25.89.13-4.22,1.25-1.32,3.89.26,4.15,1.65,2.44,2.24,1.52,10.67-.13,3.1.26h2.83l2.7-.26,5.4.13,2.31,1.45,1.25,2.57.26,2.7-.26,10.67-1.38,2.57-2.7,1.52-2.44.13-2.83-.33-3.62.33-7.18-.46-2.7.33h-5.2l-2.44,1.45-1.25,2.83-.13,6.59,1.25,4.22,2.83,1.58,2.96-.26,2.96.26,2.57-.4,17.79.26,4.02,1.38,1.78,2.7-.26,2.57.13,8.37-.26,2.57-1.25,2.57-2.83,1.32-2.5.26-8.23-.53-8.23.4-2.44-.4-30.5.26-2.57-1.45-1.78-2.57Z"/>
        <path class="uuid-c9a7b7fd-aa3d-4809-b86b-55c89cf5cee9" d="M2001.88,486.08l.59-2.7.13-2.7-.26-5.27v-2.68l-.26-3.1.4-2.44-.13-2.57.26-2.96-.4-2.83.26-5.38-.4-5.27.4-2.83v-24.09l-.26-2.42.26-2.83-.59-6.92.59-3.89-.26-5.38,1.32-2.96,3.89-.97,17.72-.4,2.44.26,5.2-.13,2.7.26,5.99-.26,2.64.46,2.44-.33,10.8.13,2.83,1.23,1.38,2.7-.4,2.55-.2,2.94.46,2.55.26,5.51-1.52,2.42-2.83,1.45-25.89.13-4.22,1.25-1.32,3.89.26,4.15,1.65,2.44,2.24,1.52,10.67-.13,3.1.26h2.83l2.7-.26,5.4.13,2.31,1.45,1.25,2.57.26,2.7-.26,10.67-1.38,2.57-2.7,1.52-2.44.13-2.83-.33-3.62.33-7.18-.46-2.7.33h-5.2l-2.44,1.45-1.25,2.83-.13,6.59,1.25,4.22,2.83,1.58,2.96-.26,2.96.26,2.57-.4,17.79.26,4.02,1.38,1.78,2.7-.26,2.57.13,8.37-.26,2.57-1.25,2.57-2.83,1.32-2.5.26-8.23-.53-8.23.4-2.44-.4-30.5.26-2.57-1.45-1.78-2.57Z"/>
        <path class="uuid-c9a7b7fd-aa3d-4809-b86b-55c89cf5cee9" d="M2075.14,464.47l.92-2.83,2.7-1.25,2.7.2,2.7-.33,10.28.33,2.7,1.05,2.04,2.7,1.98,1.91,2.44,1.45,2.04.92,3.1.86,4.02.26,3.82-.13,5.01-1.52,2.11-1.19,2.17-1.91.79-3.49-.66-3.49-1.91-1.65-4.81-2.04-2.7-.13-2.44-.4-11.07-.79-4.87-1.12-7.71-2.5-4.68-2.83-3.82-3.56-3.36-4.41-1.71-4.74-.99-3.76-.13-9.09,1.91-7.77,1.32-2.17.99-2.44,1.71-1.78,1.52-2.24,2.44-1.65,1.84-1.78,2.7-1.58,2.17-.79,2.17-1.38,2.44-.92,10.67-2.17,7.51-.13,2.96.66,2.44.26,2.83.53,7.44,2.57,8.63,5.93,1.78,2.04,1.32,2.17,1.78,2.17,2.11,4.81,1.12,5.27-1.25,2.57-2.57,1.65-2.5-.26-2.44.26-8.89-.26-4.22-1.38-4.48-4.68-1.98-1.65-2.96-1.05-8.63.26-2.44.53-1.91.79-2.31,1.78-1.45,1.84-.4,3.56.13,3.62,2.11,2.17,2.04,1.05,5.67,2.04,13.64,1.78,11.07,2.64,7.11,3.29,2.31,1.84,3.23,4.22,2.7,5.01.72,2.5.4,2.7-.13,8.37-.4,2.44-.86,2.7-1.05,2.44-2.7,4.35-3.76,4.28-4.35,2.96-6.98,3.82-13.24,2.5-4.35.2-3.89-.46-5.67-.4-2.57-.92-2.96-.4-9.75-4.48-2.24-1.45-3.95-3.95-3.36-4.15-2.17-5.4-.53-2.44-.26-2.96Z"/>
        <path class="uuid-c9a7b7fd-aa3d-4809-b86b-55c89cf5cee9" d="M2201.75,469.74l.46-5.4-.13-2.83.4-2.44-.26-32.41-.46-2.83.72-5.34-.4-2.7-.13-2.57.4-8.1-.26-2.7v-2.83l1.83-2.44,2.16-1.78,10.88.26,2.68-.26,2.82.26,2.43,1.38,1.31,2.96.13,2.7.4,2.57-.4,19.57.4,2.44-.13,2.83,2.44,1.45,3.23-.13,5.93-1.19,2.31-1.12,2.44-1.45,2.04-1.78,1.58-2.17,1.78-1.98,1.05-2.57,1.38-5.4.66-5.67-.4-8.23,1.52-2.83,3.23-1.65,3.89.4,12.25-.4,2.83,1.52,1.12,3.1.13,5.4-.53,2.57.26,2.96-.79,5.67-.2,2.57-1.32,5.14-1.19,2.83-.72,2.37-1.32,2.57-2.96,4.61-3.95,3.89-2.37,1.52-1.25,3.1v2.96l4.74,6.79,3.89,6.98,1.65,2.44,1.05,2.44,1.65,2.17,2.57,4.55,1.98,2.31,1.12,2.57,1.32,2.31,1.91,1.98,1.19,3.29-.66,3.1-2.31,1.19-2.83-.26h-14.95l-4.61-.92-2.57-2.04-3.62-7.05-1.78-2.24-1.19-2.31-1.65-2.31-3.36-6.98-5.53-9.22-2.57-1.98-4.02-.86-3.36,1.65-1.25,2.44v8.37l-.26,2.96.4,16.34-1.31,2.96-3.93,1.32-14.09.13-3.88-1.45-.91-2.83-.4-2.7.26-2.44-.13-2.7.26-2.96-.72-5.4Z"/>
        <path class="uuid-c9a7b7fd-aa3d-4809-b86b-55c89cf5cee9" d="M2287.33,486.34l1.58-5.67,1.25-2.7,1.58-2.17,3.95-9.88,3.76-6.98.92-2.7,1.25-2.17.79-2.83,1.91-3.49.92-2.57,2.04-3.49,2.11-4.87,1.52-2.44.66-2.31,7.58-17,1.45-2.44,5.86-12.12.79-2.44,2.57-2.44,4.28-1.32,4.61,1.19,2.44,2.57.79,2.57,1.19,2.04,2.17,5.14,2.7,5.01,2.04,4.68.66,2.17,2.44,5.14.79,2.57,2.7,4.68.72,2.57,1.32,2.31,1.05,2.31,1.52,2.44.79,2.7,1.25,1.98.92,2.7,1.19,2.31,1.12,2.7,1.45,2.17,1.91,5.01,1.32,2.31.99,2.57,2.31,4.81.79,2.57,1.32,2.04.86,2.7,1.71,2.31.99,2.44.79,3.36-.53,2.83-2.44.79-8.37.26-4.74-.4-2.44.26-3.49-1.32-2.31-2.17-1.45-2.44-.66-2.44-2.83-2.17-4.48-1.45-6.32.26-2.83-.26h-2.44l-3.1.4-2.83-.4-7.58.13-2.7-.26-3.23,1.32-2.31,2.57-2.31,4.61-2.44,2.44-3.1,1.32-3.49-.4h-11.86l-2.7-.66-.66-2.83ZM2326,452.88l.46,2.7,2.5,1.05,10.54-.13,2.31-1.05.26-2.44-.92-2.44-1.38-2.7-.53-2.17-1.45-2.31-1.78-5.2-1.65-1.12-1.71,1.38-1.25,2.11-5.4,12.32Z"/>
        <path class="uuid-c9a7b7fd-aa3d-4809-b86b-55c89cf5cee9" d="M2393.12,464.34l.59-2.57-.4-59.49.26-2.83,1.45-2.7,2.7-1.52,3.89,1.12,3.95,2.83,2.96,3.1,1.45,1.84,1.91,1.78,1.52,2.04,1.71,1.84,2.31,2.04,3.23,4.08,9.35,9.55,1.58,2.17,2.17,1.71,1.58,2.31,1.78,1.78,2.44.79,2.96-.92,19.96-21.21,1.25-1.98,7.64-7.97,3.1-3.82,3.43-1.84,4.02-1.25,2.7,1.65,1.52,2.57-.2,2.83.33,2.31-.33,2.83.46,38.14-.46,2.44.33,2.7-.33,2.83.2,2.7-.46,2.7.26,5.27-.26,2.57.59,16.21-.46,2.64-1.45,2.83-2.57,1.65-16.21-.13-2.96-1.05-1.32-2.83.4-18.64-.4-5.01.13-2.7-.13-2.44.4-2.57-.4-2.64-1.12-1.65-1.58.26-1.91,1.91-1.78,2.31-11.33,11.46-2.24,1.58h-3.16l-4.41-3.62-1.78-2.31-7.51-7.11-3.43-4.22-1.98-.53-1.25,1.91.53,7.77-.4,18.25.4,2.83.13,2.83-.26,2.57-1.45,2.11-4.08,1.25-14.82.26-3.23-1.52-1.19-2.37.26-2.57-.59-19.17Z"/>
        <path class="uuid-c9a7b7fd-aa3d-4809-b86b-55c89cf5cee9" d="M2505.91,478.11l.72-2.7-.4-8.5.4-5.4-.4-2.57v-5.67l.26-2.57-.4-4.02.53-3.69-.4-5.53.26-2.96-.26-2.44.26-2.7v-13.7l-.4-2.83v-2.57l.4-2.44v-5.53l.26-2.83,1.31-2.57,3.67-1.25,40.34.13,2.44.59,2.7,1.05,2.83.53,4.81,2.57,4.1,2.7,2.31,2.04,1.45,2.04,1.78,1.84,1.71,2.31,2.7,4.87,2.44,10.54-.13,7.91-.26,2.44-1.19,5.53-1,2.44-1.19,2.44-4.36,6.46-4.03,3.95-2.17,1.58-4.56,2.83-7.86,2.31-5.56,1.05-7.06.13-4.03-.4-2.98.4-3.63,1.38-.99,2.31v2.83l.26,2.96-.4,2.44.26,2.57-.13,5.4-1.17,2.83-2.69,1.45h-2.82l-2.94-.26-7.93.13-2.69-.26-2.81-1.05-1.05-2.83-.13-2.57.4-2.57-.59-2.57ZM2530.22,421.32l.26,18.71,1.65,2.7,2.57,1.25,3.1.26,11.07-.72,2.17-1.19,2.11-1.45,3.1-3.82,1.52-6.19-1.19-6.32-1.38-2.31-2.17-2.04-1.98-1.45-2.31-1.25-10.8-.53-3.36.26-2.7,1.12-1.65,2.96Z"/>
        <path class="uuid-c9a7b7fd-aa3d-4809-b86b-55c89cf5cee9" d="M2590.63,486.08v-10.41l.26-2.57,1.62-2.57,8.79-2.83,1.37-2.96.26-5.27-.53-5.8.66-2.7-.53-5.27.26-2.7.13-5.53-.4-3.1-.13-2.31.4-11.46-1.78-2.44-8.23-2.83-1.32-2.5v-2.57l-.26-2.7v-2.96l.26-2.31v-2.57l1.45-2.83,2.96-1.38,5.27.26,2.57-.13,8.29.13,2.98-.26,17.19.13,4.35,1.25,1.05,2.7.26,2.7-.26,2.44v7.91l-1.52,2.57-2.5,1.52-2.96.13-2.57,1.52-1.52,2.37v5.67l.26,2.83-.26,2.7.26,2.57-.26,4.22.26,4.02-.53,5.67.53,5.4-.26,11.07,1.52,2.7,9.03,2.83,1.84,2.31-.4,8.23.26,2.44v2.96l-1.45,2.44-2.57,1.32-40.05-.26-2.7-.92-1.38-2.83Z"/>
        <path class="uuid-c9a7b7fd-aa3d-4809-b86b-55c89cf5cee9" d="M2648.99,447.08l.4-10.94,2.32-10.41,2.05-5.14,4.17-7.11,6.59-7.71,4.61-3.36,2.44-1.25,2.04-1.45,10.08-3.76,14.3-2.04,3.69.13,7.77,1.32,10.41,3.29,2.04,1.45,4.02,1.78,3.1,2.11,3.95,3.43,3.76,4.15,2.96,4.08,2.57,4.94,3.36,10.15.99,5.53.4,6.72-.53,3.95-.2,2.83-.66,2.7-.13,2.44-1.05,5.07-2.04,5.14-5.93,9.03-1.91,1.91-1.71,2.44-3.82,3.23-2.57,1.25-1.98,1.58-4.48,2.44-10.08,3.36-8.1,1.12-7.58.13-2.83-.33-4.87-1.05-2.96-.26-3.89-1.32-10.54-5.4-4.48-3.56-1.45-1.71-2.04-1.91-1.71-2.17-1.65-1.58-6.23-12.32-1.25-5.07-.27-2.57-.66-2.44-.4-2.83ZM2674.22,447.08l1.05,5.01,1.25,2.37.66,2.17,1.91,2.57,1.71,1.91,3.62,2.96,2.17,1.19,4.87,2.04,2.96.4h7.44l2.7-.53,1.98-.92,2.44-.72,6.46-4.41,1.91-2.17.79-2.04,1.52-2.44.92-2.37,1.12-5.01.26-8.23-.4-2.44-1.25-2.57-1.58-5.14-5.27-5.53-4.22-2.96-2.44-1.05-2.37-.53-6.52-.86-3.76.26-5.27,1.38-1.78.66-6.72,4.61-3.23,4.28-.79,2.44-1.12,2.44-.4,2.57-.66,2.44v8.23Z"/>
        <path class="uuid-c9a7b7fd-aa3d-4809-b86b-55c89cf5cee9" d="M2761.58,486.08l.59-2.7.13-2.7-.26-5.27v-2.68l-.26-3.1.4-2.44-.13-2.57.26-2.96-.4-2.83.26-5.38-.4-5.27.4-2.83v-24.09l-.26-2.42.26-2.83-.59-6.92.59-3.89-.26-5.38,1.32-2.96,3.89-.97,17.72-.4,2.44.26,5.2-.13,2.7.26,5.99-.26,2.64.46,2.44-.33,10.8.13,2.83,1.23,1.38,2.7-.4,2.55-.2,2.94.46,2.55.26,5.51-1.52,2.42-2.83,1.45-25.89.13-4.22,1.25-1.32,3.89.26,4.15,1.65,2.44,2.24,1.52,10.67-.13,3.1.26h2.83l2.7-.26,5.4.13,2.31,1.45,1.25,2.57.26,2.7-.26,10.67-1.38,2.57-2.7,1.52-2.44.13-2.83-.33-3.62.33-7.18-.46-2.7.33h-5.2l-2.44,1.45-1.25,2.83-.13,6.59,1.25,4.22,2.83,1.58,2.96-.26,2.96.26,2.57-.4,17.79.26,4.02,1.38,1.78,2.7-.26,2.57.13,8.37-.26,2.57-1.25,2.57-2.83,1.32-2.5.26-8.23-.53-8.23.4-2.44-.4-30.5.26-2.57-1.45-1.78-2.57Z"/>
        <path class="uuid-c9a7b7fd-aa3d-4809-b86b-55c89cf5cee9" d="M2838.85,464.34v-2.57l.33-2.96v-2.57l.26-2.44-.59-19.3.46-2.83-.13-2.83.26-2.44-.4-5.53.26-2.7-.26-18.84,1.71-2.57,3.23-1.65,3.69,1.12,5.34,3.62,7.31,7.44,1.78,2.24,2.31,1.65,1.32,2.04,2.57,1.71,1.45,2.04,4.22,3.49,2.83,2.96,1.45,1.91,2.17,1.65,4.74,4.81,2.04,1.65,5.93,6.06,1.84.53.72-2.17-.13-5.34.53-2.83v-2.57l-.53-2.83.13-24.57,1.32-2.83,3.21-1.38,2.69.13,2.42-.26,2.82.4,2.95-.26h2.55l2.69.26,2.95,1.38,1.64,2.44-.26,6.98.26,4.08-.59,2.7v5.4l.33,2.57-.46,5.34.59,16.21-.26,2.96.53,3.82-.72,36.69-1.17,2.83-3.09,1.45-3.47-1.05-3.93-1.78-1.71-1.71-1.65-2.04-2.16-1.78-1.71-2.17-13.09-13.04-2.17-1.78-19.27-18.91-1.71-.4-1.38,1.65.59,2.83-.46,33.07.46,2.7-1.25,2.7-2.7,1.32-3.1-.26-2.83.4-6.72-.4-4.61.26-2.57-1.45-1.19-2.96v-2.57l-.4-2.7.4-5.14-.26-2.7.13-5.53-.46-2.83Z"/>
        <path class="uuid-c9a7b7fd-aa3d-4809-b86b-55c89cf5cee9" d="M2936.55,464.47l.92-2.83,2.7-1.25,2.7.2,2.7-.33,10.28.33,2.7,1.05,2.04,2.7,1.98,1.91,2.44,1.45,2.04.92,3.1.86,4.02.26,3.82-.13,5.01-1.52,2.11-1.19,2.17-1.91.79-3.49-.66-3.49-1.91-1.65-4.81-2.04-2.7-.13-2.44-.4-11.07-.79-4.87-1.12-7.71-2.5-4.68-2.83-3.82-3.56-3.36-4.41-1.71-4.74-.99-3.76-.13-9.09,1.91-7.77,1.32-2.17.99-2.44,1.71-1.78,1.52-2.24,2.44-1.65,1.84-1.78,2.7-1.58,2.17-.79,2.17-1.38,2.44-.92,10.67-2.17,7.51-.13,2.96.66,2.44.26,2.83.53,7.44,2.57,8.63,5.93,1.78,2.04,1.32,2.17,1.78,2.17,2.11,4.81,1.12,5.27-1.25,2.57-2.57,1.65-2.5-.26-2.44.26-8.89-.26-4.22-1.38-4.48-4.68-1.98-1.65-2.96-1.05-8.63.26-2.44.53-1.91.79-2.31,1.78-1.45,1.84-.4,3.56.13,3.62,2.11,2.17,2.04,1.05,5.67,2.04,13.64,1.78,11.07,2.64,7.11,3.29,2.31,1.84,3.23,4.22,2.7,5.01.72,2.5.4,2.7-.13,8.37-.4,2.44-.86,2.7-1.05,2.44-2.7,4.35-3.76,4.28-4.35,2.96-6.98,3.82-13.24,2.5-4.35.2-3.89-.46-5.67-.4-2.57-.92-2.96-.4-9.75-4.48-2.24-1.45-3.95-3.95-3.36-4.15-2.17-5.4-.53-2.44-.26-2.96Z"/>
        <path class="uuid-c9a7b7fd-aa3d-4809-b86b-55c89cf5cee9" d="M3021.79,442.64l2.44-16.89,6.19-12.1,1.58-2.31,3.69-3.36,1.58-2.15,9.49-6.04,2.37-.9,2.04-1.25,2.57-.92,5.27-1.12,2.57-.77,2.31-.26h12.25l6.72.92,5.27,1.49,7.71,3.49,2.96,2.02,7.05,6.3,4.94,6.9,2.17,5.05.4,2.44,1.12,2.7-.86,2.9-2.11,1.27-2.7.29-13.64-.26-2.96-1.27-2.44-2.59-1.25-2.26-1.98-2.2-3.95-3.25-2.83-1.01-5.07-.92-8.37-.26-4.74,1.32-2.57,1.12-4.48,3.23-3.36,4.17-2.31,4.87-.79,2.44-.13,2.7-.92,2.46-.13,4.28.4,6.39,1.58,5.23,1.12,2.31,5.01,6.54,1.71,1.84,2.57,1.25,7.31,2.7,7.51.13,2.83-.26,2.7-.86,4.61-2.31,5.14-5.56,1.05-2.24,2.7-2.57,2.96-1.38,14.43.13,3.43,1.52.79,2.44-.4,2.57-.99,2.72-.66,2.57-1.19,2.37-4.08,7.05-2.31,1.73-1.45,2.31-1.78,1.78-2.31,1.65-2.37,1.45-2.04,1.38-7.44,3.25-13.04,2.7-8.1-.46h-2.57l-2.44-.53-2.83-.26-2.83-.92-2.04-.53-2.7-1.01-9.16-4.94-2.04-1.65-2.31-1.52-4.81-4.7-5.4-7.84-.99-2.31-1.32-2.46-.4-2.44-1.12-2.5-1.32-5.27v-5.42l-.53-4.35Z"/>
        <path class="uuid-c9a7b7fd-aa3d-4809-b86b-55c89cf5cee9" d="M3129.5,426.53l.59-2.7-.26-2.24.4-2.96-.72-8.1.46-2.57-.26-2.96v-2.57l.4-2.96,1.45-2.31,4.22-1.19,2.57-.33,2.7.33,7.91-.33,4.22,1.38,1.58,2.83-.13,2.31.46,13.37-.33,2.37v8.1l1.12,2.57,2.83,1.25,13.04-.13,2.44.26h5.4l2.31-1.38,1.52-2.7v-7.84l.53-2.24-.26-14.76,1.05-3.89,4.08-1.19h2.64l4.35-.46,6.85.13,4.22,1.38,1.32,2.7.33,2.7-.59,2.7.26,2.57.59,2.57-.72,11.2.46,13.18-.33,2.96.13,5.14-.4,2.83v2.7l.26,2.83-.13,2.7.59,5.14v21.74l-.59,5.53-1.45,2.57-2.7,1.45h-9.29l-4.08-.4-2.7.26-2.7-1.32-1.32-2.83-.4-5.27.53-4.08-.53-9.55.4-2.57-.4-8.23-1.38-2.7-2.44-1.32h-2.57l-2.7-.33-2.7.33h-7.91l-2.44-.33h-2.83l-2.7,1.65-1.38,2.83.4,10.67-.26,2.83.13,2.96-.26,2.57.26,2.7-.26,2.44.4,2.96-.13,2.7-1.05,2.7-2.96,1.19-2.83.26-2.83-.4-3.89-.13-4.22.4h-2.57l-3.1-1.19-1.05-2.83-.26-13.77.26-2.7-.4-2.44.4-2.7-.26-2.96.4-6.32-.26-3.1.26-4.22-.4-2.57v-7.84l.26-2.83-.59-8.23Z"/>
        <path class="uuid-c9a7b7fd-aa3d-4809-b86b-55c89cf5cee9" d="M3220.35,486.34l1.58-5.67,1.25-2.7,1.58-2.17,3.95-9.88,3.76-6.98.92-2.7,1.25-2.17.79-2.83,1.91-3.49.92-2.57,2.04-3.49,2.11-4.87,1.52-2.44.66-2.31,7.58-17,1.45-2.44,5.86-12.12.79-2.44,2.57-2.44,4.28-1.32,4.61,1.19,2.44,2.57.79,2.57,1.19,2.04,2.17,5.14,2.7,5.01,2.04,4.68.66,2.17,2.44,5.14.79,2.57,2.7,4.68.72,2.57,1.32,2.31,1.05,2.31,1.52,2.44.79,2.7,1.25,1.98.92,2.7,1.19,2.31,1.12,2.7,1.45,2.17,1.91,5.01,1.32,2.31.99,2.57,2.31,4.81.79,2.57,1.32,2.04.86,2.7,1.71,2.31.99,2.44.79,3.36-.53,2.83-2.44.79-8.37.26-4.74-.4-2.44.26-3.49-1.32-2.31-2.17-1.45-2.44-.66-2.44-2.83-2.17-4.48-1.45-6.32.26-2.83-.26h-2.44l-3.1.4-2.83-.4-7.58.13-2.7-.26-3.23,1.32-2.31,2.57-2.31,4.61-2.44,2.44-3.1,1.32-3.49-.4h-11.86l-2.7-.66-.66-2.83ZM3259.02,452.88l.46,2.7,2.5,1.05,10.54-.13,2.31-1.05.26-2.44-.92-2.44-1.38-2.7-.53-2.17-1.45-2.31-1.78-5.2-1.65-1.12-1.71,1.38-1.25,2.11-5.4,12.32Z"/>
        <path class="uuid-c9a7b7fd-aa3d-4809-b86b-55c89cf5cee9" d="M3326.15,478.11l.72-2.7-.4-8.5.4-5.4-.4-2.57v-5.67l.26-2.57-.4-4.02.53-3.69-.4-5.53.26-2.96-.26-2.44.26-2.7v-13.7l-.4-2.83v-2.57l.4-2.44v-5.53l.26-2.83,1.31-2.57,3.67-1.25,40.34.13,2.44.59,2.7,1.05,2.83.53,4.81,2.57,4.1,2.7,2.31,2.04,1.45,2.04,1.78,1.84,1.71,2.31,2.7,4.87,2.44,10.54-.13,7.91-.26,2.44-1.19,5.53-1,2.44-1.19,2.44-4.36,6.46-4.03,3.95-2.17,1.58-4.56,2.83-7.86,2.31-5.56,1.05-7.06.13-4.03-.4-2.98.4-3.63,1.38-.99,2.31v2.83l.26,2.96-.4,2.44.26,2.57-.13,5.4-1.17,2.83-2.69,1.45h-2.82l-2.94-.26-7.93.13-2.69-.26-2.81-1.05-1.05-2.83-.13-2.57.4-2.57-.59-2.57ZM3350.45,421.32l.26,18.71,1.65,2.7,2.57,1.25,3.1.26,11.07-.72,2.17-1.19,2.11-1.45,3.1-3.82,1.52-6.19-1.19-6.32-1.38-2.31-2.17-2.04-1.98-1.45-2.31-1.25-10.8-.53-3.36.26-2.7,1.12-1.65,2.96Z"/>
      </g>
      <g>
        <path class="uuid-a7efd51a-34df-4815-ab79-3bba7730e0b6" d="M0,193.07l2.05-89.44-1.37-19.62.91-27.38-.46-8.44.46-9.81-.91-8.44v-10.27l4.54-9.84,10.21-4.81,56.24.91,8.39-1.82,18.3,2.28,8.24-1.82,48.26,1.37,18.29,4.35,8.01,2.75,8.92,4.35,8,4.58,6.4,5.26,7.09,4.58,7.09,6.64,15.55,21.51,3.2,9.84,3.66,16.94.91,14.42-.46,16.02-5.47,16.94-8.89,18.08-3.42,8.93,4.79,10.76,7.53,6.64,5.93,7.1,8.44,19.23,5.25,16.94-.91,37.75-3.88,8.79-2.74,8.78-4.8,9.24-12.56,17.12-18.72,14.87-8.45,4.05-26.03,7.44-8.45,1.35-48.18,2.26-9.36-1.36-67.81.9-13.83-1.35-15.42,1.35-8.85-5.64-4.08-9.01-.91-8.9.91-102.44L0,193.07ZM80.96,246.03l5.93,9.39,8.44,3.2,36.03.91,25.77-2.28,7.75-5.04,5.25-6.64,2.28-13.5-2.74-11.9-4.79-8.24-7.75-3.43-44.02-4.12-9.81.92-8.89-1.37-7.98,5.95-4.11,8.01-1.37,28.15ZM81.42,98.86l.46,16.02,5.02,13.05,9.81,5.72,36.03-1.6,13.68-4.57,6.84-5.72,3.42-13.51-1.6-14.19-3.65-7.33-7.53-3.89-48.12-3.21-8.89,5.72-5.47,13.51Z"/>
        <path class="uuid-a7efd51a-34df-4815-ab79-3bba7730e0b6" d="M308.11,188.15l2.05-19.16-1.37-7.98.91-57.47-1.6-9.12,1.6-9.35-.91-57.02.91-7.98,4.11-8.89,9.35-6.16,10.26-.46,9.35.91,8.89-.46,23.26,2.51,13.68,4.11,5.93,7.53-.91,19.16.46,14.37-.91,11.18.91,8.44.46,33.75-.46,8.89,2.51,9.81,7.75,5.47h10.26l9.35-2.74,10.26-1.37,8.44-3.88,16.42-11.63,10.72-14.82,2.74-9.81,2.96-7.07,3.65-30.33-.46-9.35,1.37-8.89v-10.26l3.88-8.89,9.81-5.7,13.91-.46,13.91,2.05,15.51-2.05,13.91,1.37,10.26,4.33,4.33,9.35-1.37,28.96.91,9.35-3.19,29.88-7.98,27.14-3.42,8.44-6.84,12.09-15.05,19.16-14.37,12.09-6.16,9.81,1.82,10.72,15.51,24.86,3.65,7.75,5.25,8.89,5.02,6.61,14.6,23.95,5.93,7.3,28.96,52.91-2.28,10.26-9.81,2.28-9.35-.46-8.44.91-47.21.46-10.72-4.56-8.89-8.89-4.56-6.16-4.79-8.89-5.47-7.07-8.89-17.1-4.33-6.61-3.19-7.98-19.16-31.24-3.19-9.81-4.79-7.53-10.72-7.98-12.54-.91-11.63,5.25-5.25,7.98,1.37,49.03-1.37,9.81.91,37.4-5.02,10.26-9.35,3.65-15.05,1.37-13-.91-28.96,1.37-8.44-5.47-4.56-14.6-.91-23.72.91-9.35-.91-9.81.46-7.53-.91-19.16,1.37-19.16-.91-8.44.46-18.25-1.6-10.26Z"/>
        <path class="uuid-a7efd51a-34df-4815-ab79-3bba7730e0b6" d="M724.79,19.16l3.65-9.35,7.53-3.42h17.79l9.35-1.37,26.68.91,10.72,4.79,7.98,7.98,13,35.35,12.09,24.86,23.49,60.67,7.75,15.96,2.05,8.89,11.63,25.09,5.02.91,4.79-8.21,9.35-26.23,4.56-8.44,1.82-8.44,4.33-7.98,2.74-9.81,43.56-102.63,7.75-7.98,10.26-6.16,17.79,1.82,9.35-.46,8.89-.91,8.44,1.37,9.81,1.14,8.44,1.82,2.28,9.81-3.19,12.54-8.89,16.42-2.28,8.89-7.98,16.65-4.79,8.44-40.6,96.24-8.44,15.05-3.19,10.26-18.25,42.42-5.02,8.44-2.96,7.98-4.56,9.81-2.74,9.35-8.89,14.82-2.96,9.81-5.93,13.23-10.26,13.46-11.18,3.65-8.89-1.37-10.26-3.65-9.35-7.98-4.33-7.07-18.7-44.24-2.28-9.35-5.25-8.44-7.75-15.96-3.42-9.81-11.63-24.17-2.74-9.35-41.96-94.42-3.42-9.81-5.02-7.07-3.88-9.12-2.28-8.89-4.56-7.07-15.05-39.68Z"/>
        <path class="uuid-a7efd51a-34df-4815-ab79-3bba7730e0b6" d="M1073.04,319.06l2.05-9.34.46-9.33-.91-18.22v-9.34l-.91-10.71,1.37-8.43-.46-8.88.91-10.25-1.37-9.8.91-18.68-1.37-18.22,1.37-9.79v-83.37l-.91-8.43.91-9.79-2.05-23.92,2.05-13.44-.91-18.68,4.56-10.2,13.46-3.4,61.35-1.37,8.44.91,18.02-.46,9.35.91,20.75-.91,9.12,1.59,8.44-1.14,37.4.45,9.81,4.31,4.79,9.29-1.37,8.84-.68,10.2,1.6,8.84.91,19.04-5.25,8.38-9.81,4.99-89.63.45-14.6,4.33-4.56,13.46.91,14.37,5.7,8.44,7.75,5.25,36.95-.46,10.72.91h9.81l9.35-.91,18.7.46,7.98,5.02,4.33,8.89.91,9.35-.91,36.95-4.79,8.89-9.35,5.25-8.44.46-9.81-1.14-12.54,1.14-24.86-1.6-9.35,1.14h-18.02l-8.44,5.02-4.33,9.81-.46,22.81,4.33,14.6,9.81,5.47,10.26-.91,10.26.91,8.89-1.37,61.58.91,13.91,4.79,6.16,9.35-.91,8.89.46,28.96-.91,8.89-4.33,8.89-9.81,4.56-8.67.91-28.51-1.82-28.51,1.37-8.44-1.37-105.59.91-8.89-5.02-6.16-8.89Z"/>
        <path class="uuid-a7efd51a-34df-4815-ab79-3bba7730e0b6" d="M1340.56,23.75l6.16-12.57,13.46-5.25,48.58-.91,12.32,5.71,4.56,13.94.91,23.08-.91,10.28,1.37,72.89-1.37,9.83,1.37,10.28-1.37,13.25.46,23.3-.91,9.82.91,9.37-.46,10.28,1.37,8.91-.46,17.36,2.96,10.28,9.81,4.11,82.1.91,10.26-1.37,7.53,4.76,5.93,10.2-1.37,8.84,1.37,10.2-.91,8.39-.46,9.29.91,10.2-5.02,8.16-13,4.76-165.35.91-15.05-5.67-4.11-8.16-.91-9.75,1.82-8.84-.91-9.35.46-57.01-.91-8.44-.46-18.7,1.37-9.35-1.37-18.7,1.37-8.89-1.37-20.07,1.37-8.89-.91-9.35,1.37-8.44-1.37-9.83.91-9.14-.46-8.91,1.37-10.28-.91-8.91-1.37-9.37,1.37-9.83.91-8.91-2.96-24.45Z"/>
        <path class="uuid-a7efd51a-34df-4815-ab79-3bba7730e0b6" d="M1592.34,104.23l1.37-9.35-1.37-9.35,1.37-10.26-.91-17.79.45-9.35-.91-9.35v-19.16l6.81-8.89,8.4-5.25,9.75.46,8.39-.46,9.3.91,29.87-.91,9.35.91,66.37.68,19.16,3.65,25.54,8.44,9.35,4.56,17.33,10.72,13,12.77,7.98,5.93,12.32,14.6,3.65,7.98,10.72,15.74,7.07,18.7,2.28,8.44.91,9.81,7.07,26.68-1.82,29.88.46,7.98-2.51,9.81-1.37,9.81-3.19,8.44-1.82,9.12-4.79,8.89-2.28,8.89-14.37,23.49-18.7,21.44-39.68,26.68-27.14,8.44-29.88,4.11-84.16.46-9.81,1.37h-9.3l-9.75-1.37h-10.66l-7.48-4.11-5.45-10.26.91-17.79-1.36-37.4.91-9.35-.91-37.4,1.37-18.25-1.37-9.81,1.37-8.89-1.37-20.07,1.37-17.79-1.82-37.17ZM1675.36,225.1l1.82,8.44-.91,9.35,4.33,10.26,11.18,4.11,38.77-1.82,16.65-4.56,9.35-4.79,7.53-4.56,5.7-7.53,5.93-6.61,6.16-8.44,7.07-16.65,2.74-8.89,2.28-23.03-1.37-14.37-5.47-27.6-6.16-7.53-5.25-8.89-11.63-13-15.74-10.26-18.7-5.7-14.14-.91-9.81.46-9.81-.46-13.46,5.25-5.7,8.44v119.96l-1.37,9.35Z"/>
        <path class="uuid-a7efd51a-34df-4815-ab79-3bba7730e0b6" d="M1931.02,23.75l6.16-12.57,13.46-5.25,48.58-.91,12.32,5.71,4.56,13.94.91,23.08-.91,10.28,1.37,72.89-1.37,9.83,1.37,10.28-1.37,13.25.46,23.3-.91,9.82.91,9.37-.46,10.28,1.37,8.91-.46,17.36,2.96,10.28,9.81,4.11,82.1.91,10.26-1.37,7.53,4.76,5.93,10.2-1.37,8.84,1.37,10.2-.91,8.39-.46,9.29.91,10.2-5.02,8.16-13,4.76-165.35.91-15.05-5.67-4.11-8.16-.91-9.75,1.82-8.84-.91-9.35.46-57.01-.91-8.44-.46-18.7,1.37-9.35-1.37-18.7,1.37-8.89-1.37-20.07,1.37-8.89-.91-9.35,1.37-8.44-1.37-9.83.91-9.14-.46-8.91,1.37-10.28-.91-8.91-1.37-9.37,1.37-9.83.91-8.91-2.96-24.45Z"/>
        <path class="uuid-a7efd51a-34df-4815-ab79-3bba7730e0b6" d="M2152.47,184.05l1.38-37.86,8.03-36.03,7.1-17.79,14.44-24.63,22.81-26.68,15.96-11.63,8.44-4.33,7.07-5.02,34.89-13,49.49-7.07,12.77.46,26.91,4.56,36.03,11.4,7.07,5.02,13.91,6.16,10.72,7.3,13.68,11.86,13,14.37,10.26,14.14,8.89,17.1,11.63,35.12,3.42,19.16,1.37,23.26-1.82,13.68-.68,9.81-2.28,9.35-.46,8.44-3.65,17.56-7.07,17.79-20.53,31.24-6.61,6.61-5.93,8.44-13.23,11.18-8.89,4.33-6.84,5.47-15.51,8.44-34.89,11.63-28.05,3.88-26.23.46-9.81-1.14-16.88-3.65-10.26-.91-13.46-4.56-36.49-18.7-15.51-12.32-5.02-5.93-7.07-6.61-5.93-7.53-5.7-5.47-21.55-42.65-4.36-17.56-.92-8.89-2.29-8.44-1.38-9.81ZM2239.82,184.05l3.65,17.33,4.33,8.21,2.28,7.53,6.61,8.89,5.93,6.61,12.54,10.26,7.53,4.11,16.88,7.07,10.26,1.37h25.77l9.35-1.82,6.84-3.19,8.44-2.51,22.35-15.28,6.61-7.53,2.74-7.07,5.25-8.44,3.19-8.21,3.88-17.33.91-28.51-1.37-8.44-4.33-8.89-5.47-17.79-18.25-19.16-14.6-10.26-8.44-3.65-8.21-1.82-22.58-2.96-13,.91-18.25,4.79-6.16,2.28-23.26,15.96-11.18,14.82-2.74,8.44-3.88,8.44-1.37,8.89-2.28,8.44v28.51Z"/>
        <path class="uuid-a7efd51a-34df-4815-ab79-3bba7730e0b6" d="M2542.23,291.47l2.51-9.35-1.37-29.42,1.37-18.7-1.37-8.89v-19.61l.91-8.89-1.37-13.91,1.82-12.77-1.37-19.16.91-10.26-.91-8.44.91-9.35v-47.44l-1.37-9.81v-8.89l1.37-8.44v-19.16l.91-9.81,4.54-8.89,12.7-4.33,139.63.46,8.44,2.05,9.35,3.65,9.81,1.82,16.66,8.89,14.15,9.35,7.99,7.07,5.02,7.07,6.16,6.39,5.93,7.98,9.35,16.88,8.44,36.49-.46,27.37-.92,8.44-4.11,19.16-3.43,8.44-4.12,8.44-15.09,22.35-13.95,13.68-7.55,5.47-15.78,9.81-27.21,7.98-19.21,3.65-24.47.46-13.95-1.37-10.29,1.37-12.58,4.79-3.43,7.98v9.81l.91,10.26-1.37,8.44.91,8.89-.46,18.7-4.08,9.81-9.3,5.02h-9.75l-10.21-.91-27.45.46-9.3-.91-9.75-3.65-3.64-9.81-.46-8.89,1.37-8.89-2.05-8.89ZM2626.39,94.87l.91,64.77,5.7,9.35,8.89,4.33,10.72.91,38.31-2.51,7.53-4.11,7.3-5.02,10.72-13.23,5.25-21.44-4.11-21.89-4.79-7.98-7.53-7.07-6.84-5.02-7.98-4.33-37.4-1.82-11.63.91-9.35,3.88-5.7,10.26Z"/>
        <path class="uuid-a7efd51a-34df-4815-ab79-3bba7730e0b6" d="M2849.43,319.06l2.05-9.34.46-9.33-.91-18.22v-9.34l-.91-10.71,1.37-8.43-.46-8.88.91-10.25-1.37-9.8.91-18.68-1.37-18.22,1.37-9.79v-83.37l-.91-8.43.91-9.79-2.05-23.92,2.05-13.44-.91-18.68,4.56-10.2,13.46-3.4,61.35-1.37,8.44.91,18.02-.46,9.35.91,20.75-.91,9.12,1.59,8.44-1.14,37.4.45,9.81,4.31,4.79,9.29-1.37,8.84-.68,10.2,1.6,8.84.91,19.04-5.25,8.38-9.81,4.99-89.63.45-14.6,4.33-4.56,13.46.91,14.37,5.7,8.44,7.75,5.25,36.95-.46,10.72.91h9.81l9.35-.91,18.7.46,7.98,5.02,4.33,8.89.91,9.35-.91,36.95-4.79,8.89-9.35,5.25-8.44.46-9.81-1.14-12.54,1.14-24.86-1.6-9.35,1.14h-18.02l-8.44,5.02-4.33,9.81-.46,22.81,4.33,14.6,9.81,5.47,10.26-.91,10.26.91,8.89-1.37,61.58.91,13.91,4.79,6.16,9.35-.91,8.89.46,28.96-.91,8.89-4.33,8.89-9.81,4.56-8.67.91-28.51-1.82-28.51,1.37-8.44-1.37-105.59.91-8.89-5.02-6.16-8.89Z"/>
        <path class="uuid-a7efd51a-34df-4815-ab79-3bba7730e0b6" d="M3116.95,243.8v-8.89l1.14-10.26v-8.89l.91-8.44-2.05-66.82,1.6-9.81-.46-9.81.91-8.44-1.37-19.16.91-9.35-.91-65.23,5.93-8.89,11.18-5.7,12.77,3.88,18.47,12.54,25.32,25.77,6.16,7.75,7.98,5.7,4.56,7.07,8.89,5.93,5.02,7.07,14.6,12.09,9.81,10.26,5.02,6.61,7.53,5.7,16.42,16.65,7.07,5.7,20.53,20.98,6.39,1.82,2.51-7.53-.46-18.47,1.82-9.81v-8.89l-1.82-9.81.46-85.07,4.55-9.81,11.11-4.79,9.3.46,8.39-.91,9.76,1.37,10.21-.91h8.85l9.3.91,10.21,4.79,5.68,8.44-.91,24.17.91,14.14-2.05,9.35v18.7l1.14,8.89-1.6,18.47,2.05,56.1-.91,10.26,1.82,13.23-2.51,127.03-4.08,9.81-10.66,5.02-12.02-3.65-13.61-6.16-5.92-5.93-5.69-7.07-7.51-6.16-5.92-7.53-45.31-45.16-7.51-6.16-66.72-65.45-5.93-1.37-4.79,5.7,2.05,9.81-1.6,114.49,1.6,9.35-4.33,9.35-9.35,4.56-10.72-.91-9.81,1.37-23.26-1.37-15.96.91-8.89-5.02-4.11-10.26v-8.89l-1.37-9.35,1.37-17.79-.91-9.35.46-19.16-1.6-9.81Z"/>
      </g>
    </g>
  </g>
</svg>